<?xml version="1.0" encoding="utf-8"?>
<!-- Generator: Adobe Illustrator 21.1.0, SVG Export Plug-In . SVG Version: 6.00 Build 0)  -->
<svg version="1.1" id="Capa_2" xmlns="http://www.w3.org/2000/svg" xmlns:xlink="http://www.w3.org/1999/xlink" x="0px" y="0px"
	 viewBox="0 0 347 62.5" style="enable-background:new 0 0 347 62.5;" xml:space="preserve">
<style type="text/css">
	.st0{fill:#FFFFFF;}
</style>
<g>
	<polygon class="st0" points="140.8,21.7 143.1,21.7 139.2,41 136.9,41 	"/>
	<path class="st0" d="M152.2,21.7h2.3l4.4,12.3l1.2,4h0.1c0.2-1.9,0.5-4.1,0.9-6.1l2-10.2h2.2L161.5,41h-2.3l-4.4-12.3l-1.3-4.1
		h-0.1c-0.2,2-0.5,4.1-0.9,6.1L150.5,41h-2.2L152.2,21.7z"/>
	<path class="st0" d="M174.3,21.7h2.3L181,34l1.2,4h0.1c0.2-1.9,0.5-4.1,0.9-6.1l2-10.2h2.2L183.7,41h-2.3L177,28.6l-1.3-4.1h-0.1
		c-0.2,2-0.5,4.1-0.9,6.1L172.7,41h-2.2L174.3,21.7z"/>
	<path class="st0" d="M193.4,33.2c0-5.9,3.9-11.9,9.4-11.9c4.3,0,6.7,3.2,6.7,8.1c0,5.9-3.9,11.9-9.4,11.9
		C195.7,41.3,193.4,38.1,193.4,33.2 M195.7,33.1c0,3.8,1.4,6.3,4.5,6.3c4.1,0,6.9-5.3,6.9-9.8c0-3.8-1.4-6.3-4.5-6.3
		C198.5,23.3,195.7,28.5,195.7,33.1"/>
	<path class="st0" d="M216,21.7h2.3l0.8,10.7c0.2,2.1,0.4,4.2,0.5,6.4h0.1c1-2.1,2-4.3,3.1-6.4l5.3-10.7h2.5L220.5,41h-2.7L216,21.7
		z"/>
	<path class="st0" d="M241.6,34.9h-6.8l-3.1,6h-2.5l10.5-19.3h2.6l2.2,19.3h-2.4L241.6,34.9z M241.4,33.2l-0.3-3.3
		c-0.2-2-0.4-4.1-0.5-6.3h-0.1c-1,2.2-2,4.2-3.1,6.3l-1.7,3.3H241.4z"/>
	<path class="st0" d="M260.7,21.3c2.2,0,3.8,1.2,4.7,2.9l-1.6,1.2c-0.8-1.2-1.8-2.1-3.3-2.1c-4.6,0-7.5,5.4-7.5,10
		c0,3.5,1.4,6,4.9,6c1.6,0,2.8-0.7,4.1-1.7l1,1.5c-1.4,1.2-3.2,2.2-5.5,2.2c-4.4,0-6.8-3.2-6.8-7.8
		C250.8,27.5,254.8,21.3,260.7,21.3"/>
	<polygon class="st0" points="274.1,21.7 276.4,21.7 272.5,41 270.3,41 	"/>
	<path class="st0" d="M282.4,33.2c0-5.9,3.9-11.9,9.4-11.9c4.3,0,6.7,3.2,6.7,8.1c0,5.9-3.9,11.9-9.4,11.9
		C284.7,41.3,282.4,38.1,282.4,33.2 M284.7,33.1c0,3.8,1.4,6.3,4.5,6.3c4.1,0,6.9-5.3,6.9-9.8c0-3.8-1.4-6.3-4.5-6.3
		C287.5,23.3,284.7,28.5,284.7,33.1 M294.1,17h2.6l-3.8,3.2H291L294.1,17z"/>
	<path class="st0" d="M308.1,21.7h2.3l4.4,12.3l1.2,4h0.1c0.2-1.9,0.5-4.1,0.9-6.1l2-10.2h2.2L317.4,41h-2.3l-4.4-12.3l-1.3-4.1
		h-0.1c-0.2,2-0.5,4.1-0.9,6.1L306.4,41h-2.2L308.1,21.7z"/>
	<rect x="123.8" y="5.7" class="st0" width="217.7" height="2.8"/>
	<rect x="116.2" y="54.7" class="st0" width="217" height="2.8"/>
	<path class="st0" d="M19.3,58.3c-8.4,0-13.1-3-16.4-6.8c-0.5-0.6-0.4-1.2,0.2-1.8l5.1-5.8c0.7-0.6,1.2-0.4,1.7,0.1
		c2.4,2.3,5.1,3.7,10.3,3.7c4.3,0,8-2.5,9-7.7c0.8-4.3-2-6.6-6.6-6.6c-1.3,0-3.1,0.2-4.8,0.6c-0.8,0.2-1.4-0.1-1.5-0.9l-1.2-4.1
		c-0.1-0.6,0-1.2,0.5-1.6l13-11.5H12.4c-0.8,0-1.2-0.6-1.2-1.4L12.7,7c0.1-0.7,0.5-1.2,1.3-1.2h29.1c0.8,0,1.2,0.6,1.2,1.4l-1.2,6.1
		c-0.1,0.7-0.2,1-0.7,1.4L29,26.4v0.1c7.4-0.2,12.6,6.6,11.2,14.6C38.1,52.3,30.3,58.3,19.3,58.3"/>
	<path class="st0" d="M56.6,56.3c-0.1,0.7-0.6,1.2-1.3,1.2h-9c-0.8,0-1.2-0.6-1.2-1.4L53.9,7c0.1-0.7,0.6-1.2,1.4-1.2h8.9
		c0.9,0,1.3,0.6,1.2,1.4L56.6,56.3z"/>
	<path class="st0" d="M110.3,5.8c0.9,0,1.3,0.5,1.2,1.4l-1.4,7.9c-0.1,0.7-0.5,1.2-1.3,1.2H96.2l-7.1,40c-0.1,0.7-0.6,1.2-1.3,1.2
		h-9c-0.8,0-1.2-0.6-1.1-1.4l7.1-39.8H72.5c-0.9,0-1.2-0.6-1.2-1.4L72.8,7c0.1-0.7,0.6-1.2,1.3-1.2H110.3z"/>
</g>
</svg>
