<?xml version="1.0" encoding="utf-8"?>
<!-- Generator: Adobe Illustrator 21.1.0, SVG Export Plug-In . SVG Version: 6.00 Build 0)  -->
<svg version="1.1" id="Capa_1" xmlns="http://www.w3.org/2000/svg" xmlns:xlink="http://www.w3.org/1999/xlink" x="0px" y="0px"
	 viewBox="0 0 353.3 274" style="enable-background:new 0 0 353.3 274;" xml:space="preserve">
<style type="text/css">
	.st0{fill:#414042;}
	.st1{clip-path:url(#SVGID_2_);fill:url(#SVGID_3_);}
</style>
<path class="st0" d="M271.4,197.4c-0.2,1-0.8,1.7-1.9,1.7h-12.9c-1.1,0-1.8-0.8-1.7-2l12.4-70.5c0.2-1,0.8-1.7,2-1.7h12.8
	c1.2,0,1.9,0.8,1.7,2L271.4,197.4z"/>
<path class="st0" d="M217.8,200.3c-12.1,0-18.8-4.2-23.5-9.7c-0.7-0.9-0.5-1.8,0.3-2.6l7.3-8.3c0.9-0.8,1.7-0.6,2.5,0.2
	c3.4,3.3,7.3,5.3,14.7,5.3c6.2,0,11.5-3.6,12.9-11c1.1-6.2-2.9-9.4-9.4-9.4c-1.9,0-4.5,0.3-6.8,0.9c-1.1,0.3-2-0.2-2.2-1.2l-1.7-5.9
	c-0.2-0.9,0-1.7,0.7-2.3l18.7-16.5h-23.2c-1.1,0-1.8-0.8-1.7-2l2.1-11.2c0.1-1,0.7-1.7,1.9-1.7H252c1.1,0,1.8,0.8,1.7,2l-1.7,8.8
	c-0.1,0.9-0.3,1.5-1,2.1l-19.3,16.7v0.1c10.7-0.3,18,9.5,16.1,20.9C244.9,191.6,233.6,200.3,217.8,200.3"/>
<path class="st0" d="M348.5,124.9c1.2,0,1.9,0.7,1.7,2l-2.1,11.4c-0.1,1-0.7,1.7-1.9,1.7h-17.9l-10.2,57.4c-0.2,1-0.8,1.7-1.9,1.7
	h-13c-1.1,0-1.8-0.8-1.6-2l10.2-57.1h-17.7c-1.2,0-1.8-0.8-1.7-2l2.1-11.4c0.2-1,0.8-1.7,1.9-1.7H348.5z"/>
<g>
	<defs>
		<path id="SVGID_1_" d="M5.9,18.9C3,28.8,8.7,39,18.5,41.9l133,38.6L43,116.3c-7.9,2.6-13.1,10.2-12.7,18.5
			c0.4,8.3,6.3,15.3,14.5,17.1l85.1,18.8L81.1,241c-5.8,8.4-3.7,19.9,4.7,25.8c3.2,2.2,6.9,3.3,10.5,3.3c5.9,0,11.6-2.8,15.2-8
			l64.5-92.9c3.5-5.1,4.3-11.6,2-17.3c-2.2-5.7-7.2-10-13.2-11.3l-46.3-10.2l101.3-33.5c7.7-2.5,12.8-9.8,12.7-17.9
			c-0.1-8.1-5.6-15.2-13.4-17.4L28.8,6.3c-1.7-0.5-3.5-0.7-5.2-0.7C15.6,5.6,8.2,10.9,5.9,18.9"/>
	</defs>
	<clipPath id="SVGID_2_">
		<use xlink:href="#SVGID_1_"  style="overflow:visible;"/>
	</clipPath>
	
		<linearGradient id="SVGID_3_" gradientUnits="userSpaceOnUse" x1="-36.1913" y1="735.2438" x2="-35.1913" y2="735.2438" gradientTransform="matrix(0 264.4627 264.4627 0 -194326.75 9576.8301)">
		<stop  offset="0" style="stop-color:#00748B"/>
		<stop  offset="0.1493" style="stop-color:#097A90"/>
		<stop  offset="0.3897" style="stop-color:#208C9E"/>
		<stop  offset="0.6911" style="stop-color:#47A7B6"/>
		<stop  offset="1" style="stop-color:#76C9D2"/>
	</linearGradient>
	<rect x="3" y="5.6" class="st1" width="229.7" height="264.5"/>
</g>
<path class="st0" d="M196.6,225.5c-0.4,0.1-1,0.3-1.7,0.3c-2.1,0-3.4-1.2-3.8-2.7c-2.5-0.4-3.8-2.6-3.2-6c0.7-3.7,3.1-6,6-6
	c2.9,0,4.6,2.3,3.9,6c-0.6,3.4-2.6,5.6-5.2,6c0.4,1,1.3,1.5,2.6,1.5c0.5,0,0.9-0.1,1.3-0.2L196.6,225.5z M192.1,221.8
	c2.1,0,3.8-1.9,4.3-4.8c0.5-2.9-0.5-4.7-2.6-4.7c-2.1,0-3.8,1.8-4.3,4.7C188.9,219.9,190,221.8,192.1,221.8"/>
<path class="st0" d="M200.7,211.2h1.5l-1.2,6.9c-0.5,2.8,0.5,3.7,2,3.7c1.5,0,2.9-0.9,3.4-3.7l1.2-6.9h1.4l-1.2,6.8
	c-0.7,3.7-2.7,5-5.1,5s-4-1.3-3.3-5L200.7,211.2z"/>
<path class="st0" d="M215.5,219.3h-4.2l-1.7,3.5H208l6-11.6h1.7l1.9,11.6H216L215.5,219.3z M215.4,218.1l-0.2-1.8
	c-0.2-1.3-0.3-2.6-0.5-3.9h-0.1c-0.6,1.3-1.2,2.6-1.8,3.9l-0.9,1.8H215.4z"/>
<polygon class="st0" points="221,211.2 222.5,211.2 220.7,221.6 225.7,221.6 225.5,222.8 218.9,222.8 "/>
<polygon class="st0" points="229.3,211.2 230.8,211.2 228.8,222.8 227.3,222.8 "/>
<polygon class="st0" points="236,212.5 232.4,212.5 232.6,211.2 241.2,211.2 241,212.5 237.4,212.5 235.6,222.8 234.1,222.8 "/>
<path class="st0" d="M243.4,218.3l-2.3-7.1h1.6l0.9,3.3c0.2,0.9,0.4,1.7,0.7,2.5h0.1c0.5-0.9,1.1-1.7,1.6-2.5l2.1-3.3h1.5l-4.8,7.1
	l-0.8,4.5h-1.5L243.4,218.3z"/>
<path class="st0" d="M252.6,217c0.7-3.7,3.1-6,6-6c2.9,0,4.6,2.3,3.9,6c-0.7,3.7-3.1,6.1-6,6.1C253.6,223.1,252,220.7,252.6,217
	 M261,217c0.5-2.9-0.5-4.7-2.6-4.7c-2.1,0-3.8,1.8-4.3,4.7c-0.5,2.9,0.5,4.8,2.6,4.8C258.8,221.8,260.5,219.9,261,217"/>
<polygon class="st0" points="265.8,211.2 272.5,211.2 272.3,212.5 267.1,212.5 266.4,216.4 270.8,216.4 270.6,217.6 266.2,217.6 
	265.2,222.8 263.8,222.8 "/>
<path class="st0" d="M276.2,220.3c0.7,0.9,1.7,1.5,3,1.5c1.5,0,2.6-0.8,2.8-1.9c0.2-1.2-0.6-1.6-1.6-2.1l-1.5-0.7
	c-1-0.5-2.1-1.3-1.8-3c0.3-1.8,2.1-3.1,4.2-3.1c1.4,0,2.5,0.6,3.2,1.4l-0.9,1c-0.6-0.7-1.4-1.1-2.4-1.1c-1.3,0-2.3,0.7-2.5,1.7
	c-0.2,1.1,0.8,1.5,1.6,1.9l1.5,0.7c1.2,0.6,2.1,1.4,1.8,3.1c-0.3,1.8-2.1,3.3-4.6,3.3c-1.6,0-2.9-0.7-3.8-1.7L276.2,220.3z"/>
<polygon class="st0" points="286.9,211.2 293.6,211.2 293.4,212.5 288.2,212.5 287.5,216.1 291.9,216.1 291.7,217.4 287.3,217.4 
	286.6,221.6 292,221.6 291.7,222.8 284.9,222.8 "/>
<path class="st0" d="M300.3,222.8l-1.9-4.9h-2.1l-0.9,4.9h-1.5l2.1-11.6h3.7c2.4,0,3.9,0.9,3.5,3.3c-0.3,1.8-1.5,2.9-3.2,3.3
	l2.1,5.1H300.3z M296.5,216.7h1.9c1.8,0,2.9-0.7,3.2-2.3c0.3-1.5-0.6-2.1-2.4-2.1h-2L296.5,216.7z"/>
<path class="st0" d="M304.2,211.2h1.6l0.8,6.3c0.2,1.4,0.3,2.5,0.4,3.8h0.1c0.7-1.4,1.2-2.5,1.8-3.8l3-6.3h1.5l-5.7,11.6h-1.7
	L304.2,211.2z"/>
<polygon class="st0" points="315,211.2 316.5,211.2 314.4,222.8 312.9,222.8 "/>
<path class="st0" d="M323.9,211c1.4,0,2.4,0.7,2.9,1.4l-1,0.9c-0.5-0.7-1.2-1.1-2.1-1.1c-2.2,0-4,1.8-4.5,4.7
	c-0.5,2.9,0.6,4.8,2.8,4.8c1.1,0,2-0.5,2.9-1.3l0.7,0.9c-1.1,1.1-2.4,1.7-3.8,1.7c-2.9,0-4.7-2.2-4-6C318.3,213.3,321,211,323.9,211
	"/>
<polygon class="st0" points="329.2,211.2 335.9,211.2 335.7,212.5 330.5,212.5 329.9,216.1 334.3,216.1 334,217.4 329.6,217.4 
	328.9,221.6 334.3,221.6 334.1,222.8 327.2,222.8 "/>
</svg>
