<svg id="Capa_1" data-name="Capa 1" xmlns="http://www.w3.org/2000/svg" xmlns:xlink="http://www.w3.org/1999/xlink" viewBox="0 0 243.45 186.57"><defs><style>.cls-1{fill:none;}.cls-2{clip-path:url(#clip-path);}.cls-3{fill:#fff;}</style><clipPath id="clip-path" transform="translate(0 0)"><rect class="cls-1" width="243.45" height="186.57"/></clipPath></defs><title>3it-logo</title><g class="cls-2"><path class="cls-3" d="M112.64,95.21,80,88l71.49-23.61A13.06,13.06,0,0,0,151,39.44L16.69.52A13.06,13.06,0,0,0,9.43,25.6l93.85,27.2L26.71,78.08A13.06,13.06,0,0,0,28,103.22L88,116.5,53.61,166.07A13.06,13.06,0,1,0,75.07,181l45.48-65.56a13.06,13.06,0,0,0-7.91-20.19" transform="translate(0 0)"/><path class="cls-3" d="M174.16,84.19H144.69a1.19,1.19,0,0,0-1.32,1.17l-1.46,7.9a1.15,1.15,0,0,0,1.17,1.39h16.38L146.3,106.27a1.5,1.5,0,0,0-.51,1.61l1.17,4.17a1.12,1.12,0,0,0,1.54.88,20.51,20.51,0,0,1,4.83-.66c4.61,0,7.46,2.27,6.65,6.66-1,5.19-4.68,7.75-9.07,7.75-5.27,0-8-1.39-10.38-3.73-.59-.58-1.1-.73-1.76-.15l-5.12,5.85a1.23,1.23,0,0,0-.22,1.83c3.36,3.88,8,6.88,16.6,6.88,11.12,0,19.09-6.14,21.14-17.48,1.39-8-3.8-15-11.34-14.77V105l13.6-11.78a1.9,1.9,0,0,0,.73-1.46l1.17-6.22a1.15,1.15,0,0,0-1.17-1.39" transform="translate(0 0)"/><path class="cls-3" d="M177.46,136.48h9.07a1.28,1.28,0,0,0,1.32-1.17l8.78-49.73a1.09,1.09,0,0,0-1.17-1.39h-9a1.3,1.3,0,0,0-1.39,1.17l-8.78,49.73a1.15,1.15,0,0,0,1.17,1.39" transform="translate(0 0)"/><path class="cls-3" d="M242.25,84.19H205.54a1.28,1.28,0,0,0-1.32,1.17l-1.46,8c-.07.81.29,1.39,1.17,1.39h12.51l-7.17,40.3a1.07,1.07,0,0,0,1.1,1.39h9.14a1.28,1.28,0,0,0,1.32-1.17L228,94.79h12.65A1.19,1.19,0,0,0,242,93.62l1.46-8a1.07,1.07,0,0,0-1.17-1.39" transform="translate(0 0)"/><path class="cls-3" d="M133.21,144.93c-2.06,0-3.78,1.59-4.24,4.21-.43,2.41.49,4,2.24,4.25a2.53,2.53,0,0,0,2.69,1.94,4,4,0,0,0,1.21-.19l-.06-.81a3.36,3.36,0,0,1-.89.13,1.75,1.75,0,0,1-1.82-1.08c1.79-.3,3.23-1.88,3.65-4.24.46-2.61-.71-4.21-2.77-4.21m1.69,4.21c-.36,2.05-1.56,3.38-3,3.38s-2.19-1.32-1.83-3.37,1.54-3.3,3-3.3,2.2,1.26,1.85,3.3" transform="translate(0 0)"/><path class="cls-3" d="M142.9,145.08l-.85,4.84c-.35,2-1.32,2.6-2.41,2.6s-1.79-.62-1.44-2.6l.85-4.84H138l-.85,4.81c-.46,2.64.65,3.54,2.33,3.54s3.11-.9,3.58-3.54l.85-4.81Z" transform="translate(0 0)"/><path class="cls-3" d="M147.37,145.08l-4.22,8.2h1.06l1.23-2.5h3l.35,2.5h1.1l-1.33-8.2Zm-1.52,4.86.62-1.25c.45-.91.87-1.81,1.3-2.76h0c.1.95.2,1.85.33,2.76l.17,1.25Z" transform="translate(0 0)"/><polygon class="cls-3" points="153.34 145.08 152.29 145.08 150.84 153.28 155.47 153.28 155.63 152.39 152.05 152.39 153.34 145.08"/><polygon class="cls-3" points="156.73 153.28 157.78 153.28 159.23 145.08 158.18 145.08 156.73 153.28"/><path class="cls-3" d="M169.91,147.39c-.36.6-.75,1.18-1.13,1.79h0c-.18-.61-.33-1.19-.49-1.79l-.64-2.31h-7.1l-.15.88h2.49l-1.29,7.33h1l1.29-7.33h2.49l.14-.79,1.57,4.94-.56,3.18h1l.56-3.18,3.35-5h-1.08Z" transform="translate(0 0)"/><path class="cls-3" d="M178.85,144.93c-2.06,0-3.79,1.59-4.26,4.21s.69,4.29,2.76,4.29,3.79-1.65,4.26-4.29-.71-4.21-2.76-4.21m1.69,4.21c-.36,2.05-1.56,3.38-3,3.38s-2.21-1.32-1.84-3.37,1.54-3.3,3-3.3,2.21,1.26,1.85,3.3" transform="translate(0 0)"/><polygon class="cls-3" points="182.45 153.28 183.5 153.28 184.15 149.61 187.28 149.61 187.44 148.73 184.31 148.73 184.8 145.96 188.49 145.96 188.64 145.08 183.9 145.08 182.45 153.28"/><path class="cls-3" d="M194.55,145.84a2.2,2.2,0,0,1,1.73.77l.67-.67a2.8,2.8,0,0,0-2.24-1,2.9,2.9,0,0,0-3,2.17,1.87,1.87,0,0,0,1.29,2.11l1.08.51c.72.35,1.27.61,1.12,1.45a1.78,1.78,0,0,1-1.95,1.34,2.63,2.63,0,0,1-2.08-1l-.75.73a3.29,3.29,0,0,0,2.65,1.21,3.07,3.07,0,0,0,3.21-2.34,1.86,1.86,0,0,0-1.3-2.19l-1.09-.5c-.59-.28-1.26-.58-1.12-1.36a1.61,1.61,0,0,1,1.75-1.2" transform="translate(0 0)"/><polygon class="cls-3" points="197.34 153.28 202.19 153.28 202.35 152.39 198.54 152.39 199.07 149.42 202.17 149.42 202.33 148.53 199.22 148.53 199.68 145.96 203.36 145.96 203.51 145.08 198.78 145.08 197.34 153.28"/><path class="cls-3" d="M207.76,145.08h-2.58l-1.45,8.2h1.05l.61-3.46h1.48l1.37,3.46h1.19L208,149.71a2.82,2.82,0,0,0,2.25-2.33c.3-1.7-.8-2.3-2.46-2.3m1.42,2.3c-.19,1.06-1,1.59-2.26,1.59h-1.38l.54-3h1.38c1.28,0,1.91.39,1.72,1.46" transform="translate(0 0)"/><path class="cls-3" d="M216.34,145.08l-2.09,4.43c-.45,1-.8,1.75-1.27,2.71h-.05c-.13-1-.19-1.74-.31-2.71l-.54-4.43H211l1.17,8.2h1.21l4-8.2Z" transform="translate(0 0)"/><polygon class="cls-3" points="217.14 153.28 218.19 153.28 219.64 145.08 218.59 145.08 217.14 153.28"/><path class="cls-3" d="M224.91,144.93c-2.1,0-4,1.61-4.42,4.25s.79,4.25,2.85,4.25a3.8,3.8,0,0,0,2.7-1.19l-.48-.64a2.89,2.89,0,0,1-2,.91c-1.56,0-2.32-1.3-2-3.36s1.62-3.31,3.19-3.31a1.8,1.8,0,0,1,1.5.76l.71-.66a2.5,2.5,0,0,0-2.06-1" transform="translate(0 0)"/><polygon class="cls-3" points="227.2 153.28 232.05 153.28 232.21 152.39 228.41 152.39 228.93 149.42 232.03 149.42 232.19 148.53 229.09 148.53 229.54 145.96 233.22 145.96 233.37 145.08 228.65 145.08 227.2 153.28"/></g></svg>