<?xml version="1.0" encoding="utf-8"?>
<!-- Generator: Adobe Illustrator 21.1.0, SVG Export Plug-In . SVG Version: 6.00 Build 0)  -->
<svg version="1.1" id="Capa_2" xmlns="http://www.w3.org/2000/svg" xmlns:xlink="http://www.w3.org/1999/xlink" x="0px" y="0px"
	 viewBox="0 0 348 68.7" style="enable-background:new 0 0 348 68.7;" xml:space="preserve">
<style type="text/css">
	.st0{fill:#FFFFFF;}
</style>
<g>
	<rect x="131.3" y="7.6" class="st0" width="211.8" height="2.8"/>
	<rect x="123.3" y="57.6" class="st0" width="211.8" height="2.8"/>
	<path class="st0" d="M23.6,61.1c-8.6,0-13.4-3-16.8-6.9c-0.5-0.7-0.4-1.3,0.2-1.8l5.2-5.9c0.7-0.6,1.2-0.4,1.8,0.1
		c2.4,2.4,5.2,3.8,10.5,3.8c4.4,0,8.2-2.6,9.2-7.8c0.8-4.4-2.1-6.7-6.7-6.7c-1.3,0-3.2,0.2-4.9,0.7c-0.8,0.2-1.4-0.1-1.5-0.9
		l-1.2-4.2c-0.1-0.7,0-1.2,0.5-1.6L33.1,18H16.6c-0.8,0-1.3-0.6-1.2-1.4l1.5-8c0.1-0.7,0.5-1.2,1.3-1.2H48c0.8,0,1.3,0.6,1.2,1.4
		L48,15.1c-0.1,0.7-0.2,1-0.7,1.5L33.5,28.5v0.1c7.6-0.2,12.8,6.8,11.4,14.9C42.9,54.9,34.8,61.1,23.6,61.1"/>
	<path class="st0" d="M61.8,59.1c-0.1,0.7-0.6,1.2-1.3,1.2h-9.2c-0.8,0-1.3-0.6-1.2-1.4L59,8.6c0.1-0.7,0.6-1.2,1.4-1.2h9.1
		c0.9,0,1.3,0.6,1.2,1.4L61.8,59.1z"/>
	<path class="st0" d="M116.7,7.5c0.9,0,1.3,0.5,1.2,1.4l-1.5,8.1c-0.1,0.7-0.5,1.2-1.3,1.2h-12.8l-7.2,40.9
		c-0.1,0.7-0.6,1.2-1.3,1.2h-9.2c-0.8,0-1.3-0.6-1.1-1.4l7.2-40.7H78c-0.9,0-1.3-0.6-1.2-1.4l1.5-8.1c0.1-0.7,0.6-1.2,1.3-1.2H116.7
		z"/>
	<path class="st0" d="M217.9,29.1c0.7-4.2-2-5.7-6-5.7h-6.4l-1.5,8.9l0,0l-2,11.6l3.8,0l5.3,0l0,0c3.6,0,5.9-2.9,6.5-6
		c0.4-2.5-0.4-4.1-2-4.9C216.7,32.2,217.5,30.9,217.9,29.1z M207.7,25.5h3.4c3.1,0,4.7,1,4.2,3.6c-0.4,2.6-2.3,3.2-5.4,3.2h-3.3
		L207.7,25.5z M214.9,37.9c-0.4,2.6-2.4,3.9-5.5,3.9h-4.5l1.3-7.5l3.5,0l2.1,0C214.2,34.6,215.3,35.6,214.9,37.9z"/>
	<polygon class="st0" points="224.6,23.4 227.1,23.4 223.9,41.8 232.5,41.8 232.1,44 221,44 	"/>
	<path class="st0" d="M235.7,33.8c1.1-6.4,5.4-10.4,10.4-10.4c5,0,7.9,3.9,6.8,10.4c-1.1,6.4-5.5,10.5-10.5,10.5
		C237.5,44.3,234.6,40.2,235.7,33.8 M250.3,33.8c0.9-5-1-8.1-4.5-8.1c-3.7,0-6.6,3.1-7.5,8.1c-0.9,5,0.9,8.3,4.6,8.3
		C246.5,42.1,249.4,38.8,250.3,33.8"/>
	<path class="st0" d="M267.4,23.4c2.6,0,4.3,1.3,5.2,2.5l-1.7,1.6c-0.8-1.1-1.9-1.9-3.9-1.9c-4,0-7.1,3.1-8,8.1
		c-0.9,5,0.9,8.2,5.2,8.2c1.4,0,2.9-0.5,3.8-1.2l0.9-5.2h-4.2l0.4-2.1h6.5l-1.4,8.4c-1.5,1.3-3.9,2.3-6.5,2.3
		c-5.2,0-8.3-3.9-7.1-10.4C257.5,27.4,262,23.4,267.4,23.4"/>
</g>
</svg>
