<?xml version="1.0" encoding="utf-8"?>
<!-- Generator: Adobe Illustrator 21.1.0, SVG Export Plug-In . SVG Version: 6.00 Build 0)  -->
<svg version="1.1" id="Capa_2" xmlns="http://www.w3.org/2000/svg" xmlns:xlink="http://www.w3.org/1999/xlink" x="0px" y="0px"
	 viewBox="0 0 346 63" style="enable-background:new 0 0 346 63;" xml:space="preserve">
<style type="text/css">
	.st0{fill:#FFFFFF;}
</style>
<g>
	<rect x="124.4" y="6.4" class="st0" width="218.6" height="2.8"/>
	<rect x="116.8" y="55.6" class="st0" width="217.8" height="2.8"/>
	<path class="st0" d="M43.4,6.5H14.2c-0.8,0-1.2,0.4-1.3,1.2l-1.4,7.8c-0.1,0.8,0.4,1.4,1.2,1.4h16.2l-13,11.5
		c-0.5,0.4-0.7,0.9-0.5,1.6l1.2,4.1c0.1,0.7,0.7,1.1,1.5,0.9c1.7-0.4,3.5-0.7,4.8-0.7c4.6,0,7.4,2.2,6.6,6.6c-0.9,5.1-4.6,7.7-9,7.7
		c-5.2,0-7.9-1.4-10.3-3.7c-0.6-0.6-1.1-0.7-1.7-0.1l-5.1,5.8c-0.6,0.6-0.7,1.2-0.2,1.8c3.3,3.8,8,6.8,16.5,6.8
		c11,0,18.9-6.1,20.9-17.3c1.4-8-3.8-14.9-11.2-14.6v-0.1l13.5-11.7c0.5-0.4,0.7-0.8,0.7-1.4l1.2-6.2C44.6,7.1,44.2,6.5,43.4,6.5z"
		/>
	<path class="st0" d="M64.5,6.5h-8.9c-0.8,0-1.2,0.4-1.4,1.2L45.5,57c-0.1,0.8,0.4,1.4,1.2,1.4h9c0.7,0,1.2-0.4,1.3-1.2l8.7-49.3
		C65.8,7.1,65.4,6.5,64.5,6.5z"/>
	<path class="st0" d="M110.9,6.5H74.5c-0.7,0-1.2,0.4-1.3,1.2l-1.4,8c-0.1,0.8,0.3,1.4,1.2,1.4h12.4L78.2,57
		c-0.1,0.8,0.3,1.4,1.1,1.4h9.1c0.7,0,1.2-0.4,1.3-1.2l7.1-40.2h12.5c0.8,0,1.2-0.4,1.3-1.2l1.4-8C112.2,7,111.8,6.5,110.9,6.5z"/>
	<polygon class="st0" points="187.3,26.4 187.7,24.4 176,24.4 172.5,43.1 184.4,43.1 184.8,41.1 175.5,41.1 176.8,34.3 184.4,34.3 
		184.7,32.3 177.1,32.3 178.3,26.4 	"/>
	<path class="st0" d="M207.7,29.6c0.7-3.9-1.8-5.2-5.6-5.2h-5.8L193,43h2.3l1.4-7.8h3.4l3.1,7.8h2.7l-3.3-8.1
		C205.2,34.2,207.1,32.5,207.7,29.6z M205.3,29.6c-0.4,2.4-2.2,3.6-5.1,3.6h-3.1l1.2-6.9h3.2C204.3,26.3,205.8,27.2,205.3,29.6z"/>
	<path class="st0" d="M229.6,24.4h-2.5l-5.3,10.3c-1,2-2.1,4.1-3.1,6.1h-0.1c-0.1-2-0.3-4.1-0.5-6.1l-0.8-10.3H215l1.7,18.6h2.7
		L229.6,24.4z"/>
	<path class="st0" d="M254.8,25.3c1.5,0,2.5,0.9,3.3,2.1l1.6-1.2c-0.9-1.6-2.5-2.9-4.7-2.9c-6,0-10,6.1-10,12.2
		c0,4.6,2.4,7.8,6.8,7.8c2.3,0,4.1-1,5.5-2.2l-1-1.5c-1.3,1.1-2.5,1.7-4.1,1.7c-3.5,0-4.9-2.5-4.9-6
		C247.3,30.7,250.2,25.3,254.8,25.3z"/>
	<polygon class="st0" points="268.3,23.7 264.5,43 266.8,43 270.6,23.7 	"/>
	<polygon class="st0" points="237.5,23.7 233.6,43 235.9,43 239.8,23.7 	"/>
	<path class="st0" d="M292.6,31.4c0-4.9-2.4-8.1-6.7-8.1c-5.5,0-9.4,6-9.4,11.9c0,4.9,2.4,8.1,6.7,8.1
		C288.8,43.3,292.6,37.3,292.6,31.4z M278.9,35.1c0-4.5,2.8-9.8,6.9-9.8c3.1,0,4.5,2.5,4.5,6.3c0,4.5-2.8,9.8-6.9,9.8
		C280.3,41.4,278.9,38.8,278.9,35.1z"/>
	<path class="st0" d="M303.2,40.9c-2,0-3.6-0.9-4.7-2.3l-1.7,1.6c1.4,1.7,3.4,2.8,6,2.8c3.9,0,6.8-2.3,7.3-5.3
		c0.5-2.8-0.9-4-2.9-4.9l-2.4-1.1c-1.3-0.6-2.8-1.3-2.5-3.1c0.3-1.7,1.9-2.7,4-2.7c1.7,0,2.9,0.7,3.9,1.7l1.5-1.5
		c-1.1-1.4-2.8-2.3-5-2.3c-3.4,0-6.2,2.1-6.7,4.9c-0.5,2.7,1.3,4,2.9,4.8l2.5,1.2c1.6,0.8,2.8,1.4,2.5,3.3
		C307.3,39.7,305.6,40.9,303.2,40.9z"/>
	<path class="st0" d="M159.5,41.4c-2,0-3.6-0.9-4.7-2.3l-1.7,1.6c1.4,1.7,3.4,2.8,6,2.8c3.9,0,6.8-2.3,7.3-5.3
		c0.5-2.8-0.9-4-2.9-4.9l-2.4-1.1c-1.3-0.6-2.8-1.3-2.5-3.1c0.3-1.7,1.9-2.7,4-2.7c1.7,0,2.9,0.7,3.9,1.7l1.5-1.5
		c-1.1-1.4-2.8-2.3-5-2.3c-3.4,0-6.2,2.1-6.7,4.9c-0.5,2.7,1.3,4,2.9,4.8l2.5,1.2c1.6,0.8,2.8,1.4,2.5,3.3
		C163.6,40.1,161.8,41.4,159.5,41.4z"/>
</g>
</svg>
