<?xml version="1.0" encoding="utf-8"?>
<!-- Generator: Adobe Illustrator 21.1.0, SVG Export Plug-In . SVG Version: 6.00 Build 0)  -->
<svg version="1.1" id="svg-volver" xmlns="http://www.w3.org/2000/svg" xmlns:xlink="http://www.w3.org/1999/xlink" x="0px" y="0px"
	 viewBox="0 0 93.8 91.4" style="enable-background:new 0 0 93.8 91.4;" xml:space="preserve">
<g id="circulos-izquierda">
	<circle class="st0" cx="45.8" cy="20.8" r="3.1"/>
	<circle class="st0" cx="35.8" cy="20.8" r="3.1"/>
	<circle class="st0" cx="25.8" cy="20.8" r="3.1"/>
	<circle class="st0" cx="15.8" cy="20.8" r="3.1"/>
	<circle class="st0" cx="5.8" cy="20.8" r="3.1"/>
</g>
<g id="circulos-abajo">
	<circle class="st0" cx="72.1" cy="47.1" r="3.1"/>
	<circle class="st0" cx="72.1" cy="57.1" r="3.1"/>
	<circle class="st0" cx="72.1" cy="67.1" r="3.1"/>
	<circle class="st0" cx="72.1" cy="77.1" r="3.1"/>
	<circle class="st0" cx="72.1" cy="87.1" r="3.1"/>
</g>
<path id="icono-grande" class="st1" d="M72,2.3c-10.4,0-18.7,8.3-18.7,18.6S61.6,39.5,72,39.5s18.7-8.3,18.7-18.6S82.3,2.3,72,2.3z
	 M78,21.1l-11.7,7.2c-0.2,0.1-0.4-0.1-0.3-0.3l4.5-7c0-0.1,0-0.1,0-0.2l-4.5-7c-0.1-0.2,0.1-0.4,0.3-0.3L78,20.7
	C78.1,20.8,78.1,21,78,21.1z"/>
</svg>
