<?xml version="1.0" encoding="utf-8"?>
<!-- Generator: Adobe Illustrator 21.1.0, SVG Export Plug-In . SVG Version: 6.00 Build 0)  -->
<svg version="1.1" id="svg-volver" xmlns="http://www.w3.org/2000/svg" xmlns:xlink="http://www.w3.org/1999/xlink" x="0px" y="0px"
	 viewBox="0 0 93.8 91.4" style="enable-background:new 0 0 93.8 91.4;" xml:space="preserve">
<style type="text/css">
	.st0{fill:#FFFFFF;}
</style>
<path id="icono-grande" class="st0" d="M72.1,2c-10.4,0-18.7,8.4-18.7,18.8s8.4,18.8,18.7,18.8s18.8-8.4,18.8-18.8S82.5,2,72.1,2z
	 M83.3,28.8c-0.2,0-0.5-0.1-0.6-0.3c-4.6-5.3-11.3-4.1-11.3-4.1v3.7c0,0.4-0.3,0.7-0.7,0.7c-0.2,0-0.3-0.1-0.4-0.1l-9.5-7.1
	c-0.5-0.4-0.6-1.1-0.2-1.6c0.1-0.1,0.1-0.2,0.2-0.2l9.5-7.1c0.3-0.2,0.8-0.2,1,0.1c0.1,0.1,0.2,0.3,0.2,0.5V17
	c10.3,0,12.3,7.2,12.6,11C84,28.4,83.7,28.8,83.3,28.8z"/>
<g id="circulos-izquierda">
	<circle class="st0" cx="45.8" cy="20.8" r="3.1"/>
	<circle class="st0" cx="35.8" cy="20.8" r="3.1"/>
	<circle class="st0" cx="25.8" cy="20.8" r="3.1"/>
	<circle class="st0" cx="15.8" cy="20.8" r="3.1"/>
	<circle class="st0" cx="5.8" cy="20.8" r="3.1"/>
</g>
<g id="circulos-abajo">
	<circle class="st0" cx="72.1" cy="47.1" r="3.1"/>
	<circle class="st0" cx="72.1" cy="57.1" r="3.1"/>
	<circle class="st0" cx="72.1" cy="67.1" r="3.1"/>
	<circle class="st0" cx="72.1" cy="77.1" r="3.1"/>
	<circle class="st0" cx="72.1" cy="87.1" r="3.1"/>
</g>
</svg>
