<?xml version="1.0" standalone="no"?>
<!DOCTYPE svg PUBLIC "-//W3C//DTD SVG 1.1//EN" "http://www.w3.org/Graphics/SVG/1.1/DTD/svg11.dtd" >
<svg xmlns="http://www.w3.org/2000/svg" xmlns:xlink="http://www.w3.org/1999/xlink" version="1.1">
<metadata>
Created by FontForge 20170731 at Wed Jan 25 22:56:01 2017
 By ,,,
Copyright (c) 2016 by FontfabricLLC. All rights reserved.
</metadata>
<defs>
<font id="UniNeueThin" horiz-adv-x="540" >
  <font-face 
    font-family="Uni Neue Thin"
    font-weight="250"
    font-stretch="normal"
    units-per-em="1000"
    panose-1="0 0 0 0 0 0 0 0 0 0"
    ascent="750"
    descent="-250"
    x-height="513"
    cap-height="715"
    bbox="-223.455 -227 1037 954"
    underline-thickness="50"
    underline-position="-225"
    unicode-range="U+0020-25CA"
  />
<missing-glyph horiz-adv-x="242" 
 />
    <glyph glyph-name=".notdef" horiz-adv-x="242" 
 />
    <glyph glyph-name=".null" horiz-adv-x="0" 
 />
    <glyph glyph-name="nonmarkingreturn" horiz-adv-x="333" 
 />
    <glyph glyph-name="space" unicode=" " horiz-adv-x="242" 
 />
    <glyph glyph-name="exclam" unicode="!" horiz-adv-x="204" 
d="M107 141h-10q-5 0 -5 5v564q0 5 5 5h10q5 0 5 -5v-564q0 -5 -5 -5zM122 18q0 -20 -20 -20t-20 20t20 20t20 -20z" />
    <glyph glyph-name="quotedbl" unicode="&#x22;" horiz-adv-x="248" 
d="M100 710l-19 -169q0 -5 -6 -5h-6q-5 0 -5 5l13 169q0 5 5 5h14q4 0 4 -5zM190 710l-19 -169q0 -5 -6 -5h-6q-5 0 -5 5l13 169q0 5 5 5h14q4 0 4 -5z" />
    <glyph glyph-name="numbersign" unicode="#" horiz-adv-x="687" 
d="M141 0h-10q-5 0 -4 6l63 223h-145q-7 0 -5 6l3 9q2 4 5 4h147l63 225h-145q-7 0 -5 6l3 9q2 4 5 4h147l62 219q2 4 5 4h10q6 0 4 -6l-61 -217h200l62 219q2 4 5 4h10q6 0 4 -6l-61 -217h141q6 0 5 -6l-3 -9q-2 -4 -5 -4h-143l-63 -225h141q6 0 5 -6l-3 -9q-2 -4 -5 -4
h-143l-64 -225q-2 -4 -5 -4h-10q-5 0 -4 6l63 223h-200l-64 -225q-2 -4 -5 -4zM278 473l-63 -225h200l63 225h-200z" />
    <glyph glyph-name="dollar" unicode="$" horiz-adv-x="583" 
d="M292 371q45 -11 70.5 -18.5t62 -23.5t56 -34.5t34 -49t14.5 -69.5q0 -86 -59.5 -135t-163.5 -51v-81q0 -5 -5 -5h-10q-5 0 -5 5v81q-114 3 -218 98q-5 3 -1 7l5 7q3 3 7 1q107 -95 221 -95q94 0 151.5 44t57.5 123q0 35 -14.5 63.5t-29.5 44t-53 31.5t-54 20.5t-63 15.5
q-3 1 -5.5 1.5t-5.5 1.5q-109 26 -164.5 67t-55.5 127q0 83 62.5 129.5t159.5 48.5v75q0 5 5 5h10q5 0 5 -5v-75q58 -2 104 -21.5t98 -61.5q5 -3 1 -7l-5 -7q-3 -3 -7 -1q-97 79 -208 79q-90 0 -147.5 -42t-57.5 -117q0 -77 51.5 -114t156.5 -62z" />
    <glyph glyph-name="percent" unicode="%" horiz-adv-x="753" 
d="M296 460q0 -46 -33 -77.5t-85 -31.5t-85 31.5t-33 77.5v145q0 50 32.5 82t85.5 32t85.5 -32t32.5 -82v-145zM111 0h-9q-8 0 -4 6l516 699q2 3 6 3h10q7 0 3 -6l-516 -699q-1 -3 -6 -3zM78 460q0 -38 28 -64.5t72 -26.5t72 26.5t28 64.5v145q0 42 -27.5 69t-72.5 27
t-72.5 -27t-27.5 -69v-145zM696 101q0 -46 -33 -77.5t-85 -31.5t-85 31.5t-33 77.5v145q0 50 32.5 82t85.5 32t85.5 -32t32.5 -82v-145zM478 101q0 -38 28 -64.5t72 -26.5t72 26.5t28 64.5v145q0 42 -27.5 69t-72.5 27t-72.5 -27t-27.5 -69v-145z" />
    <glyph glyph-name="ampersand" unicode="&#x26;" horiz-adv-x="581" 
d="M446 101q-42 -56 -87.5 -83.5t-112.5 -27.5q-89 0 -142.5 47.5t-53.5 130.5q0 128 153 214q-100 124 -100 202q0 63 42.5 102t116.5 39q73 0 114 -37t41 -98q0 -57 -43.5 -107.5t-141.5 -105.5q64 -75 211 -244q23 43 48 119q1 6 6 4l9 -3q6 -1 4 -7q-25 -81 -54 -128
l101 -112q5 -6 -2 -6h-14q-4 0 -6 3zM71 168q0 -75 47.5 -116.5t128.5 -41.5q59 0 102.5 25t82.5 81q-152 173 -217 251q-144 -80 -144 -199zM124 584q0 -41 22.5 -85t74.5 -107q93 52 134 99t41 99t-35 83.5t-99 31.5q-66 0 -102 -33t-36 -88z" />
    <glyph glyph-name="quotesingle" unicode="'" horiz-adv-x="158" 
d="M100 710l-19 -169q0 -5 -6 -5h-6q-5 0 -5 5l13 169q0 5 5 5h14q4 0 4 -5z" />
    <glyph glyph-name="parenleft" unicode="(" horiz-adv-x="244" 
d="M215 -117h-12q-5 0 -6 3q-139 225 -139 470q0 244 139 469q1 3 6 3h12q7 0 3 -6q-140 -219 -140 -466q0 -248 140 -467q4 -6 -3 -6z" />
    <glyph glyph-name="parenright" unicode=")" horiz-adv-x="244" 
d="M40 -117h-12q-7 0 -3 6q140 219 140 467q0 247 -140 466q-4 6 3 6h12q4 0 6 -3q139 -225 139 -469q0 -245 -139 -470q-2 -3 -6 -3z" />
    <glyph glyph-name="asterisk" unicode="*" horiz-adv-x="461" 
d="M128 384l-8 5q-5 3 -1 7l95 132l-154 50q-6 2 -4 7l3 9q2 6 7 4l155 -50v162q0 5 5 5h9q5 0 5 -5v-163l155 50q5 2 7 -3l3 -8q2 -5 -4 -7l-155 -50l96 -132q3 -3 -1 -7l-7 -6q-3 -3 -7 1l-96 132l-96 -132q-3 -3 -7 -1z" />
    <glyph glyph-name="plus" unicode="+" 
d="M280 343h195q5 0 5 -5v-10q0 -5 -5 -5h-195v-197q0 -5 -5 -5h-10q-5 0 -5 5v197h-195q-5 0 -5 5v10q0 5 5 5h195v196q0 5 5 5h10q5 0 5 -5v-196z" />
    <glyph glyph-name="comma" unicode="," horiz-adv-x="158" 
d="M102 58l-50 -159q-2 -4 -5 -4h-7q-6 0 -5 6l43 159q2 4 5 4h15q6 0 4 -6z" />
    <glyph glyph-name="hyphen" unicode="-" horiz-adv-x="392" 
d="M320 299h-248q-5 0 -5 5v9q0 5 5 5h248q5 0 5 -5v-9q0 -5 -5 -5z" />
    <glyph glyph-name="period" unicode="." horiz-adv-x="142" 
d="M91 18q0 -20 -20 -20t-20 20t20 20t20 -20z" />
    <glyph glyph-name="slash" unicode="/" horiz-adv-x="392" 
d="M361 709l-310 -705q-2 -4 -6 -4h-11q-5 0 -3 6l311 705q2 4 6 4h10q5 0 3 -6z" />
    <glyph glyph-name="zero" unicode="0" horiz-adv-x="606" 
d="M530 213q0 -102 -61 -162.5t-166 -60.5t-166 60.5t-61 162.5v285q0 105 60.5 166t166.5 61t166.5 -61t60.5 -166v-285zM96 213q0 -94 55 -149t152 -55t152 55t55 149v285q0 98 -54.5 153t-152.5 55t-152.5 -55t-54.5 -153v-285z" />
    <glyph glyph-name="one" unicode="1" horiz-adv-x="317" 
d="M212 0h-10q-5 0 -5 5v684l-156 -98q-1 -1 -3.5 -0.5t-3.5 1.5l-5 8q-2 5 2 7l166 105q4 3 9 3h6q5 0 5 -5v-705q0 -5 -5 -5z" />
    <glyph glyph-name="two" unicode="2" horiz-adv-x="541" 
d="M489 0h-440q-5 0 -5 5v6q0 5 2 7l153 162q74 78 107 115t73 89.5t55 90.5t15 77q0 62 -43.5 108t-127.5 46q-116 0 -205 -103q-3 -4 -7 0l-6 7q-2 4 0 7q93 108 218 108q92 0 141.5 -51.5t49.5 -121.5q0 -34 -13.5 -70.5t-28 -63t-57.5 -77.5t-66 -76t-89 -96l-141 -150
h415q5 0 5 -5v-9q0 -5 -5 -5z" />
    <glyph glyph-name="three" unicode="3" horiz-adv-x="558" 
d="M499 207q0 -98 -62 -157.5t-167 -59.5q-73 0 -124 27.5t-98 82.5q-3 4 0 7l7 6q5 3 8 -2q43 -50 90 -76t117 -26q97 0 153 54t56 144q0 91 -55.5 143t-159.5 52q-23 0 -57 -2q-3 0 -5 3l-1 2q-2 4 1 7l262 284h-385q-5 0 -5 5v9q0 5 5 5h410q5 0 5 -5v-5q0 -3 -2 -7
l-257 -278l21 1q120 1 181.5 -57.5t61.5 -156.5z" />
    <glyph glyph-name="four" unicode="4" horiz-adv-x="525" 
d="M403 0h-10q-5 0 -5 5v198h-353q-5 0 -5 5v4q0 3 2 7l289 493q1 3 6 3h12q6 0 3 -6l-286 -487h332v180q0 5 5 5h10q5 0 5 -5v-180h80q5 0 5 -5v-9q0 -5 -5 -5h-80v-198q0 -5 -5 -5z" />
    <glyph glyph-name="five" unicode="5" horiz-adv-x="565" 
d="M510 233q0 -109 -62 -175t-166 -66q-130 0 -214 108q-2 4 1 7l7 6q4 4 7 -1q40 -51 86.5 -76t112.5 -25q96 0 152 59.5t56 162.5q0 105 -54.5 156t-144.5 51q-111 0 -189 -80q-4 -4 -7 -2l-13 5q-4 2 -4 5l13 342q0 5 5 5h376q5 0 5 -5v-9q0 -5 -5 -5h-362l-12 -313
q82 76 194 76q98 0 158 -56.5t60 -169.5z" />
    <glyph glyph-name="six" unicode="6" horiz-adv-x="572" 
d="M96 318q23 60 80.5 92.5t119.5 32.5q102 0 160 -58.5t58 -167.5q0 -105 -59 -166t-159 -61t-160 60t-60 164v293q0 99 64 158.5t155 59.5q112 0 191 -77q3 -3 0 -7l-5 -6q-4 -4 -8 -1q-74 72 -178 72q-86 0 -142.5 -55t-56.5 -144v-189zM96 214q0 -96 54 -150.5
t146 -54.5t145 55.5t53 152.5q0 101 -52 154t-146 53q-77 0 -138.5 -50t-61.5 -142v-18z" />
    <glyph glyph-name="seven" unicode="7" horiz-adv-x="495" 
d="M131 0h-11q-7 0 -4 6l334 690h-419q-5 0 -5 5v9q0 5 5 5h438q5 0 5 -5v-5q0 -4 -1 -6l-336 -695q-2 -4 -6 -4z" />
    <glyph glyph-name="eight" unicode="8" horiz-adv-x="592" 
d="M529 196q0 -90 -62.5 -148t-170.5 -58t-170.5 58t-62.5 148q0 66 43 116t118 65q-70 16 -105 62t-35 108q0 79 56.5 128.5t155.5 49.5t155.5 -49.5t56.5 -128.5q0 -62 -34.5 -108t-104.5 -62q75 -15 117.5 -65t42.5 -116zM83 198q0 -82 55.5 -135.5t157.5 -53.5
t157.5 53.5t55.5 135.5q0 74 -58 121.5t-155 47.5t-155 -47.5t-58 -121.5zM104 548q0 -71 49 -116.5t143 -45.5t143 45.5t49 116.5q0 74 -52.5 116t-139.5 42t-139.5 -42t-52.5 -116z" />
    <glyph glyph-name="nine" unicode="9" horiz-adv-x="572" 
d="M58 498q0 105 59 166t159 61t160 -60t60 -163v-294q0 -99 -64 -158.5t-155 -59.5q-118 0 -195 109q-3 4 0 7l7 6q3 4 7 0q73 -103 181 -103q86 0 142.5 55t56.5 144v186q-23 -59 -81 -90.5t-119 -31.5q-103 0 -160.5 58t-57.5 168zM78 498q0 -101 52 -154t146 -53
q77 0 138.5 49.5t61.5 140.5v21q0 96 -54 150t-146 54t-145 -55.5t-53 -152.5z" />
    <glyph glyph-name="colon" unicode=":" horiz-adv-x="188" 
d="M114 480q0 -20 -20 -20t-20 20t20 20t20 -20zM114 18q0 -20 -20 -20t-20 20t20 20t20 -20z" />
    <glyph glyph-name="semicolon" unicode=";" horiz-adv-x="223" 
d="M77 -105h-7q-6 0 -5 6l43 159q2 4 5 4h15q6 0 4 -6l-50 -159q-2 -4 -5 -4zM142 480q0 -20 -20 -20t-20 20t20 20t20 -20z" />
    <glyph glyph-name="less" unicode="&#x3c;" 
d="M466 133v-11q0 -2 -2 -3.5t-4 -0.5l-410 196q-4 2 -4 6v18q0 4 4 6l410 196q6 4 6 -4v-11q0 -4 -4 -6l-396 -190l396 -190q4 -2 4 -6z" />
    <glyph glyph-name="equal" unicode="=" 
d="M475 411h-410q-5 0 -5 5v10q0 5 5 5h410q5 0 5 -5v-10q0 -5 -5 -5zM475 234h-410q-5 0 -5 5v10q0 5 5 5h410q5 0 5 -5v-10q0 -5 -5 -5z" />
    <glyph glyph-name="greater" unicode="&#x3e;" 
d="M490 314l-410 -196q-6 -4 -6 4v11q0 4 4 6l396 190l-396 190q-4 2 -4 6v11q0 2 2 3.5t4 0.5l410 -196q4 -2 4 -6v-18q0 -4 -4 -6z" />
    <glyph glyph-name="question" unicode="?" horiz-adv-x="443" 
d="M210 141h-10q-5 0 -5 5v69q0 45 19 80t45.5 59t53.5 48t46 59t19 80q0 69 -40 117t-122 48q-98 0 -171 -80q-4 -4 -7 1l-6 7q-2 4 1 7q75 84 183 84q88 0 135 -51.5t47 -132.5q0 -48 -19 -85t-46 -61.5t-53.5 -48t-45.5 -56.5t-19 -75v-69q0 -5 -5 -5zM225 18
q0 -20 -20 -20t-20 20t20 20t20 -20z" />
    <glyph glyph-name="at" unicode="@" horiz-adv-x="946" 
d="M679 -53q-101 -58 -252 -58q-173 0 -266.5 99t-93.5 277v89q0 194 97.5 282.5t302.5 88.5q235 0 400 -167q2 -4 2 -7v-315q0 -156 -116 -156q-42 0 -76.5 26.5t-46.5 74.5q-17 -49 -60.5 -76t-98.5 -27q-75 0 -128 51t-53 129v90q0 79 47.5 126t126.5 47q96 0 173 -27
q4 -1 4 -5v-257q0 -60 33.5 -96t78.5 -36q50 0 72.5 33t22.5 103v314q-77 73 -166.5 114t-214.5 41q-196 0 -287.5 -83t-91.5 -268v-89q0 -170 87.5 -263t253.5 -93q66 0 132.5 15.5t109.5 40.5q6 4 7 -2l3 -10q2 -4 -2 -6zM311 258q0 -71 47 -115.5t112 -44.5
q62 0 106 37.5t44 92.5v251q-66 22 -155 22q-71 0 -112.5 -41.5t-41.5 -111.5v-90z" />
    <glyph glyph-name="A" unicode="A" horiz-adv-x="582" 
d="M28 0h-12q-6 0 -4 6l266 705q2 4 5 4h16q3 0 5 -4l266 -705q2 -6 -4 -6h-12q-3 0 -5 4l-86 229h-344l-86 -229q-2 -4 -5 -4zM290 687l-163 -434h328l-163 434h-2z" />
    <glyph glyph-name="B" unicode="B" horiz-adv-x="618" 
d="M530 546q0 -63 -35 -104.5t-96 -56.5q77 -12 118.5 -61t41.5 -128q0 -94 -64 -145t-184 -51h-206q-5 0 -5 5v705q0 5 5 5h206q116 0 167.5 -47.5t51.5 -121.5zM121 20h190q113 0 170 46t57 130t-51 131.5t-155 47.5h-211v-355zM509 546q0 65 -45 107t-153 42h-190v-300
h211q84 0 130.5 40t46.5 111z" />
    <glyph glyph-name="C" unicode="C" horiz-adv-x="573" 
d="M536 74q-93 -84 -223 -84q-114 0 -176 65.5t-62 169.5v265q0 104 61.5 169.5t173.5 65.5q120 0 211 -75q5 -3 1 -7l-6 -8q-3 -3 -7 -1q-88 71 -200 71q-103 0 -158 -59.5t-55 -155.5v-265q0 -96 56 -155.5t160 -59.5q121 0 212 80q4 4 7 0l6 -9q4 -4 -1 -7z" />
    <glyph glyph-name="D" unicode="D" horiz-adv-x="657" 
d="M340 0h-235q-5 0 -5 5v705q0 5 5 5h235q111 0 176.5 -66.5t65.5 -180.5v-224q0 -114 -65.5 -179t-176.5 -65zM121 695v-675h219q103 0 162 59t59 165v224q0 107 -59 167t-162 60h-219z" />
    <glyph glyph-name="E" unicode="E" horiz-adv-x="559" 
d="M121 355v-335h386q5 0 5 -5v-10q0 -5 -5 -5h-402q-5 0 -5 5v705q0 5 5 5h387q5 0 5 -5v-10q0 -5 -5 -5h-371v-320h351q5 0 5 -5v-10q0 -5 -5 -5h-351z" />
    <glyph glyph-name="F" unicode="F" horiz-adv-x="542" 
d="M507 710v-10q0 -5 -5 -5h-381v-330h355q5 0 5 -5v-10q0 -5 -5 -5h-355v-340q0 -5 -5 -5h-11q-5 0 -5 5v705q0 5 5 5h397q5 0 5 -5z" />
    <glyph glyph-name="G" unicode="G" horiz-adv-x="633" 
d="M561 85q-99 -95 -241 -95q-117 0 -181 65.5t-64 170.5v264q0 105 63.5 170t179.5 65q132 0 228 -80q5 -3 1 -7l-6 -8q-3 -3 -7 -1q-92 76 -216 76q-108 0 -165 -59t-57 -156v-264q0 -97 57.5 -156.5t166.5 -59.5q128 0 223 86v248h-221q-5 0 -5 5v10q0 5 5 5h237
q5 0 5 -5v-267q0 -4 -3 -7z" />
    <glyph glyph-name="H" unicode="H" horiz-adv-x="672" 
d="M551 375v335q0 5 5 5h11q5 0 5 -5v-705q0 -5 -5 -5h-11q-5 0 -5 5v350h-430v-350q0 -5 -5 -5h-11q-5 0 -5 5v705q0 5 5 5h11q5 0 5 -5v-335h430z" />
    <glyph glyph-name="I" unicode="I" horiz-adv-x="221" 
d="M121 710v-705q0 -5 -5 -5h-11q-5 0 -5 5v705q0 5 5 5h11q5 0 5 -5z" />
    <glyph glyph-name="J" unicode="J" horiz-adv-x="487" 
d="M392 198q0 -106 -45.5 -157t-138.5 -51q-99 0 -186 82q-3 3 -1 7l7 8q3 4 7 0q82 -77 173 -77q84 0 123.5 45t39.5 143v512q0 5 5 5h11q5 0 5 -5v-512z" />
    <glyph glyph-name="K" unicode="K" horiz-adv-x="602" 
d="M116 0h-11q-5 0 -5 5v705q0 5 5 5h11q5 0 5 -5v-408l421 410q3 3 7 3h16q9 0 3 -6l-325 -317l344 -386q5 -6 -3 -6h-16q-4 0 -6 3l-334 375l-107 -104v-269q0 -5 -5 -5z" />
    <glyph glyph-name="L" unicode="L" horiz-adv-x="489" 
d="M472 0h-367q-5 0 -5 5v705q0 5 5 5h11q5 0 5 -5v-690h351q5 0 5 -5v-10q0 -5 -5 -5z" />
    <glyph glyph-name="M" unicode="M" horiz-adv-x="838" 
d="M116 0h-11q-5 0 -5 5v705q0 5 5 5h17q4 0 6 -3l221 -385l70 -123l69 120l222 388q2 3 6 3h17q5 0 5 -5v-705q0 -5 -5 -5h-11q-5 0 -5 5v678l-93 -162l-195 -341q-1 -3 -6 -3h-8q-5 0 -6 3l-195 341l-93 162v-678q0 -5 -5 -5z" />
    <glyph glyph-name="N" unicode="N" horiz-adv-x="699" 
d="M116 0h-11q-5 0 -5 5v705q0 5 5 5h14q5 0 6 -3l453 -678v676q0 5 5 5h11q5 0 5 -5v-705q0 -5 -5 -5h-14q-4 0 -6 3l-453 678v-676q0 -5 -5 -5z" />
    <glyph glyph-name="O" unicode="O" horiz-adv-x="666" 
d="M591 218q0 -98 -72 -163t-186 -65t-186 65t-72 163v270q0 105 71 171t187 66t187 -66t71 -171v-270zM96 218q0 -90 65.5 -149t171.5 -59t171.5 59t65.5 149v270q0 97 -65 157t-172 60t-172 -60t-65 -157v-270z" />
    <glyph glyph-name="P" unicode="P" horiz-adv-x="609" 
d="M105 715h218q117 0 180 -57t63 -158q0 -102 -63.5 -158t-179.5 -56h-202v-281q0 -5 -5 -5h-11q-5 0 -5 5v705q0 5 5 5zM121 306h200q110 0 167 50t57 144t-57.5 144.5t-166.5 50.5h-200v-389z" />
    <glyph glyph-name="Q" unicode="Q" horiz-adv-x="667" 
d="M591 -25l-7 -7q-3 -3 -7 1l-73 76q-71 -53 -171 -53q-114 0 -186 65.5t-72 162.5v268q0 104 71.5 170.5t186.5 66.5t186.5 -66.5t71.5 -170.5v-268q0 -98 -72 -162l72 -76q3 -4 0 -7zM96 220q0 -89 66 -148.5t171 -59.5q93 0 157 48l-123 129q-3 4 0 7l7 7q4 3 7 0
l124 -131q65 60 65 148v268q0 96 -65 156.5t-172 60.5t-172 -60.5t-65 -156.5v-268z" />
    <glyph glyph-name="R" unicode="R" horiz-adv-x="616" 
d="M564 0h-15q-5 0 -6 3l-239 307h-183v-305q0 -5 -5 -5h-11q-5 0 -5 5v705q0 5 5 5h218q109 0 172 -54t63 -149q0 -93 -60.5 -146.5t-167.5 -55.5l237 -304q4 -6 -3 -6zM323 695h-202v-365h202q101 0 157.5 47.5t56.5 134.5t-57 135t-157 48z" />
    <glyph glyph-name="S" unicode="S" horiz-adv-x="589" 
d="M541 176q0 -88 -64.5 -137t-176.5 -49q-74 0 -130 22t-114 72q-5 3 -1 7l7 8q3 3 7 1q56 -47 110 -68.5t121 -21.5q102 0 161 42.5t59 123.5q0 71 -49 110t-177 69q-121 28 -178.5 76t-57.5 124q0 83 65.5 126.5t164.5 43.5q133 0 233 -80q3 -2 1 -7l-5 -8q-4 -5 -7 -2
q-93 77 -225 77q-88 0 -147 -38.5t-59 -112.5q0 -69 52.5 -110.5t166.5 -68.5q137 -33 190 -78t53 -121z" />
    <glyph glyph-name="T" unicode="T" horiz-adv-x="527" 
d="M17 715h493q5 0 5 -5v-10q0 -5 -5 -5h-238v-690q0 -5 -5 -5h-11q-5 0 -5 5v690h-234q-5 0 -5 5v10q0 5 5 5z" />
    <glyph glyph-name="U" unicode="U" horiz-adv-x="670" 
d="M576 240q0 -112 -63.5 -180t-177.5 -68t-177.5 68t-63.5 180v470q0 5 5 5h11q5 0 5 -5v-470q0 -104 57.5 -166t162.5 -62t162.5 62t57.5 166v470q0 5 5 5h11q5 0 5 -5v-470z" />
    <glyph glyph-name="V" unicode="V" horiz-adv-x="596" 
d="M307 0h-18q-4 0 -6 4l-272 705q-1 6 4 6h11q4 0 6 -4l166 -428l99 -258h2q16 42 49 127.5t49 127.5l167 431q2 4 6 4h11q5 0 4 -6l-272 -705q-2 -4 -6 -4z" />
    <glyph glyph-name="W" unicode="W" horiz-adv-x="928" 
d="M244 0h-16q-3 0 -5 4l-207 705q-2 6 4 6h12q3 0 5 -4l199 -683l217 669q2 4 5 4h12q3 0 5 -4l217 -669l199 683q2 4 5 4h12q6 0 4 -6l-207 -705q-2 -4 -5 -4h-16q-3 0 -5 4l-215 662l-215 -662q-2 -4 -5 -4z" />
    <glyph glyph-name="X" unicode="X" horiz-adv-x="569" 
d="M299 361l245 -355q4 -6 -3 -6h-14q-5 0 -6 3l-236 342l-237 -342q-2 -3 -6 -3h-14q-7 0 -3 6l246 355l-235 348q-4 6 3 6h14q5 0 6 -3l226 -335l225 335q2 3 6 3h14q7 0 3 -6z" />
    <glyph glyph-name="Y" unicode="Y" horiz-adv-x="529" 
d="M270 0h-11q-5 0 -5 5v281l-242 423q-3 6 4 6h12q4 0 6 -3l231 -404l231 404q2 3 6 3h12q7 0 4 -6l-243 -423v-281q0 -5 -5 -5z" />
    <glyph glyph-name="Z" unicode="Z" horiz-adv-x="546" 
d="M507 0h-470q-5 0 -5 5v5q0 2 2 6l444 679h-427q-5 0 -5 5v10q0 5 5 5h450q5 0 5 -5v-7q0 -2 -2 -6l-443 -677h446q5 0 5 -5v-10q0 -5 -5 -5z" />
    <glyph glyph-name="bracketleft" unicode="[" horiz-adv-x="238" 
d="M113 809v-907h91q5 0 5 -5v-9q0 -5 -5 -5h-106q-5 0 -5 5v935q0 5 5 5h106q5 0 5 -5v-9q0 -5 -5 -5h-91z" />
    <glyph glyph-name="backslash" unicode="\" horiz-adv-x="392" 
d="M341 4l-310 705q-2 6 3 6h10q4 0 6 -4l311 -705q2 -6 -3 -6h-11q-4 0 -6 4z" />
    <glyph glyph-name="bracketright" unicode="]" horiz-adv-x="238" 
d="M125 -98v907h-91q-5 0 -5 5v9q0 5 5 5h106q5 0 5 -5v-935q0 -5 -5 -5h-106q-5 0 -5 5v9q0 5 5 5h91z" />
    <glyph glyph-name="asciicircum" unicode="^" 
d="M77 581h-16q-8 0 -3 6l200 232q2 3 6 3h12q4 0 6 -3l200 -232q4 -6 -3 -6h-16q-5 0 -6 3l-187 219l-187 -219q-1 -3 -6 -3z" />
    <glyph glyph-name="underscore" unicode="_" horiz-adv-x="542" 
d="M522 -15v-9q0 -5 -5 -5h-492q-5 0 -5 5v9q0 5 5 5h492q5 0 5 -5z" />
    <glyph glyph-name="grave" unicode="`" horiz-adv-x="107" 
d="M81 600h-8q-5 0 -6 3l-89 134q-3 6 3 6h15q4 0 6 -3l83 -134q5 -6 -4 -6z" />
    <glyph glyph-name="a" unicode="a" horiz-adv-x="497" 
d="M67 472q71 51 176 51q92 0 137 -48.5t45 -133.5v-309q0 -5 -4 -6q-82 -36 -178 -36q-90 0 -146.5 43.5t-56.5 115.5q0 74 53 115t150 41q74 0 162 -21v57q0 163 -162 163q-93 0 -165 -46q-4 -2 -7 1l-4 7q-2 5 0 6zM60 149q0 -63 51 -101.5t132 -38.5q84 0 162 30v227
q-82 20 -162 20q-88 0 -135.5 -35.5t-47.5 -101.5z" />
    <glyph glyph-name="b" unicode="b" horiz-adv-x="529" 
d="M98 474q72 49 163 49q209 0 209 -215v-105q0 -213 -209 -213q-95 0 -179 35q-4 1 -4 6v679q0 5 5 5h10q5 0 5 -5v-236zM261 9q189 0 189 194v105q0 196 -189 196q-86 0 -163 -51v-415q82 -29 163 -29z" />
    <glyph glyph-name="c" unicode="c" horiz-adv-x="462" 
d="M429 53q-78 -63 -174 -63q-89 0 -142 52.5t-53 130.5v167q0 78 53 130.5t142 52.5q87 0 160 -54q5 -3 1 -7l-5 -7q-3 -3 -7 -1q-69 50 -150 50q-82 0 -128 -47t-46 -117v-167q0 -70 47 -117t127 -47q87 0 164 59q4 2 7 -1l5 -7q4 -4 -1 -7z" />
    <glyph glyph-name="d" unicode="d" horiz-adv-x="529" 
d="M431 474v236q0 5 5 5h10q5 0 5 -5v-679q0 -5 -4 -6q-84 -35 -179 -35q-209 0 -209 213v105q0 215 209 215q91 0 163 -49zM79 203q0 -194 189 -194q81 0 163 29v415q-77 51 -163 51q-189 0 -189 -196v-105z" />
    <glyph glyph-name="e" unicode="e" horiz-adv-x="505" 
d="M452 335v-88q0 -5 -5 -5h-367v-71q0 -74 51 -118t125 -44q95 0 174 73q4 3 7 -1l6 -6q4 -4 0 -7q-84 -78 -187 -78q-82 0 -139 50t-57 131v164q0 87 53 137.5t143 50.5q89 0 142.5 -50.5t53.5 -137.5zM432 335q0 79 -48 124t-128 45q-82 0 -129 -44.5t-47 -124.5v-74h352
v74z" />
    <glyph glyph-name="f" unicode="f" horiz-adv-x="302" 
d="M287 703q-30 3 -59 3q-63 0 -96 -36.5t-33 -103.5v-53h183q5 0 5 -5v-9q0 -5 -5 -5h-183v-489q0 -5 -5 -5h-10q-5 0 -5 5v561q0 74 39 116.5t110 42.5q31 0 61 -3q5 -2 5 -6v-9q0 -6 -7 -4z" />
    <glyph glyph-name="g" unicode="g" horiz-adv-x="527" 
d="M449 -22q0 -80 -48.5 -129t-143.5 -49q-103 0 -187 82q-3 3 0 7l5 7q3 4 7 0q80 -77 175 -77q87 0 129.5 43t42.5 116v81q-76 -39 -160 -39q-101 0 -155.5 50t-54.5 147v111q0 98 55 146.5t153 48.5t178 -35q4 -1 4 -6v-504zM79 217q0 -178 190 -178q82 0 160 40v396
q-78 29 -164 29q-90 0 -138 -44.5t-48 -131.5v-111z" />
    <glyph glyph-name="h" unicode="h" horiz-adv-x="546" 
d="M99 482q82 41 164 41q100 0 154.5 -50.5t54.5 -148.5v-319q0 -5 -5 -5h-10q-5 0 -5 5v319q0 180 -189 180q-83 0 -164 -42v-457q0 -5 -5 -5h-10q-5 0 -5 5v705q0 5 5 5h10q5 0 5 -5v-228z" />
    <glyph glyph-name="i" unicode="i" horiz-adv-x="178" 
d="M94 0h-10q-5 0 -5 5v503q0 5 5 5h10q5 0 5 -5v-503q0 -5 -5 -5zM109 650q0 -20 -20 -20t-20 20t20 20t20 -20z" />
    <glyph glyph-name="j" unicode="j" horiz-adv-x="186" 
d="M107 -39q0 -161 -120 -161q-31 0 -52 5q-5 2 -5 6v8q0 3 1 4.5t4 0.5q22 -5 52 -5q100 0 100 142v547q0 5 5 5h10q5 0 5 -5v-547zM117 650q0 -20 -20 -20t-20 20t20 20t20 -20z" />
    <glyph glyph-name="k" unicode="k" horiz-adv-x="471" 
d="M453 0h-14q-5 0 -6 3l-248 276l-86 -74v-200q0 -5 -5 -5h-10q-5 0 -5 5v705q0 5 5 5h10q5 0 5 -5v-480l322 281q2 2 7 2h16q8 0 2 -6l-246 -215l256 -286q4 -6 -3 -6z" />
    <glyph glyph-name="l" unicode="l" horiz-adv-x="266" 
d="M255 -5q-28 -5 -59 -5q-121 0 -121 161v559q0 5 5 5h10q5 0 5 -5v-563q0 -138 101 -138q24 0 59 5q5 0 5 -4v-9q0 -4 -5 -6z" />
    <glyph glyph-name="m" unicode="m" horiz-adv-x="799" 
d="M373 473q74 50 161 50q89 0 140 -48.5t51 -136.5v-333q0 -5 -5 -5h-10q-5 0 -5 5v333q0 80 -45 123t-126 43q-83 0 -150 -46q30 -46 30 -120v-333q0 -5 -5 -5h-10q-5 0 -5 5v333q0 166 -155 166q-68 0 -141 -31v-468q0 -5 -5 -5h-10q-5 0 -5 5v475q0 5 4 6q79 37 157 37
q87 0 134 -50z" />
    <glyph glyph-name="n" unicode="n" horiz-adv-x="545" 
d="M93 0h-10q-5 0 -5 5v474q0 5 4 6q84 38 180 38q100 0 154.5 -51t54.5 -148v-319q0 -5 -5 -5h-10q-5 0 -5 5v319q0 89 -49 134.5t-140 45.5q-85 0 -164 -32v-467q0 -5 -5 -5z" />
    <glyph glyph-name="o" unicode="o" horiz-adv-x="530" 
d="M470 176q0 -81 -53.5 -133.5t-151.5 -52.5t-151.5 52.5t-53.5 133.5v162q0 80 54 132.5t151 52.5q98 0 151.5 -52.5t53.5 -132.5v-162zM80 176q0 -73 48 -120t137 -47q90 0 137.5 47t47.5 120v162q0 72 -47.5 119t-137.5 47q-89 0 -137 -47t-48 -119v-162z" />
    <glyph glyph-name="p" unicode="p" horiz-adv-x="529" 
d="M81 487q85 36 180 36q209 0 209 -213v-105q0 -215 -209 -215q-91 0 -163 49v-224q0 -5 -5 -5h-10q-5 0 -5 5v667q0 4 3 5zM261 9q189 0 189 196v105q0 194 -189 194q-83 0 -163 -30v-413q76 -52 163 -52z" />
    <glyph glyph-name="q" unicode="q" horiz-adv-x="529" 
d="M59 310q0 213 209 213q95 0 179 -35q4 -1 4 -6v-667q0 -5 -5 -5h-10q-5 0 -5 5v224q-74 -49 -163 -49q-209 0 -209 215v105zM79 205q0 -196 189 -196q86 0 163 51v415q-82 29 -163 29q-189 0 -189 -194v-105z" />
    <glyph glyph-name="r" unicode="r" horiz-adv-x="372" 
d="M93 0h-10q-5 0 -5 5v478q0 5 4 6q74 34 167 34q45 0 101 -9q5 -1 5 -6v-9q0 -6 -5 -4q-58 9 -101 9q-79 0 -151 -28v-471q0 -5 -5 -5z" />
    <glyph glyph-name="s" unicode="s" horiz-adv-x="459" 
d="M418 131q0 -63 -48.5 -102t-137.5 -39q-105 0 -188 64q-5 3 -1 7l5 8q3 3 7 1q81 -61 177 -61q76 0 121 32t45 90q0 25 -11 45t-24 31.5t-39.5 21t-43 14t-48.5 10.5q-37 7 -65 16.5t-57 25.5t-44.5 42t-15.5 60q0 57 47.5 91.5t123.5 34.5q91 0 177 -49q4 -4 1 -7l-4 -8
q-2 -4 -7 -1q-80 46 -167 46q-66 0 -108.5 -28.5t-42.5 -78.5q0 -24 10 -43.5t25 -31.5t38.5 -22.5t44 -16t48.5 -11.5q34 -7 55 -13t48 -17t42 -24.5t26 -36t11 -50.5z" />
    <glyph glyph-name="t" unicode="t" horiz-adv-x="298" 
d="M95 151q0 -67 33 -103.5t96 -36.5q32 0 62 3q5 2 5 -4v-9q0 -4 -5 -6q-30 -3 -62 -3q-71 0 -110 42.5t-39 116.5v487q0 5 5 5h10q5 0 5 -5v-125h178q5 0 5 -5v-9q0 -5 -5 -5h-178v-343z" />
    <glyph glyph-name="u" unicode="u" horiz-adv-x="537" 
d="M444 513h10q5 0 5 -5v-474q0 -5 -4 -6q-82 -38 -176 -38q-98 0 -151.5 51t-53.5 148v319q0 5 5 5h10q5 0 5 -5v-319q0 -88 48 -134t137 -46q76 0 160 32v467q0 5 5 5z" />
    <glyph glyph-name="v" unicode="v" horiz-adv-x="470" 
d="M242 0h-14q-4 0 -6 4l-199 503q-2 6 4 6h11q4 0 6 -4l191 -483l191 483q2 4 6 4h11q6 0 4 -6l-199 -503q-2 -4 -6 -4z" />
    <glyph glyph-name="w" unicode="w" horiz-adv-x="738" 
d="M191 0q-3 0 -5 4l-162 503q-2 6 4 6h11q3 0 5 -4l155 -481l158 469q2 4 5 4h14q3 0 5 -4l158 -469l155 481q2 4 5 4h11q6 0 4 -6l-162 -503q-2 -4 -5 -4h-15q-3 0 -5 4l-158 469l-158 -469q-2 -4 -5 -4h-15z" />
    <glyph glyph-name="x" unicode="x" horiz-adv-x="464" 
d="M244 263l197 -257q4 -6 -3 -6h-13q-5 0 -6 3l-188 245l-188 -245q-1 -3 -6 -3h-13q-7 0 -3 6l197 257l-185 244q-4 6 3 6h13q5 0 6 -3l176 -232l176 232q1 3 6 3h13q7 0 3 -6z" />
    <glyph glyph-name="y" unicode="y" horiz-adv-x="538" 
d="M439 78v430q0 5 5 5h10q5 0 5 -5v-530q0 -80 -47.5 -129t-141.5 -49q-98 0 -185 80q-3 4 0 7l6 7q3 4 7 0q82 -75 172 -75q86 0 127.5 43t41.5 116v80q-70 -38 -159 -38q-97 0 -151.5 48.5t-54.5 142.5v297q0 5 5 5h10q5 0 5 -5v-297q0 -86 49 -129t138 -43q85 0 158 39z
" />
    <glyph glyph-name="z" unicode="z" horiz-adv-x="442" 
d="M408 0h-374q-5 0 -5 5v7q0 2 2 6l345 476h-327q-5 0 -5 5v9q0 5 5 5h350q5 0 5 -5v-6q0 -2 -2 -6l-346 -477h352q5 0 5 -5v-9q0 -5 -5 -5z" />
    <glyph glyph-name="braceleft" unicode="{" horiz-adv-x="234" 
d="M197 -117h-1q-49 1 -70.5 26.5t-21.5 80.5v249q0 55 -12.5 76.5t-45.5 28.5q-4 1 -4 6v12q0 5 4 6q33 7 45.5 28.5t12.5 76.5v249q0 106 90 107h3q4 0 4 -5v-9q0 -5 -4 -5h-3q-38 -1 -54 -22t-16 -66v-249q0 -107 -65 -117q65 -10 65 -117v-249q0 -47 16.5 -67t55.5 -21
h1q4 0 4 -5v-9q0 -5 -4 -5z" />
    <glyph glyph-name="bar" unicode="|" horiz-adv-x="206" 
d="M108 -139h-10q-5 0 -5 5v990q0 5 5 5h10q5 0 5 -5v-990q0 -5 -5 -5z" />
    <glyph glyph-name="braceright" unicode="}" horiz-adv-x="234" 
d="M38 -117h-1q-4 0 -4 5v9q0 5 4 5h1q39 1 55.5 21t16.5 67v249q0 107 65 117q-65 10 -65 117v249q0 45 -16 66t-54 22h-3q-4 0 -4 5v9q0 5 4 5h3q90 -1 90 -107v-249q0 -55 12.5 -76.5t45.5 -28.5q4 -1 4 -6v-12q0 -5 -4 -6q-33 -7 -45.5 -28.5t-12.5 -76.5v-249
q0 -55 -21.5 -80.5t-70.5 -26.5z" />
    <glyph glyph-name="asciitilde" unicode="~" 
d="M462 352q-46 -35 -94 -35q-26 0 -100 23q-66 21 -98 21q-42 0 -75 -30q-5 -3 -8 0l-7 7q-4 4 0 7q43 35 90 35q37 0 106 -23q65 -21 93 -21q43 0 78 30q4 3 7 0l8 -7q4 -4 0 -7z" />
    <glyph glyph-name="exclamdown" unicode="&#xa1;" horiz-adv-x="194" 
d="M92 381h10q5 0 5 -5v-564q0 -5 -5 -5h-10q-5 0 -5 5v564q0 5 5 5zM77 504q0 20 20 20t20 -20t-20 -20t-20 20z" />
    <glyph glyph-name="cent" unicode="&#xa2;" horiz-adv-x="501" 
d="M435 68l5 -8q4 -4 -1 -7q-74 -60 -163 -63v-61q0 -5 -5 -5h-9q-5 0 -5 5v61q-86 3 -136.5 55t-50.5 128v167q0 76 50.5 128t136.5 55v70q0 5 5 5h9q5 0 5 -5v-70q80 -3 149 -54q5 -3 1 -7l-5 -8q-3 -3 -7 -1q-68 51 -150 51t-128 -47t-46 -117v-167q0 -70 47 -117
t127 -47q88 0 164 60q4 2 7 -1z" />
    <glyph glyph-name="sterling" unicode="&#xa3;" horiz-adv-x="541" 
d="M481 0h-425q-5 0 -5 5v9q0 5 5 5q69 3 69 108v249h-69q-5 0 -5 5v9q0 5 5 5h69v157q0 74 47 123.5t132 49.5q96 0 170 -61q3 -2 1 -7l-5 -7q-3 -3 -7 -1q-81 57 -160 57q-76 0 -117 -44t-41 -110v-157h239q5 0 5 -5v-9q0 -5 -5 -5h-239v-250q0 -84 -41 -107h377q5 0 5 -5
v-9q0 -5 -5 -5z" />
    <glyph glyph-name="currency" unicode="&#xa4;" horiz-adv-x="638" 
d="M485 164q-66 -60 -166 -60t-166 60l-49 -49q-4 -4 -8 0l-6 6q-4 4 0 8l49 49q-60 65 -60 167q0 99 60 165l-49 49q-4 4 0 8l6 6q4 4 8 0l49 -49q67 61 166 61q100 0 166 -61l49 49q4 4 8 0l6 -6q4 -4 0 -8l-49 -49q60 -66 60 -165q0 -101 -60 -167l49 -49q4 -4 0 -8
l-6 -6q-4 -4 -8 0zM99 345q0 -100 61.5 -161t158.5 -61t159 62t61 160q-1 96 -63 158.5t-157 62.5q-97 0 -158.5 -62t-61.5 -159z" />
    <glyph glyph-name="yen" unicode="&#xa5;" horiz-adv-x="539" 
d="M496 715h12q7 0 4 -6l-225 -411h128q5 0 5 -5v-9q0 -5 -5 -5h-136v-89h136q5 0 5 -5v-9q0 -5 -5 -5h-136v-166q0 -5 -5 -5h-10q-5 0 -5 5v166h-134q-5 0 -5 5v9q0 5 5 5h134v89h-134q-5 0 -5 5v9q0 5 5 5h127l-225 411q-3 6 4 6h12q4 0 6 -4l220 -404l221 404q2 4 6 4z
" />
    <glyph glyph-name="brokenbar" unicode="&#xa6;" horiz-adv-x="210" 
d="M110 446h-10q-5 0 -5 5v405q0 5 5 5h10q5 0 5 -5v-405q0 -5 -5 -5zM110 -139h-10q-5 0 -5 5v405q0 5 5 5h10q5 0 5 -5v-405q0 -5 -5 -5z" />
    <glyph glyph-name="section" unicode="&#xa7;" horiz-adv-x="502" 
d="M423 -30q0 -66 -48.5 -109t-129.5 -43q-102 0 -177 82q-3 3 1 7l6 6q3 3 7 -1q25 -24 42 -37t50 -25.5t71 -12.5q71 0 114.5 36t43.5 99q0 54 -35.5 88.5t-86.5 53l-102 37t-86.5 54.5t-35.5 92q0 63 42 101t115 43q-122 54 -122 149q0 60 45 97.5t118 37.5q75 0 156 -49
q5 -3 2 -7l-5 -8q-3 -4 -7 -1q-29 16 -46.5 24t-44.5 15t-55 7q-66 0 -104.5 -32t-38.5 -84q0 -47 35 -81.5t85 -57.5t100 -46.5t85 -61.5t35 -90q0 -54 -34.5 -95t-89.5 -47q42 -18 68.5 -55.5t26.5 -85.5zM77 297q0 -23 5.5 -41t22.5 -34t30.5 -26.5t46.5 -24.5t53 -21
t68 -24q59 4 94 38t35 90q0 25 -10 46t-21.5 35t-41.5 31.5t-49 27t-65 30.5q-70 4 -119 -29.5t-49 -97.5z" />
    <glyph glyph-name="dieresis" unicode="&#xa8;" horiz-adv-x="226" 
d="M49 650q0 -20 -20 -20t-20 20t20 20t20 -20zM217 650q0 -20 -20 -20t-20 20t20 20t20 -20z" />
    <glyph glyph-name="copyright" unicode="&#xa9;" horiz-adv-x="852" 
d="M790 352q0 -167 -103.5 -264.5t-259.5 -97.5t-260.5 97.5t-104.5 264.5q0 172 104.5 272.5t260.5 100.5q155 0 259 -100.5t104 -272.5zM82 352q0 -162 98.5 -252.5t246.5 -90.5q147 0 245 90.5t98 252.5q0 168 -97.5 261t-245.5 93q-147 0 -246 -93.5t-99 -260.5z
M549 203q-52 -54 -127 -53q-61 1 -98.5 38.5t-37.5 88.5v147q0 51 37 88.5t97 38.5q72 1 119 -50q3 -3 1 -7l-7 -6q-3 -4 -7 -1q-41 45 -106 44q-51 -1 -82.5 -32.5t-31.5 -74.5v-147q0 -42 32 -74.5t84 -32.5q68 0 114 48q4 3 7 -1l6 -8q1 -5 0 -6z" />
    <glyph glyph-name="guillemotleft" unicode="&#xab;" horiz-adv-x="467" 
d="M205 71h-12q-5 0 -6 3l-145 214q-2 3 0 6l145 214q1 3 6 3h12q7 0 3 -6l-145 -214l145 -214q4 -6 -3 -6zM411 71h-12q-5 0 -6 3l-145 214q-2 3 0 6l145 214q1 3 6 3h12q7 0 3 -6l-145 -214l145 -214q4 -6 -3 -6z" />
    <glyph glyph-name="logicalnot" unicode="&#xac;" 
d="M480 222h-10q-5 0 -5 5v158h-395q-5 0 -5 5v10q0 5 5 5h410q5 0 5 -5v-173q0 -5 -5 -5z" />
    <glyph glyph-name="registered" unicode="&#xae;" horiz-adv-x="536" 
d="M476 517q0 -96 -59.5 -152t-148.5 -56t-148.5 56t-59.5 152q0 95 59.5 151.5t148.5 56.5t148.5 -56.5t59.5 -151.5zM77 517q0 -91 54 -141.5t138 -50.5q82 0 136 51t54 141q0 91 -54 141.5t-136 50.5q-84 0 -138 -50.5t-54 -141.5zM214 421h-7q-5 0 -5 5v192q0 5 5 5h70
q33 0 51.5 -16.5t18.5 -45.5q0 -54 -65 -57l64 -77q4 -6 -3 -6h-10q-5 0 -6 3l-67 80h-41v-78q0 -5 -5 -5zM219 606v-86h58q53 0 53 41q0 45 -53 45h-58z" />
    <glyph glyph-name="macron" unicode="&#xaf;" horiz-adv-x="240" 
d="M0 659v8q0 5 5 5h230q5 0 5 -5v-8q0 -5 -5 -5h-230q-5 0 -5 5z" />
    <glyph glyph-name="degree" unicode="&#xb0;" horiz-adv-x="319" 
d="M266 619q0 -48 -30 -77t-76 -29q-47 0 -77 28.5t-30 77.5t29.5 77.5t77.5 28.5q46 0 76 -28.5t30 -77.5zM72 619q0 -43 24.5 -65.5t63.5 -22.5t63 22.5t24 65.5q0 42 -24 65t-63 23q-38 0 -63 -23t-25 -65z" />
    <glyph glyph-name="plusminus" unicode="&#xb1;" 
d="M275 165h-10q-5 0 -5 5v198h-195q-5 0 -5 5v10q0 5 5 5h195v196q0 5 5 5h10q5 0 5 -5v-196h195q5 0 5 -5v-10q0 -5 -5 -5h-195v-198q0 -5 -5 -5zM475 71h-410q-5 0 -5 5v10q0 5 5 5h410q5 0 5 -5v-10q0 -5 -5 -5z" />
    <glyph glyph-name="two.sups" unicode="&#xb2;" horiz-adv-x="305" 
d="M266 410h-229q-5 0 -5 5v3q0 5 2 7l79 85q52 55 74.5 81.5t40.5 59.5t18 62q0 34 -25.5 54.5t-69.5 20.5q-55 0 -102 -53q-3 -3 -7 0l-3 3q-3 4 0 8q47 57 113 57q53 0 81 -26.5t28 -62.5q0 -45 -31.5 -90.5t-103.5 -121.5l-72 -77h212q5 0 5 -5v-5q0 -5 -5 -5z" />
    <glyph glyph-name="three.sups" unicode="&#xb3;" horiz-adv-x="311" 
d="M273 528q0 -50 -33.5 -86.5t-83.5 -36.5q-73 0 -123 63q-3 4 0 7l4 3q4 3 7 -1q48 -57 111 -57q45 0 74 32t29 77q0 41 -26.5 68.5t-76.5 27.5q-19 0 -39 -2q-4 0 -5 2l-2 4q-2 3 2 7l132 147h-191q-5 0 -5 5v5q0 5 5 5h212q4 0 4 -4v-3q0 -2 -3 -5l-133 -148q10 1 27 1
q51 0 82.5 -31t31.5 -80z" />
    <glyph glyph-name="acute" unicode="&#xb4;" horiz-adv-x="126" 
d="M13 600h-8q-8 0 -4 6l83 134q2 3 6 3h15q6 0 3 -6l-89 -134q-1 -3 -6 -3z" />
    <glyph glyph-name="paragraph" unicode="&#xb6;" horiz-adv-x="593" 
d="M228 -139h-10q-5 0 -5 5v498q-82 0 -130.5 49.5t-48.5 125.5q0 78 52 127t141 49h261q5 0 5 -5v-844q0 -5 -5 -5h-10q-5 0 -5 5v829h-240v-829q0 -5 -5 -5z" />
    <glyph glyph-name="periodcentered" unicode="&#xb7;" horiz-adv-x="186" 
d="M113 307q0 -20 -20 -20t-20 20t20 20t20 -20z" />
    <glyph glyph-name="cedilla" unicode="&#xb8;" horiz-adv-x="163" 
d="M157 -128q0 -33 -25 -53.5t-69 -20.5q-31 0 -59 9q-4 1 -4 6v8q0 5 6 4q30 -9 57 -9q36 0 55 15t19 41q0 27 -20 39t-67 13q-4 0 -6 3q-3 3 -1 6l24 66q2 4 5 4h10q6 0 4 -6l-21 -58q92 0 92 -67z" />
    <glyph glyph-name="one.sups" unicode="&#xb9;" horiz-adv-x="193" 
d="M127 410h-5q-5 0 -5 5v369l-83 -58q-3 -3 -7 1l-3 4q-2 3 2 7l85 59q1 1 5 1h11q5 0 5 -5v-378q0 -5 -5 -5z" />
    <glyph glyph-name="guillemotright" unicode="&#xbb;" horiz-adv-x="466" 
d="M66 71h-12q-7 0 -3 6l145 214l-145 214q-4 6 3 6h12q4 0 6 -3l145 -214q1 -3 0 -6l-145 -214q-2 -3 -6 -3zM272 71h-12q-7 0 -3 6l145 214l-145 214q-4 6 3 6h12q4 0 6 -3l145 -214q1 -3 0 -6l-145 -214q-2 -3 -6 -3z" />
    <glyph glyph-name="onequarter" unicode="&#xbc;" horiz-adv-x="786" 
d="M147 326h-5q-5 0 -5 5v369l-83 -58q-3 -3 -7 1l-3 4q-2 3 2 7l85 59q1 1 5 1h11q5 0 5 -5v-378q0 -5 -5 -5zM659 709l-587 -706q-2 -3 -6 -3h-7q-7 0 -3 6l587 706q1 3 6 3h7q7 0 3 -6zM704 0h-5q-5 0 -5 5v98h-190q-5 0 -5 5v2q0 2 2 6l153 269q2 3 6 3h5q7 0 4 -6
l-150 -264h175v98q0 5 5 5h5q5 0 5 -5v-98h36q5 0 5 -5v-5q0 -5 -5 -5h-36v-98q0 -5 -5 -5z" />
    <glyph glyph-name="onehalf" unicode="&#xbd;" horiz-adv-x="838" 
d="M141 326h-5q-5 0 -5 5v369l-83 -58q-3 -3 -7 1l-3 4q-2 3 2 7l85 59q1 1 5 1h11q5 0 5 -5v-378q0 -5 -5 -5zM673 709l-587 -706q-2 -3 -6 -3h-7q-7 0 -3 6l587 706q1 3 6 3h7q7 0 3 -6zM788 0h-229q-5 0 -5 5v3q0 5 2 7l79 85q52 55 74.5 81.5t40.5 59.5t18 62
q0 34 -25.5 54.5t-69.5 20.5q-55 0 -102 -53q-3 -3 -7 0l-3 3q-3 4 0 8q47 57 113 57q53 0 81 -26.5t28 -62.5q0 -45 -31.5 -90.5t-103.5 -121.5l-72 -77h212q5 0 5 -5v-5q0 -5 -5 -5z" />
    <glyph glyph-name="threequarters" unicode="&#xbe;" horiz-adv-x="865" 
d="M288 445q0 -50 -33.5 -86.5t-83.5 -36.5q-73 0 -123 63q-3 4 0 7l4 3q4 3 7 -1q48 -57 111 -57q45 0 74 32t29 77q0 41 -26.5 68.5t-76.5 27.5q-19 0 -39 -2q-4 0 -5 2l-2 4q-2 3 2 7l132 147h-191q-5 0 -5 5v5q0 5 5 5h212q4 0 4 -4v-3q0 -2 -3 -5l-133 -148q10 1 27 1
q51 0 82.5 -31t31.5 -80zM738 709l-587 -706q-1 -3 -6 -3h-7q-7 0 -3 6l587 706q2 3 6 3h7q7 0 3 -6zM783 0h-5q-5 0 -5 5v98h-190q-5 0 -5 5v2q0 2 2 6l153 269q1 3 6 3h5q7 0 4 -6l-150 -264h175v98q0 5 5 5h5q5 0 5 -5v-98h36q5 0 5 -5v-5q0 -5 -5 -5h-36v-98q0 -5 -5 -5
z" />
    <glyph glyph-name="questiondown" unicode="&#xbf;" horiz-adv-x="437" 
d="M230 381h10q5 0 5 -5v-69q0 -45 -19 -80t-45.5 -59t-53.5 -48t-46 -59t-19 -80q0 -69 40 -117t122 -48q98 0 171 80q4 4 7 -1l6 -7q2 -4 -1 -7q-75 -84 -183 -84q-88 0 -135 51.5t-47 132.5q0 48 19 85t46 61.5t53.5 48t45.5 56.5t19 75v69q0 5 5 5zM215 504q0 20 20 20
t20 -20t-20 -20t-20 20z" />
    <glyph glyph-name="Agrave" unicode="&#xc0;" horiz-adv-x="582" 
d="M28 0h-12q-6 0 -4 6l266 705q2 4 5 4h16q3 0 5 -4l266 -705q2 -6 -4 -6h-12q-3 0 -5 4l-86 229h-344l-86 -229q-2 -4 -5 -4zM290 687l-163 -434h328l-163 434h-2zM309 793l-115 134q-5 6 3 6h17q4 0 6 -3l108 -134q4 -6 -3 -6h-10q-5 0 -6 3z" />
    <glyph glyph-name="Aacute" unicode="&#xc1;" horiz-adv-x="582" 
d="M28 0h-12q-6 0 -4 6l266 705q2 4 5 4h16q3 0 5 -4l266 -705q2 -6 -4 -6h-12q-3 0 -5 4l-86 229h-344l-86 -229q-2 -4 -5 -4zM290 687l-163 -434h328l-163 434h-2zM397 927l-115 -134q-2 -3 -6 -3h-10q-7 0 -3 6l108 134q1 3 6 3h17q7 0 3 -6z" />
    <glyph glyph-name="Acircumflex" unicode="&#xc2;" horiz-adv-x="582" 
d="M28 0h-12q-6 0 -4 6l266 705q2 4 5 4h16q3 0 5 -4l266 -705q2 -6 -4 -6h-12q-3 0 -5 4l-86 229h-344l-86 -229q-2 -4 -5 -4zM290 687l-163 -434h328l-163 434h-2zM161 790h-12q-9 0 -3 6l131 134q3 3 7 3h14q4 0 7 -3l131 -134q6 -6 -3 -6h-12q-4 0 -7 3l-123 121
l-123 -121q-3 -3 -7 -3z" />
    <glyph glyph-name="Atilde" unicode="&#xc3;" horiz-adv-x="582" 
d="M28 0h-12q-6 0 -4 6l266 705q2 4 5 4h16q3 0 5 -4l266 -705q2 -6 -4 -6h-12q-3 0 -5 4l-86 229h-344l-86 -229q-2 -4 -5 -4zM290 687l-163 -434h328l-163 434h-2zM422 874q-6 -20 -24 -34.5t-40 -14.5q-25 0 -67 23t-66 23q-30 0 -49 -37q-2 -3 -6 -2l-7 3q-5 2 -3 7
q7 20 24.5 33.5t41.5 13.5q22 0 70 -24q46 -22 61 -22q31 0 49 38q2 3 6 2l7 -3q4 -2 3 -6z" />
    <glyph glyph-name="Adieresis" unicode="&#xc4;" horiz-adv-x="582" 
d="M28 0h-12q-6 0 -4 6l266 705q2 4 5 4h16q3 0 5 -4l266 -705q2 -6 -4 -6h-12q-3 0 -5 4l-86 229h-344l-86 -229q-2 -4 -5 -4zM290 687l-163 -434h328l-163 434h-2zM212 859q0 -20 -20 -20t-20 20t20 20t20 -20zM410 859q0 -20 -20 -20t-20 20t20 20t20 -20z" />
    <glyph glyph-name="Aring" unicode="&#xc5;" horiz-adv-x="582" 
d="M28 0h-12q-6 0 -4 6l266 705q2 4 5 4h16q3 0 5 -4l266 -705q2 -6 -4 -6h-12q-3 0 -5 4l-86 229h-344l-86 -229q-2 -4 -5 -4zM290 687l-163 -434h328l-163 434h-2zM385 866q0 -40 -26 -64.5t-67 -24.5q-43 0 -69 24.5t-26 64.5q0 39 26 63.5t69 24.5q41 0 67 -24.5
t26 -63.5zM216 866q0 -32 20.5 -51.5t55.5 -19.5t54.5 19.5t19.5 51.5q0 31 -19.5 50.5t-54.5 19.5t-55.5 -19.5t-20.5 -50.5z" />
    <glyph glyph-name="AE" unicode="&#xc6;" horiz-adv-x="824" 
d="M436 354v-334h328q5 0 5 -5v-10q0 -5 -5 -5h-344q-5 0 -5 5v224h-262l-123 -225q-2 -4 -6 -4h-12q-7 0 -4 6l393 706q1 3 6 3h352q5 0 5 -5v-10q0 -5 -5 -5h-323v-321h308q5 0 5 -5v-10q0 -5 -5 -5h-308zM416 698l-251 -449h250v408z" />
    <glyph glyph-name="Ccedilla" unicode="&#xc7;" horiz-adv-x="574" 
d="M385 -129q0 -33 -25.5 -53.5t-69.5 -20.5q-32 0 -61 10q-4 1 -4 6v8q0 5 6 4q30 -10 59 -10q37 0 56.5 15t19.5 42q0 26 -20.5 38t-69.5 13q-4 0 -6 3q-3 3 -1 6l23 59q-104 7 -160 71t-56 163v265q0 104 61.5 169.5t173.5 65.5q120 0 211 -75q5 -3 1 -7l-6 -8
q-3 -3 -7 -1q-88 71 -200 71q-103 0 -158 -59.5t-55 -155.5v-265q0 -96 56 -155.5t160 -59.5q121 0 212 80q3 4 7 0l6 -9q4 -4 -1 -7q-93 -84 -223 -84h-3l-20 -52q94 0 94 -67z" />
    <glyph glyph-name="Egrave" unicode="&#xc8;" horiz-adv-x="559" 
d="M121 355v-335h386q5 0 5 -5v-10q0 -5 -5 -5h-402q-5 0 -5 5v705q0 5 5 5h387q5 0 5 -5v-10q0 -5 -5 -5h-371v-320h351q5 0 5 -5v-10q0 -5 -5 -5h-351zM317 793l-115 134q-5 6 3 6h17q4 0 6 -3l108 -134q4 -6 -3 -6h-10q-5 0 -6 3z" />
    <glyph glyph-name="Eacute" unicode="&#xc9;" horiz-adv-x="559" 
d="M121 355v-335h386q5 0 5 -5v-10q0 -5 -5 -5h-402q-5 0 -5 5v705q0 5 5 5h387q5 0 5 -5v-10q0 -5 -5 -5h-371v-320h351q5 0 5 -5v-10q0 -5 -5 -5h-351zM395 927l-115 -134q-2 -3 -6 -3h-10q-7 0 -3 6l108 134q1 3 6 3h17q8 0 3 -6z" />
    <glyph glyph-name="Ecircumflex" unicode="&#xca;" horiz-adv-x="559" 
d="M121 355v-335h386q5 0 5 -5v-10q0 -5 -5 -5h-402q-5 0 -5 5v705q0 5 5 5h387q5 0 5 -5v-10q0 -5 -5 -5h-371v-320h351q5 0 5 -5v-10q0 -5 -5 -5h-351zM169 790h-12q-9 0 -3 6l131 134q3 3 7 3h14q4 0 7 -3l131 -134q6 -6 -3 -6h-12q-4 0 -7 3l-123 121l-123 -121
q-3 -3 -7 -3z" />
    <glyph glyph-name="Edieresis" unicode="&#xcb;" horiz-adv-x="559" 
d="M121 355v-335h386q5 0 5 -5v-10q0 -5 -5 -5h-402q-5 0 -5 5v705q0 5 5 5h387q5 0 5 -5v-10q0 -5 -5 -5h-371v-320h351q5 0 5 -5v-10q0 -5 -5 -5h-351zM220 859q0 -20 -20 -20t-20 20t20 20t20 -20zM418 859q0 -20 -20 -20t-20 20t20 20t20 -20z" />
    <glyph glyph-name="Igrave" unicode="&#xcc;" horiz-adv-x="221" 
d="M121 710v-705q0 -5 -5 -5h-11q-5 0 -5 5v705q0 5 5 5h11q5 0 5 -5zM129 793l-115 134q-5 6 3 6h17q4 0 6 -3l108 -134q4 -6 -3 -6h-10q-5 0 -6 3z" />
    <glyph glyph-name="Iacute" unicode="&#xcd;" horiz-adv-x="221" 
d="M120 710v-705q0 -5 -5 -5h-11q-5 0 -5 5v705q0 5 5 5h11q5 0 5 -5zM216 927l-115 -134q-1 -3 -6 -3h-10q-7 0 -3 6l108 134q2 3 6 3h17q7 0 3 -6z" />
    <glyph glyph-name="Icircumflex" unicode="&#xce;" horiz-adv-x="221" 
d="M5 790h-12q-7 0 -3 6l104 134q2 3 6 3h16q4 0 6 -3l114 -134q4 -6 -3 -6h-12q-5 0 -6 3l-107 123l-97 -123q-1 -3 -6 -3zM120 710v-705q0 -5 -5 -5h-11q-5 0 -5 5v705q0 5 5 5h11q5 0 5 -5z" />
    <glyph glyph-name="Idieresis" unicode="&#xcf;" horiz-adv-x="221" 
d="M116 0h-11q-5 0 -5 5v705q0 5 5 5h11q5 0 5 -5v-705q0 -5 -5 -5zM51 859q0 -20 -20 -20t-20 20t20 20t20 -20zM211 859q0 -20 -20 -20t-20 20t20 20t20 -20z" />
    <glyph glyph-name="Eth" unicode="&#xd0;" horiz-adv-x="683" 
d="M131 715h235q111 0 176.5 -66.5t65.5 -180.5v-224q0 -114 -65.5 -179t-176.5 -65h-235q-5 0 -5 5v361h-106q-5 0 -5 5v10q0 5 5 5h106v324q0 5 5 5zM366 20q103 0 162 59t59 165v224q0 107 -59 167t-162 60h-219v-309h207q5 0 5 -5v-10q0 -5 -5 -5h-207v-346h219z" />
    <glyph glyph-name="Ntilde" unicode="&#xd1;" horiz-adv-x="699" 
d="M116 0h-11q-5 0 -5 5v705q0 5 5 5h14q5 0 6 -3l453 -678v676q0 5 5 5h11q5 0 5 -5v-705q0 -5 -5 -5h-14q-4 0 -6 3l-453 678v-676q0 -5 -5 -5zM481 874q-6 -20 -24 -34.5t-40 -14.5q-25 0 -67 23t-66 23q-30 0 -49 -37q-2 -3 -6 -2l-7 3q-5 2 -3 7q7 20 24.5 33.5
t41.5 13.5q22 0 70 -24q46 -22 61 -22q31 0 49 38q2 3 6 2l7 -3q4 -2 3 -6z" />
    <glyph glyph-name="Ograve" unicode="&#xd2;" horiz-adv-x="666" 
d="M591 218q0 -98 -72 -163t-186 -65t-186 65t-72 163v270q0 105 71 171t187 66t187 -66t71 -171v-270zM96 218q0 -90 65.5 -149t171.5 -59t171.5 59t65.5 149v270q0 97 -65 157t-172 60t-172 -60t-65 -157v-270zM351 793l-115 134q-5 6 3 6h17q4 0 6 -3l108 -134
q4 -6 -3 -6h-10q-5 0 -6 3z" />
    <glyph glyph-name="Oacute" unicode="&#xd3;" horiz-adv-x="666" 
d="M591 218q0 -98 -72 -163t-186 -65t-186 65t-72 163v270q0 105 71 171t187 66t187 -66t71 -171v-270zM96 218q0 -90 65.5 -149t171.5 -59t171.5 59t65.5 149v270q0 97 -65 157t-172 60t-172 -60t-65 -157v-270zM439 927l-115 -134q-2 -3 -6 -3h-10q-7 0 -3 6l108 134
q1 3 6 3h17q7 0 3 -6z" />
    <glyph glyph-name="Ocircumflex" unicode="&#xd4;" horiz-adv-x="666" 
d="M591 218q0 -98 -72 -163t-186 -65t-186 65t-72 163v270q0 105 71 171t187 66t187 -66t71 -171v-270zM96 218q0 -90 65.5 -149t171.5 -59t171.5 59t65.5 149v270q0 97 -65 157t-172 60t-172 -60t-65 -157v-270zM203 790h-12q-9 0 -3 6l131 134q3 3 7 3h14q4 0 7 -3
l131 -134q6 -6 -3 -6h-12q-4 0 -7 3l-123 121l-123 -121q-3 -3 -7 -3z" />
    <glyph glyph-name="Otilde" unicode="&#xd5;" horiz-adv-x="666" 
d="M591 218q0 -98 -72 -163t-186 -65t-186 65t-72 163v270q0 105 71 171t187 66t187 -66t71 -171v-270zM96 218q0 -90 65.5 -149t171.5 -59t171.5 59t65.5 149v270q0 97 -65 157t-172 60t-172 -60t-65 -157v-270zM464 874q-6 -20 -24 -34.5t-40 -14.5q-25 0 -67 23t-66 23
q-30 0 -49 -37q-2 -3 -6 -2l-7 3q-5 2 -3 7q7 20 24.5 33.5t41.5 13.5q22 0 70 -24q46 -22 61 -22q31 0 49 38q2 3 6 2l7 -3q4 -2 3 -6z" />
    <glyph glyph-name="Odieresis" unicode="&#xd6;" horiz-adv-x="666" 
d="M591 218q0 -98 -72 -163t-186 -65t-186 65t-72 163v270q0 105 71 171t187 66t187 -66t71 -171v-270zM96 218q0 -90 65.5 -149t171.5 -59t171.5 59t65.5 149v270q0 97 -65 157t-172 60t-172 -60t-65 -157v-270zM254 859q0 -20 -20 -20t-20 20t20 20t20 -20zM452 859
q0 -20 -20 -20t-20 20t20 20t20 -20z" />
    <glyph glyph-name="multiply" unicode="&#xd7;" 
d="M271 319l-177 -177q-4 -4 -8 0l-6 6q-4 4 0 8l177 177l-177 176q-4 4 0 8l6 6q4 4 8 0l177 -176l176 176q4 4 8 0l6 -6q4 -4 0 -8l-176 -176l176 -177q4 -4 0 -8l-6 -6q-4 -4 -8 0z" />
    <glyph glyph-name="Oslash" unicode="&#xd8;" horiz-adv-x="672" 
d="M130 -51h-10q-7 0 -4 6l47 90q-88 66 -88 175v268q0 104 72 170.5t189 66.5q92 0 157 -42l43 83q1 4 6 4h10q7 0 4 -6l-48 -92q89 -66 89 -184v-268q0 -97 -73 -162.5t-188 -65.5q-90 0 -158 43l-42 -82q-1 -4 -6 -4zM96 220q0 -96 76 -156l312 601q-62 40 -148 40
q-108 0 -174 -60.5t-66 -156.5v-268zM188 53q61 -41 148 -41q107 0 173.5 59.5t66.5 148.5v268q0 105 -77 166z" />
    <glyph glyph-name="Ugrave" unicode="&#xd9;" horiz-adv-x="670" 
d="M576 240q0 -112 -63.5 -180t-177.5 -68t-177.5 68t-63.5 180v470q0 5 5 5h11q5 0 5 -5v-470q0 -104 57.5 -166t162.5 -62t162.5 62t57.5 166v470q0 5 5 5h11q5 0 5 -5v-470zM353 793l-115 134q-5 6 3 6h17q4 0 6 -3l108 -134q4 -6 -3 -6h-10q-5 0 -6 3z" />
    <glyph glyph-name="Uacute" unicode="&#xda;" horiz-adv-x="670" 
d="M576 240q0 -112 -63.5 -180t-177.5 -68t-177.5 68t-63.5 180v470q0 5 5 5h11q5 0 5 -5v-470q0 -104 57.5 -166t162.5 -62t162.5 62t57.5 166v470q0 5 5 5h11q5 0 5 -5v-470zM431 927l-115 -134q-2 -3 -6 -3h-10q-7 0 -3 6l108 134q1 3 6 3h17q8 0 3 -6z" />
    <glyph glyph-name="Ucircumflex" unicode="&#xdb;" horiz-adv-x="670" 
d="M576 240q0 -112 -63.5 -180t-177.5 -68t-177.5 68t-63.5 180v470q0 5 5 5h11q5 0 5 -5v-470q0 -104 57.5 -166t162.5 -62t162.5 62t57.5 166v470q0 5 5 5h11q5 0 5 -5v-470zM205 790h-12q-9 0 -3 6l131 134q3 3 7 3h14q4 0 7 -3l131 -134q6 -6 -3 -6h-12q-4 0 -7 3
l-123 121l-123 -121q-3 -3 -7 -3z" />
    <glyph glyph-name="Udieresis" unicode="&#xdc;" horiz-adv-x="670" 
d="M576 240q0 -112 -63.5 -180t-177.5 -68t-177.5 68t-63.5 180v470q0 5 5 5h11q5 0 5 -5v-470q0 -104 57.5 -166t162.5 -62t162.5 62t57.5 166v470q0 5 5 5h11q5 0 5 -5v-470zM256 859q0 -20 -20 -20t-20 20t20 20t20 -20zM454 859q0 -20 -20 -20t-20 20t20 20t20 -20z" />
    <glyph glyph-name="Yacute" unicode="&#xdd;" horiz-adv-x="529" 
d="M270 0h-11q-5 0 -5 5v281l-242 423q-3 6 4 6h12q4 0 6 -3l231 -404l231 404q2 3 6 3h12q7 0 4 -6l-243 -423v-281q0 -5 -5 -5zM366 927l-115 -134q-1 -3 -6 -3h-10q-7 0 -3 6l108 134q2 3 6 3h17q7 0 3 -6z" />
    <glyph glyph-name="Thorn" unicode="&#xde;" horiz-adv-x="622" 
d="M116 0h-11q-5 0 -5 5v705q0 5 5 5h11q5 0 5 -5v-125h200q117 0 180 -57t63 -158q0 -102 -63.5 -158t-179.5 -56h-200v-151q0 -5 -5 -5zM121 565v-389h198q110 0 167 50t57 144t-57.5 144.5t-166.5 50.5h-198z" />
    <glyph glyph-name="germandbls" unicode="&#xdf;" horiz-adv-x="531" 
d="M451 540q0 -126 -113 -161q141 -28 141 -187q0 -98 -56 -150t-163 -52q-57 0 -111 24q-4 1 -4 6v10q0 6 6 3q58 -24 109 -24q98 0 148.5 46.5t50.5 136.5q0 77 -42.5 127.5t-142.5 50.5h-111q-5 0 -5 5v9q0 5 5 5h111q85 0 121 45t36 106q0 166 -170 166q-80 0 -121 -45
t-41 -133v-523q0 -5 -5 -5h-10q-5 0 -5 5v523q0 96 47 146.5t135 50.5q92 0 141 -47.5t49 -137.5z" />
    <glyph glyph-name="agrave" unicode="&#xe0;" horiz-adv-x="497" 
d="M67 472q71 51 176 51q92 0 137 -48.5t45 -133.5v-309q0 -5 -4 -6q-82 -36 -178 -36q-90 0 -146.5 43.5t-56.5 115.5q0 74 53 115t150 41q74 0 162 -21v57q0 163 -162 163q-93 0 -165 -46q-4 -2 -7 1l-4 7q-2 5 0 6zM60 149q0 -63 51 -101.5t132 -38.5q84 0 162 30v227
q-82 20 -162 20q-88 0 -135.5 -35.5t-47.5 -101.5zM269 600h-8q-5 0 -6 3l-89 134q-3 6 3 6h15q4 0 6 -3l83 -134q5 -6 -4 -6z" />
    <glyph glyph-name="aacute" unicode="&#xe1;" horiz-adv-x="497" 
d="M67 472q71 51 176 51q92 0 137 -48.5t45 -133.5v-309q0 -5 -4 -6q-82 -36 -178 -36q-90 0 -146.5 43.5t-56.5 115.5q0 74 53 115t150 41q74 0 162 -21v57q0 163 -162 163q-93 0 -165 -46q-4 -2 -7 1l-4 7q-2 5 0 6zM60 149q0 -63 51 -101.5t132 -38.5q84 0 162 30v227
q-82 20 -162 20q-88 0 -135.5 -35.5t-47.5 -101.5zM218 600h-8q-9 0 -4 6l83 134q1 3 6 3h15q6 0 3 -6l-89 -134q-2 -3 -6 -3z" />
    <glyph glyph-name="acircumflex" unicode="&#xe2;" horiz-adv-x="497" 
d="M67 472q71 51 176 51q92 0 137 -48.5t45 -133.5v-309q0 -5 -4 -6q-82 -36 -178 -36q-90 0 -146.5 43.5t-56.5 115.5q0 74 53 115t150 41q74 0 162 -21v57q0 163 -162 163q-93 0 -165 -46q-4 -2 -7 1l-4 7q-2 5 0 6zM60 149q0 -63 51 -101.5t132 -38.5q84 0 162 30v227
q-82 20 -162 20q-88 0 -135.5 -35.5t-47.5 -101.5zM135 600h-13q-8 0 -3 6l114 134q1 3 6 3h10q5 0 6 -3l114 -134q5 -6 -3 -6h-13q-5 0 -6 3l-103 123l-103 -123q-1 -3 -6 -3z" />
    <glyph glyph-name="atilde" unicode="&#xe3;" horiz-adv-x="497" 
d="M67 472q71 51 176 51q92 0 137 -48.5t45 -133.5v-309q0 -5 -4 -6q-82 -36 -178 -36q-90 0 -146.5 43.5t-56.5 115.5q0 74 53 115t150 41q74 0 162 -21v57q0 163 -162 163q-93 0 -165 -46q-4 -2 -7 1l-4 7q-2 5 0 6zM60 149q0 -63 51 -101.5t132 -38.5q84 0 162 30v227
q-82 20 -162 20q-88 0 -135.5 -35.5t-47.5 -101.5zM380 674q-7 -20 -24.5 -34.5t-39.5 -14.5q-21 0 -67 23q-42 23 -66 23q-34 0 -49 -37q-2 -3 -6 -2l-7 3q-4 3 -3 7q20 47 66 47q22 0 70 -24q46 -22 61 -22q33 0 49 38q2 5 6 2l7 -3q4 -2 3 -6z" />
    <glyph glyph-name="adieresis" unicode="&#xe4;" horiz-adv-x="497" 
d="M67 472q71 51 176 51q92 0 137 -48.5t45 -133.5v-309q0 -5 -4 -6q-82 -36 -178 -36q-90 0 -146.5 43.5t-56.5 115.5q0 74 53 115t150 41q74 0 162 -21v57q0 163 -162 163q-93 0 -165 -46q-4 -2 -7 1l-4 7q-2 5 0 6zM60 149q0 -63 51 -101.5t132 -38.5q84 0 162 30v227
q-82 20 -162 20q-88 0 -135.5 -35.5t-47.5 -101.5zM185 650q0 -20 -20 -20t-20 20t20 20t20 -20zM353 650q0 -20 -20 -20t-20 20t20 20t20 -20z" />
    <glyph glyph-name="aring" unicode="&#xe5;" horiz-adv-x="497" 
d="M67 472q71 51 176 51q92 0 137 -48.5t45 -133.5v-309q0 -5 -4 -6q-82 -36 -178 -36q-90 0 -146.5 43.5t-56.5 115.5q0 74 53 115t150 41q74 0 162 -21v57q0 163 -162 163q-93 0 -165 -46q-4 -2 -7 1l-4 7q-2 5 0 6zM60 149q0 -63 51 -101.5t132 -38.5q84 0 162 30v227
q-82 20 -162 20q-88 0 -135.5 -35.5t-47.5 -101.5zM343 677q0 -39 -26 -65t-68 -26t-68 26t-26 65t26.5 65.5t67.5 26.5t67.5 -26.5t26.5 -65.5zM174 677q0 -33 20.5 -53t55.5 -20t54.5 20t19.5 53t-19.5 53.5t-54.5 20.5t-55.5 -20.5t-20.5 -53.5z" />
    <glyph glyph-name="ae" unicode="&#xe6;" horiz-adv-x="837" 
d="M582 -8q-99 0 -153 69q-82 -71 -189 -71q-88 0 -144 43.5t-56 115.5t52.5 111.5t147.5 39.5q66 0 159 -20v61q0 163 -159 163q-93 0 -165 -46q-4 -2 -7 1l-4 7q-2 5 1 7q72 50 177 50q70 0 113.5 -33t55.5 -92q14 60 63 92.5t118 32.5q88 0 140.5 -50.5t52.5 -137.5v-71
q0 -5 -5 -5h-361v-98q0 -73 45.5 -111.5t117.5 -38.5q106 0 181 73q4 3 7 -1l6 -6q4 -4 0 -7q-82 -78 -194 -78zM60 149q0 -63 50 -101.5t130 -38.5q98 0 179 66q-20 38 -20 86v100q-82 20 -159 20q-87 0 -133.5 -34t-46.5 -98zM419 335v-57h346v57q0 79 -47 124t-126 45
q-80 0 -126.5 -44.5t-46.5 -124.5z" />
    <glyph glyph-name="ccedilla" unicode="&#xe7;" horiz-adv-x="462" 
d="M429 53q-77 -62 -170 -63l-18 -51q92 0 92 -67q0 -33 -25 -53.5t-69 -20.5q-31 0 -59 9q-4 1 -4 6v8q0 5 6 4q30 -9 57 -9q36 0 55 15t19 41q0 27 -20 39t-67 13q-4 0 -6 3q-3 3 -1 6l21 58q-83 4 -131.5 56t-48.5 126v167q0 78 53 130.5t142 52.5q87 0 160 -54
q5 -3 1 -7l-5 -7q-3 -3 -7 -1q-69 50 -150 50q-82 0 -128 -47t-46 -117v-167q0 -70 47 -117t127 -47q87 0 164 59q4 2 7 -1l5 -7q4 -4 -1 -7z" />
    <glyph glyph-name="egrave" unicode="&#xe8;" horiz-adv-x="505" 
d="M452 335v-88q0 -5 -5 -5h-367v-71q0 -74 51 -118t125 -44q95 0 174 73q4 3 7 -1l6 -6q4 -4 0 -7q-84 -78 -187 -78q-82 0 -139 50t-57 131v164q0 87 53 137.5t143 50.5q89 0 142.5 -50.5t53.5 -137.5zM432 335q0 79 -48 124t-128 45q-82 0 -129 -44.5t-47 -124.5v-74h352
v74zM276 600h-8q-4 0 -6 3l-89 134q-3 6 3 6h15q5 0 6 -3l83 -134q4 -6 -4 -6z" />
    <glyph glyph-name="eacute" unicode="&#xe9;" horiz-adv-x="505" 
d="M452 335v-88q0 -5 -5 -5h-367v-71q0 -74 51 -118t125 -44q95 0 174 73q4 3 7 -1l6 -6q4 -4 0 -7q-84 -78 -187 -78q-82 0 -139 50t-57 131v164q0 87 53 137.5t143 50.5q89 0 142.5 -50.5t53.5 -137.5zM432 335q0 79 -48 124t-128 45q-82 0 -129 -44.5t-47 -124.5v-74h352
v74zM225 600h-8q-9 0 -4 6l83 134q2 3 6 3h15q6 0 3 -6l-89 -134q-1 -3 -6 -3z" />
    <glyph glyph-name="ecircumflex" unicode="&#xea;" horiz-adv-x="505" 
d="M452 335v-88q0 -5 -5 -5h-367v-71q0 -74 51 -118t125 -44q95 0 174 73q4 3 7 -1l6 -6q4 -4 0 -7q-84 -78 -187 -78q-82 0 -139 50t-57 131v164q0 87 53 137.5t143 50.5q89 0 142.5 -50.5t53.5 -137.5zM432 335q0 79 -48 124t-128 45q-82 0 -129 -44.5t-47 -124.5v-74h352
v74zM147 600h-13q-8 0 -3 6l114 134q1 3 6 3h10q5 0 6 -3l114 -134q5 -6 -3 -6h-13q-5 0 -6 3l-103 123l-103 -123q-1 -3 -6 -3z" />
    <glyph glyph-name="edieresis" unicode="&#xeb;" horiz-adv-x="505" 
d="M452 335v-88q0 -5 -5 -5h-367v-71q0 -74 51 -118t125 -44q95 0 174 73q4 3 7 -1l6 -6q4 -4 0 -7q-84 -78 -187 -78q-82 0 -139 50t-57 131v164q0 87 53 137.5t143 50.5q89 0 142.5 -50.5t53.5 -137.5zM432 335q0 79 -48 124t-128 45q-82 0 -129 -44.5t-47 -124.5v-74h352
v74zM192 650q0 -20 -20 -20t-20 20t20 20t20 -20zM360 650q0 -20 -20 -20t-20 20t20 20t20 -20z" />
    <glyph glyph-name="igrave" unicode="&#xec;" horiz-adv-x="178" 
d="M94 0h-10q-5 0 -5 5v503q0 5 5 5h10q5 0 5 -5v-503q0 -5 -5 -5zM109 600h-8q-5 0 -6 3l-89 134q-3 6 3 6h15q4 0 6 -3l83 -134q4 -6 -4 -6z" />
    <glyph glyph-name="iacute" unicode="&#xed;" horiz-adv-x="178" 
d="M94 0h-10q-5 0 -5 5v503q0 5 5 5h10q5 0 5 -5v-503q0 -5 -5 -5zM84 600h-8q-8 0 -4 6l83 134q1 3 6 3h15q6 0 3 -6l-89 -134q-2 -3 -6 -3z" />
    <glyph glyph-name="icircumflex" unicode="&#xee;" horiz-adv-x="178" 
d="M93 0h-10q-5 0 -5 5v503q0 5 5 5h10q5 0 5 -5v-503q0 -5 -5 -5zM-10 600h-12q-7 0 -3 6l101 134q2 3 6 3h14q4 0 6 -3l101 -134q4 -6 -3 -6h-12q-4 0 -6 3l-93 126l-93 -126q-2 -3 -6 -3z" />
    <glyph glyph-name="idieresis" unicode="&#xef;" horiz-adv-x="178" 
d="M94 0h-10q-5 0 -5 5v503q0 5 5 5h10q5 0 5 -5v-503q0 -5 -5 -5zM47 650q0 -20 -20 -20t-20 20t20 20t20 -20zM171 650q0 -20 -20 -20t-20 20t20 20t20 -20z" />
    <glyph glyph-name="eth" unicode="&#xf0;" horiz-adv-x="534" 
d="M450 711l-86 -69q99 -90 99 -298v-168q0 -81 -52.5 -133.5t-149.5 -52.5q-96 0 -149 52.5t-53 133.5v139q0 80 53 132.5t147 52.5q135 0 183 -98q-11 154 -94 228l-115 -92q-4 -2 -6 0l-6 7q-3 3 0 7l113 89q-52 40 -156 69q-5 2 -4 6l2 9q2 5 7 3q111 -29 167 -74l89 71
q4 2 6 -1l5 -6q3 -6 0 -7zM79 176q0 -73 47 -120t135 -47t135 47t47 120v139q0 74 -46.5 120t-135.5 46q-88 0 -135 -47t-47 -119v-139z" />
    <glyph glyph-name="ntilde" unicode="&#xf1;" horiz-adv-x="545" 
d="M93 0h-10q-5 0 -5 5v474q0 5 4 6q84 38 180 38q100 0 154.5 -51t54.5 -148v-319q0 -5 -5 -5h-10q-5 0 -5 5v319q0 89 -49 134.5t-140 45.5q-85 0 -164 -32v-467q0 -5 -5 -5zM398 674q-7 -20 -24.5 -34.5t-39.5 -14.5q-21 0 -67 23q-42 23 -66 23q-34 0 -49 -37
q-2 -3 -6 -2l-7 3q-4 3 -3 7q20 47 66 47q22 0 70 -24q46 -22 61 -22q33 0 49 38q2 5 6 2l7 -3q4 -2 3 -6z" />
    <glyph glyph-name="ograve" unicode="&#xf2;" horiz-adv-x="530" 
d="M470 176q0 -81 -53.5 -133.5t-151.5 -52.5t-151.5 52.5t-53.5 133.5v162q0 80 54 132.5t151 52.5q98 0 151.5 -52.5t53.5 -132.5v-162zM80 176q0 -73 48 -120t137 -47q90 0 137.5 47t47.5 120v162q0 72 -47.5 119t-137.5 47q-89 0 -137 -47t-48 -119v-162zM285 600h-8
q-5 0 -6 3l-89 134q-3 6 3 6h15q4 0 6 -3l83 -134q4 -6 -4 -6z" />
    <glyph glyph-name="oacute" unicode="&#xf3;" horiz-adv-x="530" 
d="M470 176q0 -81 -53.5 -133.5t-151.5 -52.5t-151.5 52.5t-53.5 133.5v162q0 80 54 132.5t151 52.5q98 0 151.5 -52.5t53.5 -132.5v-162zM80 176q0 -73 48 -120t137 -47q90 0 137.5 47t47.5 120v162q0 72 -47.5 119t-137.5 47q-89 0 -137 -47t-48 -119v-162zM234 600h-8
q-8 0 -4 6l83 134q1 3 6 3h15q6 0 3 -6l-89 -134q-2 -3 -6 -3z" />
    <glyph glyph-name="ocircumflex" unicode="&#xf4;" horiz-adv-x="530" 
d="M470 176q0 -81 -53.5 -133.5t-151.5 -52.5t-151.5 52.5t-53.5 133.5v162q0 80 54 132.5t151 52.5q98 0 151.5 -52.5t53.5 -132.5v-162zM80 176q0 -73 48 -120t137 -47q90 0 137.5 47t47.5 120v162q0 72 -47.5 119t-137.5 47q-89 0 -137 -47t-48 -119v-162zM156 600h-13
q-8 0 -3 6l114 134q2 3 6 3h10q4 0 6 -3l114 -134q4 -6 -3 -6h-13q-4 0 -6 3l-103 123l-103 -123q-2 -3 -6 -3z" />
    <glyph glyph-name="otilde" unicode="&#xf5;" horiz-adv-x="530" 
d="M470 176q0 -81 -53.5 -133.5t-151.5 -52.5t-151.5 52.5t-53.5 133.5v162q0 80 54 132.5t151 52.5q98 0 151.5 -52.5t53.5 -132.5v-162zM80 176q0 -73 48 -120t137 -47q90 0 137.5 47t47.5 120v162q0 72 -47.5 119t-137.5 47q-89 0 -137 -47t-48 -119v-162zM396 674
q-7 -20 -24.5 -34.5t-39.5 -14.5q-21 0 -67 23q-42 23 -66 23q-34 0 -49 -37q-2 -3 -6 -2l-7 3q-4 3 -3 7q20 47 66 47q22 0 70 -24q46 -22 61 -22q33 0 49 38q2 5 6 2l7 -3q4 -2 3 -6z" />
    <glyph glyph-name="odieresis" unicode="&#xf6;" horiz-adv-x="530" 
d="M470 176q0 -81 -53.5 -133.5t-151.5 -52.5t-151.5 52.5t-53.5 133.5v162q0 80 54 132.5t151 52.5q98 0 151.5 -52.5t53.5 -132.5v-162zM80 176q0 -73 48 -120t137 -47q90 0 137.5 47t47.5 120v162q0 72 -47.5 119t-137.5 47q-89 0 -137 -47t-48 -119v-162zM201 650
q0 -20 -20 -20t-20 20t20 20t20 -20zM369 650q0 -20 -20 -20t-20 20t20 20t20 -20z" />
    <glyph glyph-name="divide" unicode="&#xf7;" 
d="M475 323h-410q-5 0 -5 5v10q0 5 5 5h410q5 0 5 -5v-10q0 -5 -5 -5zM290 165q0 -20 -20 -20t-20 20t20 20t20 -20zM290 491q0 -20 -20 -20t-20 20t20 20t20 -20z" />
    <glyph glyph-name="oslash" unicode="&#xf8;" horiz-adv-x="530" 
d="M75 -52h-10q-6 0 -3 6l54 87q-56 51 -56 135v162q0 80 54 132.5t151 52.5q77 0 130 -35l54 87q1 3 6 3h10q6 0 3 -6l-59 -95q61 -51 61 -139v-162q0 -81 -53.5 -133.5t-151.5 -52.5q-81 0 -135 39l-49 -78q-1 -3 -6 -3zM80 176q0 -73 46 -118l259 413q-47 33 -120 33
q-89 0 -137 -47t-48 -119v-162zM265 9q90 0 137.5 47t47.5 120v162q0 77 -51 122l-259 -414q48 -37 125 -37z" />
    <glyph glyph-name="ugrave" unicode="&#xf9;" horiz-adv-x="537" 
d="M444 513h10q5 0 5 -5v-474q0 -5 -4 -6q-82 -38 -176 -38q-98 0 -151.5 51t-53.5 148v319q0 5 5 5h10q5 0 5 -5v-319q0 -88 48 -134t137 -46q76 0 160 32v467q0 5 5 5zM286 600h-8q-4 0 -6 3l-89 134q-3 6 3 6h15q5 0 6 -3l83 -134q4 -6 -4 -6z" />
    <glyph glyph-name="uacute" unicode="&#xfa;" horiz-adv-x="537" 
d="M444 513h10q5 0 5 -5v-474q0 -5 -4 -6q-82 -38 -176 -38q-98 0 -151.5 51t-53.5 148v319q0 5 5 5h10q5 0 5 -5v-319q0 -88 48 -134t137 -46q76 0 160 32v467q0 5 5 5zM240 600h-8q-8 0 -4 6l83 134q1 3 6 3h15q6 0 3 -6l-89 -134q-2 -3 -6 -3z" />
    <glyph glyph-name="ucircumflex" unicode="&#xfb;" horiz-adv-x="537" 
d="M444 513h10q5 0 5 -5v-474q0 -5 -4 -6q-82 -38 -176 -38q-98 0 -151.5 51t-53.5 148v319q0 5 5 5h10q5 0 5 -5v-319q0 -88 48 -134t137 -46q76 0 160 32v467q0 5 5 5zM157 600h-13q-8 0 -3 6l114 134q1 3 6 3h10q5 0 6 -3l114 -134q4 -6 -3 -6h-13q-5 0 -6 3l-103 123
l-103 -123q-1 -3 -6 -3z" />
    <glyph glyph-name="udieresis" unicode="&#xfc;" horiz-adv-x="537" 
d="M444 513h10q5 0 5 -5v-474q0 -5 -4 -6q-82 -38 -176 -38q-98 0 -151.5 51t-53.5 148v319q0 5 5 5h10q5 0 5 -5v-319q0 -88 48 -134t137 -46q76 0 160 32v467q0 5 5 5zM202 650q0 -20 -20 -20t-20 20t20 20t20 -20zM370 650q0 -20 -20 -20t-20 20t20 20t20 -20z" />
    <glyph glyph-name="yacute" unicode="&#xfd;" horiz-adv-x="538" 
d="M439 78v430q0 5 5 5h10q5 0 5 -5v-530q0 -80 -47.5 -129t-141.5 -49q-98 0 -185 80q-3 4 0 7l6 7q3 4 7 0q82 -75 172 -75q86 0 127.5 43t41.5 116v80q-70 -38 -159 -38q-97 0 -151.5 48.5t-54.5 142.5v297q0 5 5 5h10q5 0 5 -5v-297q0 -86 49 -129t138 -43q85 0 158 39z
M246 600h-8q-8 0 -4 6l83 134q1 3 6 3h15q6 0 3 -6l-89 -134q-2 -3 -6 -3z" />
    <glyph glyph-name="thorn" unicode="&#xfe;" horiz-adv-x="531" 
d="M99 490q78 33 165 33q98 0 152.5 -49t54.5 -141v-153q0 -92 -54.5 -141t-152.5 -49q-86 0 -165 33v-209q0 -5 -5 -5h-10q-5 0 -5 5v896q0 5 5 5h10q5 0 5 -5v-220zM264 9q90 0 138.5 44.5t48.5 130.5v145q0 87 -48 131.5t-141 43.5q-87 -2 -163 -34v-427q79 -34 165 -34z
" />
    <glyph glyph-name="ydieresis" unicode="&#xff;" horiz-adv-x="538" 
d="M439 78v430q0 5 5 5h10q5 0 5 -5v-530q0 -80 -47.5 -129t-141.5 -49q-98 0 -185 80q-3 4 0 7l6 7q3 4 7 0q82 -75 172 -75q86 0 127.5 43t41.5 116v80q-70 -38 -159 -38q-97 0 -151.5 48.5t-54.5 142.5v297q0 5 5 5h10q5 0 5 -5v-297q0 -86 49 -129t138 -43q85 0 158 39z
M207 650q0 -20 -20 -20t-20 20t20 20t20 -20zM375 650q0 -20 -20 -20t-20 20t20 20t20 -20z" />
    <glyph glyph-name="Amacron" unicode="&#x100;" horiz-adv-x="582" 
d="M28 0h-12q-6 0 -4 6l266 705q2 4 5 4h16q3 0 5 -4l266 -705q2 -6 -4 -6h-12q-3 0 -5 4l-86 229h-344l-86 -229q-2 -4 -5 -4zM290 687l-163 -434h328l-163 434h-2zM415 845h-249q-5 0 -5 5v10q0 5 5 5h249q5 0 5 -5v-10q0 -5 -5 -5z" />
    <glyph glyph-name="amacron" unicode="&#x101;" horiz-adv-x="497" 
d="M67 472q71 51 176 51q92 0 137 -48.5t45 -133.5v-309q0 -5 -4 -6q-82 -36 -178 -36q-90 0 -146.5 43.5t-56.5 115.5q0 74 53 115t150 41q74 0 162 -21v57q0 163 -162 163q-93 0 -165 -46q-4 -2 -7 1l-4 7q-2 5 0 6zM60 149q0 -63 51 -101.5t132 -38.5q84 0 162 30v227
q-82 20 -162 20q-88 0 -135.5 -35.5t-47.5 -101.5zM129 659v8q0 5 5 5h230q5 0 5 -5v-8q0 -5 -5 -5h-230q-5 0 -5 5z" />
    <glyph glyph-name="Abreve" unicode="&#x102;" horiz-adv-x="582" 
d="M28 0h-12q-6 0 -4 6l266 705q2 4 5 4h16q3 0 5 -4l266 -705q2 -6 -4 -6h-12q-3 0 -5 4l-86 229h-344l-86 -229q-2 -4 -5 -4zM290 687l-163 -434h328l-163 434h-2zM440 931q-8 -63 -47.5 -103t-101.5 -40t-101.5 40t-46.5 103q-1 4 4 6l9 2q4 1 6 -4q6 -58 39.5 -93
t89.5 -35t89.5 35t39.5 93q2 5 6 4l9 -2q5 -2 5 -6z" />
    <glyph glyph-name="abreve" unicode="&#x103;" horiz-adv-x="497" 
d="M67 472q71 51 176 51q92 0 137 -48.5t45 -133.5v-309q0 -5 -4 -6q-82 -36 -178 -36q-90 0 -146.5 43.5t-56.5 115.5q0 74 53 115t150 41q74 0 162 -21v57q0 163 -162 163q-93 0 -165 -46q-4 -2 -7 1l-4 7q-2 5 0 6zM60 149q0 -63 51 -101.5t132 -38.5q84 0 162 30v227
q-82 20 -162 20q-88 0 -135.5 -35.5t-47.5 -101.5zM386 736q-7 -60 -45 -98.5t-97 -38.5t-97 38.5t-45 98.5q-2 5 4 6l10 1q5 0 6 -4q7 -55 38.5 -88t83.5 -33t83.5 33t38.5 88q2 5 6 4l10 -1q6 0 4 -6z" />
    <glyph glyph-name="Aogonek" unicode="&#x104;" horiz-adv-x="582" 
d="M594 -180q-33 -18 -72 -18q-30 0 -49.5 18.5t-19.5 48.5q0 37 28.5 75.5t66.5 60.5l-11 29l-74 199h-344l-86 -229q-2 -4 -5 -4h-12q-6 0 -4 6l266 705q2 4 5 4h16q3 0 5 -4l266 -707q2 -5 -2 -6q-45 -28 -69.5 -62.5t-24.5 -61.5q0 -52 48 -52q37 0 62 15q5 3 7 -2l4 -9
q2 -4 -1 -6zM290 687l-163 -434h328l-163 434h-2z" />
    <glyph glyph-name="aogonek" unicode="&#x105;" horiz-adv-x="498" 
d="M426 341v-309q0 -5 -4 -6q-45 -20 -82 -66t-37 -86q0 -53 51 -53q36 0 58 15q5 3 7 -2l5 -8q2 -4 -3 -7q-27 -17 -68 -17q-32 0 -51 18.5t-19 53.5q0 32 23 69.5t61 65.5q-62 -19 -123 -19q-90 0 -146.5 43.5t-56.5 115.5q0 74 53 115t150 41q72 0 162 -21v57
q0 163 -162 163q-95 0 -169 -46q-4 -2 -7 1l-4 7q-4 4 1 7q74 50 181 50q91 0 135.5 -48.5t44.5 -133.5zM61 149q0 -63 51 -101.5t132 -38.5q91 0 162 29v228q-82 20 -162 20q-88 0 -135.5 -35.5t-47.5 -101.5z" />
    <glyph glyph-name="Cacute" unicode="&#x106;" horiz-adv-x="573" 
d="M536 74q-93 -84 -223 -84q-114 0 -176 65.5t-62 169.5v265q0 104 61.5 169.5t173.5 65.5q120 0 211 -75q5 -3 1 -7l-6 -8q-3 -3 -7 -1q-88 71 -200 71q-103 0 -158 -59.5t-55 -155.5v-265q0 -96 56 -155.5t160 -59.5q121 0 212 80q4 4 7 0l6 -9q4 -4 -1 -7zM421 927
l-115 -134q-2 -3 -6 -3h-10q-7 0 -3 6l108 134q1 3 6 3h17q7 0 3 -6z" />
    <glyph glyph-name="cacute" unicode="&#x107;" horiz-adv-x="462" 
d="M429 53q-78 -63 -174 -63q-89 0 -142 52.5t-53 130.5v167q0 78 53 130.5t142 52.5q87 0 160 -54q5 -3 1 -7l-5 -7q-3 -3 -7 -1q-69 50 -150 50q-82 0 -128 -47t-46 -117v-167q0 -70 47 -117t127 -47q87 0 164 59q4 2 7 -1l5 -7q4 -4 -1 -7zM223 600h-8q-9 0 -4 6l83 134
q2 3 6 3h15q6 0 3 -6l-89 -134q-1 -3 -6 -3z" />
    <glyph glyph-name="Cdotaccent" unicode="&#x10a;" horiz-adv-x="573" 
d="M536 74q-93 -84 -223 -84q-114 0 -176 65.5t-62 169.5v265q0 104 61.5 169.5t173.5 65.5q120 0 211 -75q5 -3 1 -7l-6 -8q-3 -3 -7 -1q-88 71 -200 71q-103 0 -158 -59.5t-55 -155.5v-265q0 -96 56 -155.5t160 -59.5q121 0 212 80q4 4 7 0l6 -9q4 -4 -1 -7zM337 859
q0 -22 -22 -22t-22 22t22 22t22 -22z" />
    <glyph glyph-name="cdotaccent" unicode="&#x10b;" horiz-adv-x="462" 
d="M429 53q-78 -63 -174 -63q-89 0 -142 52.5t-53 130.5v167q0 78 53 130.5t142 52.5q87 0 160 -54q5 -3 1 -7l-5 -7q-3 -3 -7 -1q-69 50 -150 50q-82 0 -128 -47t-46 -117v-167q0 -70 47 -117t127 -47q87 0 164 59q4 2 7 -1l5 -7q4 -4 -1 -7zM272 650q0 -22 -22 -22t-22 22
t22 22t22 -22z" />
    <glyph glyph-name="Ccaron" unicode="&#x10c;" horiz-adv-x="573" 
d="M536 74q-93 -84 -223 -84q-114 0 -176 65.5t-62 169.5v265q0 104 61.5 169.5t173.5 65.5q120 0 211 -75q5 -3 1 -7l-6 -8q-3 -3 -7 -1q-88 71 -200 71q-103 0 -158 -59.5t-55 -155.5v-265q0 -96 56 -155.5t160 -59.5q121 0 212 80q4 4 7 0l6 -9q4 -4 -1 -7zM173 933h12
q4 0 7 -3l123 -121l123 121q3 3 7 3h12q9 0 3 -6l-131 -134q-3 -3 -7 -3h-14q-4 0 -7 3l-131 134q-6 6 3 6z" />
    <glyph glyph-name="ccaron" unicode="&#x10d;" horiz-adv-x="462" 
d="M429 53q-78 -63 -174 -63q-89 0 -142 52.5t-53 130.5v167q0 78 53 130.5t142 52.5q87 0 160 -54q5 -3 1 -7l-5 -7q-3 -3 -7 -1q-69 50 -150 50q-82 0 -128 -47t-46 -117v-167q0 -70 47 -117t127 -47q87 0 164 59q4 2 7 -1l5 -7q4 -4 -1 -7zM132 743h13q5 0 6 -3l103 -123
l103 123q1 3 6 3h13q8 0 3 -6l-114 -134q-1 -3 -6 -3h-10q-5 0 -6 3l-114 134q-5 6 3 6z" />
    <glyph glyph-name="Dcaron" unicode="&#x10e;" horiz-adv-x="657" 
d="M340 0h-235q-5 0 -5 5v705q0 5 5 5h235q111 0 176.5 -66.5t65.5 -180.5v-224q0 -114 -65.5 -179t-176.5 -65zM121 695v-675h219q103 0 162 59t59 165v224q0 107 -59 167t-162 60h-219zM177 933h12q4 0 7 -3l123 -121l123 121q3 3 7 3h12q9 0 3 -6l-131 -134q-3 -3 -7 -3
h-14q-4 0 -7 3l-131 134q-6 6 3 6z" />
    <glyph glyph-name="dcaron" unicode="&#x10f;" horiz-adv-x="549" 
d="M268 523q91 0 163 -49v236q0 5 5 5h10q5 0 5 -5v-679q0 -5 -4 -6q-84 -35 -179 -35q-209 0 -209 213v105q0 215 209 215zM507 568l38 143q1 4 5 4h12q6 0 4 -6l-42 -143q-2 -4 -5 -4h-7q-6 0 -5 6zM79 203q0 -194 189 -194q83 0 163 30v414q-77 51 -163 51
q-189 0 -189 -196v-105z" />
    <glyph glyph-name="Dcroat" unicode="&#x110;" horiz-adv-x="683" 
d="M131 715h235q111 0 176.5 -66.5t65.5 -180.5v-224q0 -114 -65.5 -179t-176.5 -65h-235q-5 0 -5 5v361h-106q-5 0 -5 5v10q0 5 5 5h106v324q0 5 5 5zM366 20q103 0 162 59t59 165v224q0 107 -59 167t-162 60h-219v-309h207q5 0 5 -5v-10q0 -5 -5 -5h-207v-346h219z" />
    <glyph glyph-name="dcroat" unicode="&#x111;" horiz-adv-x="529" 
d="M451 627h78q5 0 5 -5v-9q0 -5 -5 -5h-78v-577q0 -5 -4 -6q-84 -35 -179 -35q-209 0 -209 213v105q0 215 209 215q91 0 163 -49v134h-187q-5 0 -5 5v9q0 5 5 5h187v83q0 5 5 5h10q5 0 5 -5v-83zM79 203q0 -194 189 -194q83 0 163 30v414q-77 51 -163 51q-189 0 -189 -196
v-105z" />
    <glyph glyph-name="Emacron" unicode="&#x112;" horiz-adv-x="559" 
d="M121 355v-335h386q5 0 5 -5v-10q0 -5 -5 -5h-402q-5 0 -5 5v705q0 5 5 5h387q5 0 5 -5v-10q0 -5 -5 -5h-371v-320h351q5 0 5 -5v-10q0 -5 -5 -5h-351zM423 845h-249q-5 0 -5 5v10q0 5 5 5h249q5 0 5 -5v-10q0 -5 -5 -5z" />
    <glyph glyph-name="emacron" unicode="&#x113;" horiz-adv-x="505" 
d="M452 335v-88q0 -5 -5 -5h-367v-71q0 -74 51 -118t125 -44q95 0 174 73q4 3 7 -1l6 -6q4 -4 0 -7q-84 -78 -187 -78q-82 0 -139 50t-57 131v164q0 87 53 137.5t143 50.5q89 0 142.5 -50.5t53.5 -137.5zM432 335q0 79 -48 124t-128 45q-82 0 -129 -44.5t-47 -124.5v-74h352
v74zM136 659v8q0 5 5 5h230q5 0 5 -5v-8q0 -5 -5 -5h-230q-5 0 -5 5z" />
    <glyph glyph-name="Edotaccent" unicode="&#x116;" horiz-adv-x="559" 
d="M121 355v-335h386q5 0 5 -5v-10q0 -5 -5 -5h-402q-5 0 -5 5v705q0 5 5 5h387q5 0 5 -5v-10q0 -5 -5 -5h-371v-320h351q5 0 5 -5v-10q0 -5 -5 -5h-351zM321 859q0 -22 -22 -22t-22 22t22 22t22 -22z" />
    <glyph glyph-name="edotaccent" unicode="&#x117;" horiz-adv-x="505" 
d="M452 335v-88q0 -5 -5 -5h-367v-71q0 -74 51 -118t125 -44q95 0 174 73q4 3 7 -1l6 -6q4 -4 0 -7q-84 -78 -187 -78q-82 0 -139 50t-57 131v164q0 87 53 137.5t143 50.5q89 0 142.5 -50.5t53.5 -137.5zM432 335q0 79 -48 124t-128 45q-82 0 -129 -44.5t-47 -124.5v-74h352
v74zM278 650q0 -22 -22 -22t-22 22t22 22t22 -22z" />
    <glyph glyph-name="Eogonek" unicode="&#x118;" horiz-adv-x="559" 
d="M467 -179q26 0 57 16q5 3 7 -2l4 -9q1 -4 -2 -6q-28 -18 -68 -18q-33 0 -52 18t-19 49q0 38 27 74.5t65 56.5h-381q-5 0 -5 5v705q0 5 5 5h387q5 0 5 -5v-10q0 -5 -5 -5h-371v-320h351q5 0 5 -5v-10q0 -5 -5 -5h-351v-335h386q5 0 5 -5v-11q0 -4 -3 -6q-27 -18 -42.5 -31
t-34 -41t-18.5 -56q0 -49 53 -49z" />
    <glyph glyph-name="eogonek" unicode="&#x119;" horiz-adv-x="505" 
d="M396 -180q-29 -18 -70 -18q-33 0 -52 18.5t-19 53.5q0 66 76 129q-33 -13 -75 -13q-81 0 -138.5 50t-57.5 131v164q0 87 53 137.5t143 50.5q89 0 142.5 -50.5t53.5 -137.5v-88q0 -5 -5 -5h-367v-71q0 -73 51.5 -117.5t124.5 -44.5q95 0 174 73q4 3 7 -1l6 -6q3 -3 0 -7
q-15 -15 -57 -43q-55 -36 -83 -76.5t-28 -74.5q0 -53 51 -53q37 0 60 15q5 3 7 -2l4 -8q2 -4 -1 -6zM80 335v-74h352v74q0 79 -48 124t-128 45q-82 0 -129 -44.5t-47 -124.5z" />
    <glyph glyph-name="Ecaron" unicode="&#x11a;" horiz-adv-x="559" 
d="M121 355v-335h386q5 0 5 -5v-10q0 -5 -5 -5h-402q-5 0 -5 5v705q0 5 5 5h387q5 0 5 -5v-10q0 -5 -5 -5h-371v-320h351q5 0 5 -5v-10q0 -5 -5 -5h-351zM157 933h12q4 0 7 -3l123 -121l123 121q3 3 7 3h12q9 0 3 -6l-131 -134q-3 -3 -7 -3h-14q-4 0 -7 3l-131 134q-6 6 3 6
z" />
    <glyph glyph-name="ecaron" unicode="&#x11b;" horiz-adv-x="505" 
d="M452 335v-88q0 -5 -5 -5h-367v-71q0 -74 51 -118t125 -44q95 0 174 73q4 3 7 -1l6 -6q4 -4 0 -7q-84 -78 -187 -78q-82 0 -139 50t-57 131v164q0 87 53 137.5t143 50.5q89 0 142.5 -50.5t53.5 -137.5zM432 335q0 79 -48 124t-128 45q-82 0 -129 -44.5t-47 -124.5v-74h352
v74zM134 743h13q5 0 6 -3l103 -123l103 123q1 3 6 3h13q8 0 3 -6l-114 -134q-1 -3 -6 -3h-10q-5 0 -6 3l-114 134q-5 6 3 6z" />
    <glyph glyph-name="Gbreve" unicode="&#x11e;" horiz-adv-x="633" 
d="M561 85q-99 -95 -241 -95q-117 0 -181 65.5t-64 170.5v264q0 105 63.5 170t179.5 65q132 0 228 -80q5 -3 1 -7l-6 -8q-3 -3 -7 -1q-92 76 -216 76q-108 0 -165 -59t-57 -156v-264q0 -97 57.5 -156.5t166.5 -59.5q128 0 223 86v248h-221q-5 0 -5 5v10q0 5 5 5h237
q5 0 5 -5v-267q0 -4 -3 -7zM466 931q-8 -63 -47.5 -103t-101.5 -40t-101.5 40t-46.5 103q-1 4 4 6l9 2q4 1 6 -4q6 -58 39.5 -93t89.5 -35t89.5 35t39.5 93q2 5 6 4l9 -2q5 -2 5 -6z" />
    <glyph glyph-name="gbreve" unicode="&#x11f;" horiz-adv-x="527" 
d="M449 -22q0 -80 -48.5 -129t-143.5 -49q-103 0 -187 82q-3 3 0 7l5 7q3 4 7 0q80 -77 175 -77q87 0 129.5 43t42.5 116v81q-76 -39 -160 -39q-101 0 -155.5 50t-54.5 147v111q0 98 55 146.5t153 48.5t178 -35q4 -1 4 -6v-504zM79 217q0 -178 190 -178q82 0 160 40v396
q-78 29 -164 29q-90 0 -138 -44.5t-48 -131.5v-111zM407 736q-7 -60 -45 -98.5t-97 -38.5t-97 38.5t-45 98.5q-2 5 4 6l10 1q5 0 6 -4q7 -55 38.5 -88t83.5 -33t83.5 33t38.5 88q2 5 6 4l10 -1q6 0 4 -6z" />
    <glyph glyph-name="Gdotaccent" unicode="&#x120;" horiz-adv-x="633" 
d="M561 85q-99 -95 -241 -95q-117 0 -181 65.5t-64 170.5v264q0 105 63.5 170t179.5 65q132 0 228 -80q5 -3 1 -7l-6 -8q-3 -3 -7 -1q-92 76 -216 76q-108 0 -165 -59t-57 -156v-264q0 -97 57.5 -156.5t166.5 -59.5q128 0 223 86v248h-221q-5 0 -5 5v10q0 5 5 5h237
q5 0 5 -5v-267q0 -4 -3 -7zM339 859q0 -22 -22 -22t-22 22t22 22t22 -22z" />
    <glyph glyph-name="gdotaccent" unicode="&#x121;" horiz-adv-x="527" 
d="M449 -22q0 -80 -48.5 -129t-143.5 -49q-103 0 -187 82q-3 3 0 7l5 7q3 4 7 0q80 -77 175 -77q87 0 129.5 43t42.5 116v81q-76 -39 -160 -39q-101 0 -155.5 50t-54.5 147v111q0 98 55 146.5t153 48.5t178 -35q4 -1 4 -6v-504zM79 217q0 -178 190 -178q82 0 160 40v396
q-78 29 -164 29q-90 0 -138 -44.5t-48 -131.5v-111zM280 650q0 -22 -22 -22t-22 22t22 22t22 -22z" />
    <glyph glyph-name="uni0122" unicode="&#x122;" horiz-adv-x="633" 
d="M561 85q-99 -95 -241 -95q-117 0 -181 65.5t-64 170.5v264q0 105 63.5 170t179.5 65q132 0 228 -80q5 -3 1 -7l-6 -8q-3 -3 -7 -1q-92 76 -216 76q-108 0 -165 -59t-57 -156v-264q0 -97 57.5 -156.5t166.5 -59.5q128 0 223 86v248h-221q-5 0 -5 5v10q0 5 5 5h237
q5 0 5 -5v-267q0 -4 -3 -7zM298 -227h-8q-6 0 -5 6l38 144q2 4 5 4h14q6 0 4 -6l-43 -144q-2 -4 -5 -4z" />
    <glyph glyph-name="uni0123" unicode="&#x123;" horiz-adv-x="527" 
d="M449 -22q0 -80 -48.5 -129t-143.5 -49q-103 0 -187 82q-3 3 0 7l5 7q3 4 7 0q80 -77 175 -77q87 0 129.5 43t42.5 116v81q-76 -39 -160 -39q-101 0 -155.5 50t-54.5 147v111q0 98 55 146.5t153 48.5t178 -35q4 -1 4 -6v-504zM79 217q0 -178 190 -178q82 0 160 40v396
q-78 29 -164 29q-90 0 -138 -44.5t-48 -131.5v-111zM250 600h-13q-5 0 -4 6l46 144q2 4 5 4h7q5 0 4 -6l-40 -144q-2 -4 -5 -4z" />
    <glyph glyph-name="Hbar" unicode="&#x126;" horiz-adv-x="675" 
d="M573 585h72q5 0 5 -5v-10q0 -5 -5 -5h-72v-560q0 -5 -5 -5h-11q-5 0 -5 5v350h-430v-350q0 -5 -5 -5h-11q-5 0 -5 5v560h-71q-5 0 -5 5v10q0 5 5 5h71v125q0 5 5 5h11q5 0 5 -5v-125h430v125q0 5 5 5h11q5 0 5 -5v-125zM122 375h430v190h-430v-190z" />
    <glyph glyph-name="hbar" unicode="&#x127;" horiz-adv-x="546" 
d="M99 482q82 41 164 41q100 0 154.5 -50.5t54.5 -148.5v-319q0 -5 -5 -5h-10q-5 0 -5 5v319q0 180 -189 180q-83 0 -164 -42v-457q0 -5 -5 -5h-10q-5 0 -5 5v603h-78q-5 0 -5 5v9q0 5 5 5h78v83q0 5 5 5h10q5 0 5 -5v-83h187q5 0 5 -5v-9q0 -5 -5 -5h-187v-126z" />
    <glyph glyph-name="Imacron" unicode="&#x12a;" horiz-adv-x="221" 
d="M-9 858v10q0 5 5 5h229q5 0 5 -5v-10q0 -5 -5 -5h-229q-5 0 -5 5zM121 710v-705q0 -5 -5 -5h-11q-5 0 -5 5v705q0 5 5 5h11q5 0 5 -5z" />
    <glyph glyph-name="imacron" unicode="&#x12b;" horiz-adv-x="178" 
d="M179 649h-180q-5 0 -5 5v8q0 5 5 5h180q5 0 5 -5v-8q0 -5 -5 -5zM94 0h-10q-5 0 -5 5v503q0 5 5 5h10q5 0 5 -5v-503q0 -5 -5 -5z" />
    <glyph glyph-name="Iogonek" unicode="&#x12e;" horiz-adv-x="221" 
d="M112 -178q27 0 52 13q5 2 7 -3l4 -9q2 -5 -2 -6q-26 -15 -61 -15q-34 0 -53.5 20t-19.5 56q0 66 61 124v708q0 5 5 5h11q5 0 5 -5v-706q0 -4 -3 -7q-58 -58 -58 -119q0 -56 52 -56z" />
    <glyph glyph-name="iogonek" unicode="&#x12f;" horiz-adv-x="178" 
d="M162 -175q-34 -23 -74 -23q-36 0 -57 20t-21 58q0 66 69 124v504q0 5 5 5h10q5 0 5 -5v-504q0 -4 -3 -7q-66 -59 -66 -117q0 -59 59 -59q36 0 65 21q4 4 6 -2l4 -8q2 -5 -2 -7zM110 650q0 -21 -21 -21t-21 21t21 21t21 -21z" />
    <glyph glyph-name="Idotaccent" unicode="&#x130;" horiz-adv-x="221" 
d="M121 710v-705q0 -5 -5 -5h-11q-5 0 -5 5v705q0 5 5 5h11q5 0 5 -5zM133 859q0 -22 -22 -22t-22 22t22 22t22 -22z" />
    <glyph glyph-name="dotlessi" unicode="&#x131;" horiz-adv-x="178" 
d="M94 0h-10q-5 0 -5 5v503q0 5 5 5h10q5 0 5 -5v-503q0 -5 -5 -5z" />
    <glyph glyph-name="IJ" unicode="&#x132;" horiz-adv-x="724" 
d="M121 710v-705q0 -5 -5 -5h-11q-5 0 -5 5v705q0 5 5 5h11q5 0 5 -5zM629 198q0 -106 -45.5 -157t-138.5 -51q-99 0 -186 82q-3 3 -1 7l7 8q3 4 7 0q82 -77 173 -77q84 0 123.5 45t39.5 143v512q0 5 5 5h11q5 0 5 -5v-512z" />
    <glyph glyph-name="ij" unicode="&#x133;" horiz-adv-x="442" 
d="M94 0h-10q-5 0 -5 5v503q0 5 5 5h10q5 0 5 -5v-503q0 -5 -5 -5zM109 650q0 -20 -20 -20t-20 20t20 20t20 -20zM363 -39q0 -161 -120 -161q-31 0 -52 5q-5 2 -5 6v8q0 3 1 4.5t4 0.5q23 -5 52 -5q100 0 100 142v547q0 5 5 5h10q5 0 5 -5v-547zM373 650q0 -20 -20 -20
t-20 20t20 20t20 -20z" />
    <glyph glyph-name="uni0136" unicode="&#x136;" horiz-adv-x="602" 
d="M116 0h-11q-5 0 -5 5v705q0 5 5 5h11q5 0 5 -5v-408l421 410q3 3 7 3h16q9 0 3 -6l-325 -317l344 -386q5 -6 -3 -6h-16q-4 0 -6 3l-334 375l-107 -104v-269q0 -5 -5 -5zM277 -227h-8q-7 0 -5 6l38 144q2 4 5 4h14q5 0 4 -6l-43 -144q-2 -4 -5 -4z" />
    <glyph glyph-name="uni0137" unicode="&#x137;" horiz-adv-x="471" 
d="M453 0h-14q-5 0 -6 3l-248 276l-86 -74v-200q0 -5 -5 -5h-10q-5 0 -5 5v705q0 5 5 5h10q5 0 5 -5v-480l322 281q2 2 7 2h16q8 0 2 -6l-246 -215l256 -286q4 -6 -3 -6zM227 -223h-6q-7 0 -5 6l37 140q2 4 5 4h12q6 0 4 -6l-42 -140q-2 -4 -5 -4z" />
    <glyph glyph-name="Lacute" unicode="&#x139;" horiz-adv-x="489" 
d="M471 0h-367q-5 0 -5 5v705q0 5 5 5h11q5 0 5 -5v-690h351q5 0 5 -5v-10q0 -5 -5 -5zM224 927l-115 -134q-1 -3 -6 -3h-10q-7 0 -3 6l108 134q2 3 6 3h17q7 0 3 -6z" />
    <glyph glyph-name="lacute" unicode="&#x13a;" horiz-adv-x="266" 
d="M254 -5q-28 -5 -59 -5q-121 0 -121 161v559q0 5 5 5h10q5 0 5 -5v-563q0 -138 101 -138q24 0 59 5q5 0 5 -4v-9q0 -4 -5 -6zM197 927l-115 -134q-2 -3 -6 -3h-10q-7 0 -3 6l108 134q1 3 6 3h17q7 0 3 -6z" />
    <glyph glyph-name="uni013B" unicode="&#x13b;" horiz-adv-x="489" 
d="M472 0h-367q-5 0 -5 5v705q0 5 5 5h11q5 0 5 -5v-690h351q5 0 5 -5v-10q0 -5 -5 -5zM231 -227h-8q-7 0 -5 6l38 144q2 4 5 4h14q5 0 4 -6l-43 -144q-2 -4 -5 -4z" />
    <glyph glyph-name="uni013C" unicode="&#x13c;" horiz-adv-x="266" 
d="M255 -5q-28 -5 -59 -5q-121 0 -121 161v559q0 5 5 5h10q5 0 5 -5v-563q0 -138 101 -138q24 0 59 5q5 0 5 -4v-9q0 -4 -5 -6zM150 -223h-6q-6 0 -5 6l37 140q2 4 5 4h12q5 0 4 -6l-42 -140q-2 -4 -5 -4z" />
    <glyph glyph-name="Lcaron" unicode="&#x13d;" horiz-adv-x="489" 
d="M472 0h-367q-5 0 -5 5v705q0 5 5 5h11q5 0 5 -5v-690h351q5 0 5 -5v-10q0 -5 -5 -5zM325 561h-8q-7 0 -5 6l38 144q2 4 5 4h14q5 0 4 -6l-43 -144q-2 -4 -5 -4z" />
    <glyph glyph-name="lcaron" unicode="&#x13e;" horiz-adv-x="276" 
d="M255 -5q-28 -5 -59 -5q-121 0 -121 161v559q0 5 5 5h10q5 0 5 -5v-563q0 -138 101 -138q24 0 59 5q5 0 5 -4v-9q0 -4 -5 -6zM216 572h-7q-5 0 -4 6l42 133q2 4 5 4h12q6 0 4 -6l-47 -133q-2 -4 -5 -4z" />
    <glyph glyph-name="Ldot" unicode="&#x13f;" horiz-adv-x="489" 
d="M472 0h-367q-5 0 -5 5v705q0 5 5 5h11q5 0 5 -5v-690h351q5 0 5 -5v-10q0 -5 -5 -5zM313 355q0 -20 -20 -20t-20 20t20 20t20 -20z" />
    <glyph glyph-name="ldot" unicode="&#x140;" horiz-adv-x="278" 
d="M255 -5q-28 -5 -59 -5q-121 0 -121 161v559q0 5 5 5h10q5 0 5 -5v-563q0 -138 101 -138q24 0 59 5q5 0 5 -4v-9q0 -4 -5 -6zM244 325q0 -20 -20 -20t-20 20t20 20t20 -20z" />
    <glyph glyph-name="Lslash" unicode="&#x141;" horiz-adv-x="491" 
d="M123 322v-302h351q5 0 5 -5v-10q0 -5 -5 -5h-367q-5 0 -5 5v303l-76 -51q-6 -5 -6 3v13q0 3 3 6l79 53v378q0 5 5 5h11q5 0 5 -5v-364l172 116q6 4 6 -3v-13q0 -3 -3 -6z" />
    <glyph glyph-name="lslash" unicode="&#x142;" horiz-adv-x="345" 
d="M300 -5q-28 -5 -59 -5q-121 0 -121 161v162l-88 -64q-6 -5 -6 4v11q0 4 3 6l91 66v374q0 5 5 5h10q5 0 5 -5v-360l154 113q6 4 6 -4v-11q0 -4 -3 -6l-157 -115v-180q0 -138 101 -138q24 0 59 5q5 0 5 -4v-9q0 -4 -5 -6z" />
    <glyph glyph-name="Nacute" unicode="&#x143;" horiz-adv-x="699" 
d="M116 0h-11q-5 0 -5 5v705q0 5 5 5h14q5 0 6 -3l453 -678v676q0 5 5 5h11q5 0 5 -5v-705q0 -5 -5 -5h-14q-4 0 -6 3l-453 678v-676q0 -5 -5 -5zM451 927l-115 -134q-2 -3 -6 -3h-10q-7 0 -3 6l108 134q1 3 6 3h17q7 0 3 -6z" />
    <glyph glyph-name="nacute" unicode="&#x144;" horiz-adv-x="545" 
d="M93 0h-10q-5 0 -5 5v474q0 5 4 6q84 38 180 38q100 0 154.5 -51t54.5 -148v-319q0 -5 -5 -5h-10q-5 0 -5 5v319q0 89 -49 134.5t-140 45.5q-85 0 -164 -32v-467q0 -5 -5 -5zM236 600h-8q-9 0 -4 6l83 134q1 3 6 3h15q6 0 3 -6l-89 -134q-2 -3 -6 -3z" />
    <glyph glyph-name="uni0145" unicode="&#x145;" horiz-adv-x="699" 
d="M116 0h-11q-5 0 -5 5v705q0 5 5 5h14q5 0 6 -3l453 -678v676q0 5 5 5h11q5 0 5 -5v-705q0 -5 -5 -5h-14q-4 0 -6 3l-453 678v-676q0 -5 -5 -5zM326 -227h-8q-6 0 -5 6l38 144q2 4 5 4h14q6 0 4 -6l-43 -144q-2 -4 -5 -4z" />
    <glyph glyph-name="uni0146" unicode="&#x146;" horiz-adv-x="545" 
d="M93 0h-10q-5 0 -5 5v474q0 5 4 6q84 38 180 38q100 0 154.5 -51t54.5 -148v-319q0 -5 -5 -5h-10q-5 0 -5 5v319q0 89 -49 134.5t-140 45.5q-85 0 -164 -32v-467q0 -5 -5 -5zM245 -223h-6q-7 0 -5 6l37 140q2 4 5 4h12q6 0 4 -6l-42 -140q-2 -4 -5 -4z" />
    <glyph glyph-name="Ncaron" unicode="&#x147;" horiz-adv-x="699" 
d="M116 0h-11q-5 0 -5 5v705q0 5 5 5h14q5 0 6 -3l453 -678v676q0 5 5 5h11q5 0 5 -5v-705q0 -5 -5 -5h-14q-4 0 -6 3l-453 678v-676q0 -5 -5 -5zM208 933h12q4 0 7 -3l123 -121l123 121q3 3 7 3h12q9 0 3 -6l-131 -134q-3 -3 -7 -3h-14q-4 0 -7 3l-131 134q-6 6 3 6z" />
    <glyph glyph-name="ncaron" unicode="&#x148;" horiz-adv-x="545" 
d="M93 0h-10q-5 0 -5 5v474q0 5 4 6q84 38 180 38q100 0 154.5 -51t54.5 -148v-319q0 -5 -5 -5h-10q-5 0 -5 5v319q0 89 -49 134.5t-140 45.5q-85 0 -164 -32v-467q0 -5 -5 -5zM145 743h13q4 0 6 -3l103 -123l103 123q2 3 6 3h13q7 0 3 -6l-114 -134q-2 -3 -6 -3h-10
q-4 0 -6 3l-114 134q-5 6 3 6z" />
    <glyph glyph-name="Eng" unicode="&#x14a;" horiz-adv-x="699" 
d="M578 710q0 5 5 5h11q5 0 5 -5v-719q0 -106 -26.5 -148t-92.5 -42q-2 0 -44 3q-5 2 -5 6v10q0 6 5 4q22 -3 41 -3q59 0 80 38.5t21 137.5l-457 683v-675q0 -5 -5 -5h-11q-5 0 -5 5v705q0 5 5 5h14q5 0 6 -3l453 -679v677z" />
    <glyph glyph-name="eng" unicode="&#x14b;" horiz-adv-x="545" 
d="M471 -39q0 -161 -120 -161q-31 0 -52 5q-5 2 -5 6v8q0 3 1 4.5t4 0.5q23 -5 52 -5q100 0 100 142v363q0 89 -49 134.5t-140 45.5q-85 0 -164 -32v-467q0 -5 -5 -5h-10q-5 0 -5 5v474q0 3 3 6q85 38 181 38q100 0 154.5 -51t54.5 -148v-363z" />
    <glyph glyph-name="Omacron" unicode="&#x14c;" horiz-adv-x="666" 
d="M591 218q0 -98 -72 -163t-186 -65t-186 65t-72 163v270q0 105 71 171t187 66t187 -66t71 -171v-270zM96 218q0 -90 65.5 -149t171.5 -59t171.5 59t65.5 149v270q0 97 -65 157t-172 60t-172 -60t-65 -157v-270zM457 845h-249q-5 0 -5 5v10q0 5 5 5h249q5 0 5 -5v-10
q0 -5 -5 -5z" />
    <glyph glyph-name="omacron" unicode="&#x14d;" horiz-adv-x="530" 
d="M470 176q0 -81 -53.5 -133.5t-151.5 -52.5t-151.5 52.5t-53.5 133.5v162q0 80 54 132.5t151 52.5q98 0 151.5 -52.5t53.5 -132.5v-162zM80 176q0 -73 48 -120t137 -47q90 0 137.5 47t47.5 120v162q0 72 -47.5 119t-137.5 47q-89 0 -137 -47t-48 -119v-162zM145 659v8
q0 5 5 5h230q5 0 5 -5v-8q0 -5 -5 -5h-230q-5 0 -5 5z" />
    <glyph glyph-name="Ohungarumlaut" unicode="&#x150;" horiz-adv-x="666" 
d="M591 218q0 -98 -72 -163t-186 -65t-186 65t-72 163v270q0 105 71 171t187 66t187 -66t71 -171v-270zM96 218q0 -90 65.5 -149t171.5 -59t171.5 59t65.5 149v270q0 97 -65 157t-172 60t-172 -60t-65 -157v-270zM235 790h-9q-7 0 -3 6l109 134q2 3 6 3h17q7 0 3 -6
l-117 -134q-1 -3 -6 -3zM389 790h-9q-7 0 -3 6l109 134q2 3 6 3h17q7 0 3 -6l-117 -134q-1 -3 -6 -3z" />
    <glyph glyph-name="ohungarumlaut" unicode="&#x151;" horiz-adv-x="530" 
d="M470 176q0 -81 -53.5 -133.5t-151.5 -52.5t-151.5 52.5t-53.5 133.5v162q0 80 54 132.5t151 52.5q98 0 151.5 -52.5t53.5 -132.5v-162zM80 176q0 -73 48 -120t137 -47q90 0 137.5 47t47.5 120v162q0 72 -47.5 119t-137.5 47q-89 0 -137 -47t-48 -119v-162zM196 600h-9
q-7 0 -4 6l77 134q2 3 6 3h15q6 0 3 -6l-82 -134q-2 -3 -6 -3zM309 600h-9q-7 0 -4 6l77 134q1 3 6 3h15q6 0 3 -6l-82 -134q-1 -3 -6 -3z" />
    <glyph glyph-name="OE" unicode="&#x152;" horiz-adv-x="1005" 
d="M551 0q-5 0 -5 5v122q-23 -61 -83 -99t-137 -38q-112 0 -181.5 68t-69.5 172v246q0 111 69 180t182 69q78 0 137.5 -38.5t82.5 -102.5v126q0 5 5 5h387q5 0 5 -5v-10q0 -5 -5 -5h-371v-320h351q5 0 5 -5v-10q0 -5 -5 -5h-351v-335h386q5 0 5 -5v-10q0 -5 -5 -5h-402z
M96 230q0 -96 63.5 -158t166.5 -62q98 0 159 60t61 150v266q0 96 -60.5 157.5t-159.5 61.5q-105 0 -167.5 -63t-62.5 -166v-246z" />
    <glyph glyph-name="oe" unicode="&#x153;" horiz-adv-x="895" 
d="M646 -10q-65 0 -116.5 32.5t-69.5 89.5q-19 -56 -68.5 -89t-126.5 -33q-98 0 -151.5 52.5t-53.5 133.5v162q0 80 54 132.5t151 52.5q76 0 126.5 -34t68.5 -89q17 59 66.5 91t119.5 32q89 0 142.5 -50.5t53.5 -137.5v-88q0 -5 -5 -5h-367v-71q0 -74 51 -118t125 -44
q95 0 174 75q4 3 7 -1l6 -6q4 -4 0 -7q-84 -80 -187 -80zM80 176q0 -73 48 -120t137 -47q90 0 137.5 46.5t47.5 120.5v162q0 72 -47.5 119t-137.5 47q-89 0 -137 -47t-48 -119v-162zM470 335v-74h352v74q0 79 -48 124t-128 45q-82 0 -129 -44.5t-47 -124.5z" />
    <glyph glyph-name="Racute" unicode="&#x154;" horiz-adv-x="616" 
d="M564 0h-15q-5 0 -6 3l-239 307h-183v-305q0 -5 -5 -5h-11q-5 0 -5 5v705q0 5 5 5h218q109 0 172 -54t63 -149q0 -93 -60.5 -146.5t-167.5 -55.5l237 -304q4 -6 -3 -6zM323 695h-202v-365h202q101 0 157.5 47.5t56.5 134.5t-57 135t-157 48zM391 927l-115 -134
q-2 -3 -6 -3h-10q-7 0 -3 6l108 134q1 3 6 3h17q7 0 3 -6z" />
    <glyph glyph-name="racute" unicode="&#x155;" horiz-adv-x="372" 
d="M93 0h-10q-5 0 -5 5v478q0 5 4 6q74 34 167 34q45 0 101 -9q5 -1 5 -6v-9q0 -6 -5 -4q-58 9 -101 9q-79 0 -151 -28v-471q0 -5 -5 -5zM184 600h-8q-8 0 -4 6l83 134q1 3 6 3h15q6 0 3 -6l-89 -134q-2 -3 -6 -3z" />
    <glyph glyph-name="uni0156" unicode="&#x156;" horiz-adv-x="616" 
d="M564 0h-15q-5 0 -6 3l-239 307h-183v-305q0 -5 -5 -5h-11q-5 0 -5 5v705q0 5 5 5h218q109 0 172 -54t63 -149q0 -93 -60.5 -146.5t-167.5 -55.5l237 -304q4 -6 -3 -6zM323 695h-202v-365h202q101 0 157.5 47.5t56.5 134.5t-57 135t-157 48zM282 -227h-8q-6 0 -5 6l38 144
q2 4 5 4h14q6 0 4 -6l-43 -144q-2 -4 -5 -4z" />
    <glyph glyph-name="uni0157" unicode="&#x157;" horiz-adv-x="372" 
d="M93 0h-10q-5 0 -5 5v478q0 5 4 6q74 34 167 34q45 0 101 -9q5 -1 5 -6v-9q0 -6 -5 -4q-58 9 -101 9q-79 0 -151 -28v-471q0 -5 -5 -5zM65 -223h-6q-7 0 -5 6l37 140q2 4 5 4h12q6 0 4 -6l-42 -140q-2 -4 -5 -4z" />
    <glyph glyph-name="Rcaron" unicode="&#x158;" horiz-adv-x="616" 
d="M564 0h-15q-5 0 -6 3l-239 307h-183v-305q0 -5 -5 -5h-11q-5 0 -5 5v705q0 5 5 5h218q109 0 172 -54t63 -149q0 -93 -60.5 -146.5t-167.5 -55.5l237 -304q4 -6 -3 -6zM323 695h-202v-365h202q101 0 157.5 47.5t56.5 134.5t-57 135t-157 48zM150 933h12q4 0 7 -3l123 -121
l123 121q3 3 7 3h12q9 0 3 -6l-131 -134q-3 -3 -7 -3h-14q-4 0 -7 3l-131 134q-6 6 3 6z" />
    <glyph glyph-name="rcaron" unicode="&#x159;" horiz-adv-x="372" 
d="M93 0h-10q-5 0 -5 5v478q0 5 4 6q74 34 167 34q45 0 101 -9q5 -1 5 -6v-9q0 -6 -5 -4q-58 9 -101 9q-79 0 -151 -28v-471q0 -5 -5 -5zM94 743h13q5 0 6 -3l103 -123l103 123q1 3 6 3h13q8 0 3 -6l-114 -134q-1 -3 -6 -3h-10q-5 0 -6 3l-114 134q-4 6 3 6z" />
    <glyph glyph-name="Sacute" unicode="&#x15a;" horiz-adv-x="589" 
d="M541 176q0 -88 -64.5 -137t-176.5 -49q-74 0 -130 22t-114 72q-5 3 -1 7l7 8q3 3 7 1q56 -47 110 -68.5t121 -21.5q102 0 161 42.5t59 123.5q0 71 -49 110t-177 69q-121 28 -178.5 76t-57.5 124q0 83 65.5 126.5t164.5 43.5q133 0 233 -80q3 -2 1 -7l-5 -8q-4 -5 -7 -2
q-93 77 -225 77q-88 0 -147 -38.5t-59 -112.5q0 -69 52.5 -110.5t166.5 -68.5q137 -33 190 -78t53 -121zM398 927l-115 -134q-1 -3 -6 -3h-10q-7 0 -3 6l108 134q2 3 6 3h17q7 0 3 -6z" />
    <glyph glyph-name="sacute" unicode="&#x15b;" horiz-adv-x="459" 
d="M418 131q0 -63 -48.5 -102t-137.5 -39q-105 0 -188 64q-5 3 -1 7l5 8q3 3 7 1q81 -61 177 -61q76 0 121 32t45 90q0 25 -11 45t-24 31.5t-39.5 21t-43 14t-48.5 10.5q-37 7 -65 16.5t-57 25.5t-44.5 42t-15.5 60q0 57 47.5 91.5t123.5 34.5q91 0 177 -49q4 -4 1 -7l-4 -8
q-2 -4 -7 -1q-80 46 -167 46q-66 0 -108.5 -28.5t-42.5 -78.5q0 -24 10 -43.5t25 -31.5t38.5 -22.5t44 -16t48.5 -11.5q34 -7 55 -13t48 -17t42 -24.5t26 -36t11 -50.5zM202 600h-8q-8 0 -4 6l83 134q1 3 6 3h15q6 0 3 -6l-89 -134q-2 -3 -6 -3z" />
    <glyph glyph-name="Scedilla" unicode="&#x15e;" horiz-adv-x="589" 
d="M541 176q0 -86 -63 -135t-172 -51l-19 -52q94 0 94 -67q0 -33 -25.5 -53.5t-69.5 -20.5q-32 0 -61 10q-4 1 -4 6v8q0 5 6 4q30 -10 59 -10q37 0 56.5 15t19.5 42q0 26 -20.5 38t-69.5 13q-4 0 -6 3q-3 3 -1 6l22 58q-127 4 -231 94q-5 3 -1 7l7 8q3 3 7 1
q56 -47 110 -68.5t121 -21.5q102 0 161 42.5t59 123.5q0 71 -49 110t-177 69q-121 28 -178.5 76t-57.5 124q0 83 65.5 126.5t164.5 43.5q133 0 233 -80q3 -2 1 -7l-5 -8q-4 -5 -7 -2q-93 77 -225 77q-88 0 -147 -38.5t-59 -112.5q0 -69 52.5 -110.5t166.5 -68.5
q137 -33 190 -78t53 -121z" />
    <glyph glyph-name="scedilla" unicode="&#x15f;" horiz-adv-x="459" 
d="M320 -128q0 -33 -25 -53.5t-69 -20.5q-30 0 -59 9q-4 1 -4 6v8q0 5 6 4q30 -9 57 -9q36 0 55 15t19 41q0 27 -20 39t-67 13q-5 0 -6 3q-3 3 -1 6l20 57q-102 1 -182 64q-5 3 -1 7l5 8q3 3 7 1q81 -61 177 -61q76 0 121 32t45 90q0 25 -11 45t-24 31.5t-39.5 21t-43 14
t-48.5 10.5q-37 7 -65 16.5t-57 25.5t-44.5 42t-15.5 60q0 57 47.5 91.5t123.5 34.5q91 0 177 -49q4 -4 1 -7l-4 -8q-2 -4 -7 -1q-80 46 -167 46q-66 0 -108.5 -28.5t-42.5 -78.5q0 -24 10 -43.5t25 -31.5t38.5 -22.5t44 -16t48.5 -11.5q34 -7 55 -13t48 -17t42 -24.5
t26 -36t11 -50.5q0 -61 -44.5 -99t-127.5 -41l-18 -52q92 0 92 -67z" />
    <glyph glyph-name="Scaron" unicode="&#x160;" horiz-adv-x="589" 
d="M541 176q0 -88 -64.5 -137t-176.5 -49q-74 0 -130 22t-114 72q-5 3 -1 7l7 8q3 3 7 1q56 -47 110 -68.5t121 -21.5q102 0 161 42.5t59 123.5q0 71 -49 110t-177 69q-121 28 -178.5 76t-57.5 124q0 83 65.5 126.5t164.5 43.5q133 0 233 -80q3 -2 1 -7l-5 -8q-4 -5 -7 -2
q-93 77 -225 77q-88 0 -147 -38.5t-59 -112.5q0 -69 52.5 -110.5t166.5 -68.5q137 -33 190 -78t53 -121zM150 933h12q4 0 7 -3l123 -121l123 121q3 3 7 3h12q9 0 3 -6l-131 -134q-3 -3 -7 -3h-14q-4 0 -7 3l-131 134q-6 6 3 6z" />
    <glyph glyph-name="scaron" unicode="&#x161;" horiz-adv-x="459" 
d="M418 131q0 -63 -48.5 -102t-137.5 -39q-105 0 -188 64q-5 3 -1 7l5 8q3 3 7 1q81 -61 177 -61q76 0 121 32t45 90q0 25 -11 45t-24 31.5t-39.5 21t-43 14t-48.5 10.5q-37 7 -65 16.5t-57 25.5t-44.5 42t-15.5 60q0 57 47.5 91.5t123.5 34.5q91 0 177 -49q4 -4 1 -7l-4 -8
q-2 -4 -7 -1q-80 46 -167 46q-66 0 -108.5 -28.5t-42.5 -78.5q0 -24 10 -43.5t25 -31.5t38.5 -22.5t44 -16t48.5 -11.5q34 -7 55 -13t48 -17t42 -24.5t26 -36t11 -50.5zM109 743h13q4 0 6 -3l103 -123l103 123q2 3 6 3h13q7 0 3 -6l-114 -134q-2 -3 -6 -3h-10q-4 0 -6 3
l-114 134q-5 6 3 6z" />
    <glyph glyph-name="uni0162" unicode="&#x162;" horiz-adv-x="527" 
d="M237 -227h-8q-7 0 -5 6l38 144q2 4 5 4h14q5 0 4 -6l-43 -144q-2 -4 -5 -4zM17 715h493q5 0 5 -5v-10q0 -5 -5 -5h-238v-690q0 -5 -5 -5h-11q-5 0 -5 5v690h-234q-5 0 -5 5v10q0 5 5 5z" />
    <glyph glyph-name="uni0163" unicode="&#x163;" horiz-adv-x="298" 
d="M159 -223h-6q-7 0 -5 6l37 140q2 4 5 4h12q6 0 4 -6l-42 -140q-2 -4 -5 -4zM95 151q0 -67 33 -103.5t96 -36.5q32 0 62 3q5 2 5 -4v-9q0 -4 -5 -6q-30 -3 -62 -3q-71 0 -110 42.5t-39 116.5v487q0 5 5 5h10q5 0 5 -5v-125h178q5 0 5 -5v-9q0 -5 -5 -5h-178v-343z" />
    <glyph glyph-name="Tcaron" unicode="&#x164;" horiz-adv-x="527" 
d="M17 715h493q5 0 5 -5v-10q0 -5 -5 -5h-238v-690q0 -5 -5 -5h-11q-5 0 -5 5v690h-234q-5 0 -5 5v10q0 5 5 5zM119 933h12q4 0 7 -3l123 -121l123 121q3 3 7 3h12q9 0 3 -6l-131 -134q-3 -3 -7 -3h-14q-4 0 -7 3l-131 134q-6 6 3 6z" />
    <glyph glyph-name="tcaron" unicode="&#x165;" horiz-adv-x="298" 
d="M286 -5q-30 -3 -62 -3q-71 0 -110 42.5t-39 116.5v487q0 5 5 5h10q5 0 5 -5v-125h178q5 0 5 -5v-9q0 -5 -5 -5h-178v-343q0 -67 33 -103.5t96 -36.5q32 0 62 3q5 2 5 -4v-9q0 -4 -5 -6zM222 593h-6q-6 0 -5 6l37 140q2 4 5 4h12q5 0 4 -6l-42 -140q-2 -4 -5 -4z" />
    <glyph glyph-name="Tbar" unicode="&#x166;" horiz-adv-x="544" 
d="M276 0h-11q-5 0 -5 5v334h-156q-5 0 -5 5v10q0 5 5 5h156v336h-234q-5 0 -5 5v10q0 5 5 5h493q5 0 5 -5v-10q0 -5 -5 -5h-238v-336h156q5 0 5 -5v-10q0 -5 -5 -5h-156v-334q0 -5 -5 -5z" />
    <glyph glyph-name="tbar" unicode="&#x167;" horiz-adv-x="300" 
d="M288 -5q-30 -3 -62 -3q-71 0 -110 42.5t-39 116.5v120h-52q-5 0 -5 5v9q0 5 5 5h52v348q0 5 5 5h10q5 0 5 -5v-125h178q5 0 5 -5v-9q0 -5 -5 -5h-178v-204h135q5 0 5 -5v-9q0 -5 -5 -5h-135v-120q0 -67 33 -103.5t96 -36.5q32 0 62 3q5 2 5 -4v-9q0 -4 -5 -6z" />
    <glyph glyph-name="Umacron" unicode="&#x16a;" horiz-adv-x="670" 
d="M576 240q0 -112 -63.5 -180t-177.5 -68t-177.5 68t-63.5 180v470q0 5 5 5h11q5 0 5 -5v-470q0 -104 57.5 -166t162.5 -62t162.5 62t57.5 166v470q0 5 5 5h11q5 0 5 -5v-470zM459 845h-249q-5 0 -5 5v10q0 5 5 5h249q5 0 5 -5v-10q0 -5 -5 -5z" />
    <glyph glyph-name="umacron" unicode="&#x16b;" horiz-adv-x="537" 
d="M444 513h10q5 0 5 -5v-474q0 -5 -4 -6q-82 -38 -176 -38q-98 0 -151.5 51t-53.5 148v319q0 5 5 5h10q5 0 5 -5v-319q0 -88 48 -134t137 -46q76 0 160 32v467q0 5 5 5zM146 659v8q0 5 5 5h230q5 0 5 -5v-8q0 -5 -5 -5h-230q-5 0 -5 5z" />
    <glyph glyph-name="Uring" unicode="&#x16e;" horiz-adv-x="670" 
d="M576 240q0 -112 -63.5 -180t-177.5 -68t-177.5 68t-63.5 180v470q0 5 5 5h11q5 0 5 -5v-470q0 -104 57.5 -166t162.5 -62t162.5 62t57.5 166v470q0 5 5 5h11q5 0 5 -5v-470zM429 866q0 -40 -26 -64.5t-67 -24.5q-43 0 -69 24.5t-26 64.5q0 39 26 63.5t69 24.5
q41 0 67 -24.5t26 -63.5zM260 866q0 -32 20.5 -51.5t55.5 -19.5t54.5 19.5t19.5 51.5q0 31 -19.5 50.5t-54.5 19.5t-55.5 -19.5t-20.5 -50.5z" />
    <glyph glyph-name="uring" unicode="&#x16f;" horiz-adv-x="537" 
d="M444 513h10q5 0 5 -5v-474q0 -5 -4 -6q-82 -38 -176 -38q-98 0 -151.5 51t-53.5 148v319q0 5 5 5h10q5 0 5 -5v-319q0 -88 48 -134t137 -46q76 0 160 32v467q0 5 5 5zM360 677q0 -39 -26 -65t-68 -26t-68 26t-26 65t26 65.5t68 26.5t68 -26.5t26 -65.5zM191 677
q0 -33 20.5 -53t55.5 -20t54.5 20t19.5 53t-19.5 53.5t-54.5 20.5t-55.5 -20.5t-20.5 -53.5z" />
    <glyph glyph-name="Uhungarumlaut" unicode="&#x170;" horiz-adv-x="670" 
d="M576 240q0 -112 -63.5 -180t-177.5 -68t-177.5 68t-63.5 180v470q0 5 5 5h11q5 0 5 -5v-470q0 -104 57.5 -166t162.5 -62t162.5 62t57.5 166v470q0 5 5 5h11q5 0 5 -5v-470zM237 790h-9q-7 0 -3 6l109 134q2 3 6 3h17q7 0 3 -6l-117 -134q-1 -3 -6 -3zM391 790h-9
q-7 0 -3 6l109 134q2 3 6 3h17q7 0 3 -6l-117 -134q-1 -3 -6 -3z" />
    <glyph glyph-name="uhungarumlaut" unicode="&#x171;" horiz-adv-x="537" 
d="M444 513h10q5 0 5 -5v-474q0 -5 -4 -6q-82 -38 -176 -38q-98 0 -151.5 51t-53.5 148v319q0 5 5 5h10q5 0 5 -5v-319q0 -88 48 -134t137 -46q76 0 160 32v467q0 5 5 5zM197 600h-9q-7 0 -4 6l77 134q1 3 6 3h15q6 0 3 -6l-82 -134q-1 -3 -6 -3zM310 600h-9q-7 0 -4 6
l77 134q2 3 6 3h15q6 0 3 -6l-82 -134q-2 -3 -6 -3z" />
    <glyph glyph-name="Uogonek" unicode="&#x172;" horiz-adv-x="670" 
d="M480 -180q-31 -18 -73 -18q-31 0 -49.5 18.5t-18.5 52.5q0 66 77 132v1q-39 -14 -81 -14q-106 0 -173.5 65.5t-67.5 163.5v489q0 5 5 5h11q5 0 5 -5v-489q0 -89 61 -149t159 -60t159 60t61 149v489q0 5 5 5h11q5 0 5 -5v-489q0 -121 -108 -195q-53 -36 -80.5 -77
t-27.5 -76q0 -51 48 -51q37 0 62 15q5 3 7 -2l4 -9q2 -4 -1 -6z" />
    <glyph glyph-name="uogonek" unicode="&#x173;" horiz-adv-x="537" 
d="M440 -175q-34 -23 -74 -23q-36 0 -57 19t-21 55q0 35 29 70t80 63q-56 -19 -117 -19q-99 0 -152.5 50t-53.5 147v321q0 5 5 5h10q5 0 5 -5v-321q0 -88 47.5 -133t138.5 -45q77 0 159 29v470q0 5 5 5h10q5 0 5 -5v-478q0 -5 -4 -6q-59 -27 -103 -67.5t-44 -80.5
q0 -55 58 -55q33 0 65 21q5 2 6 -2l5 -8q2 -5 -2 -7z" />
    <glyph glyph-name="Wcircumflex" unicode="&#x174;" horiz-adv-x="928" 
d="M244 0h-16q-3 0 -5 4l-207 705q-2 6 4 6h12q3 0 5 -4l199 -683l217 669q2 4 5 4h12q3 0 5 -4l217 -669l199 683q2 4 5 4h12q6 0 4 -6l-207 -705q-2 -4 -5 -4h-16q-3 0 -5 4l-215 662l-215 -662q-2 -4 -5 -4zM334 790h-12q-9 0 -3 6l131 134q3 3 7 3h14q4 0 7 -3l131 -134
q6 -6 -3 -6h-12q-4 0 -7 3l-123 121l-123 -121q-3 -3 -7 -3z" />
    <glyph glyph-name="wcircumflex" unicode="&#x175;" horiz-adv-x="738" 
d="M191 0q-3 0 -5 4l-162 503q-2 6 4 6h11q3 0 5 -4l155 -481l158 469q2 4 5 4h14q3 0 5 -4l158 -469l155 481q2 4 5 4h11q6 0 4 -6l-162 -503q-2 -4 -5 -4h-15q-3 0 -5 4l-158 469l-158 -469q-2 -4 -5 -4h-15zM260 600h-13q-7 0 -3 6l114 134q2 3 6 3h10q4 0 6 -3l114 -134
q4 -6 -3 -6h-13q-4 0 -6 3l-103 123l-103 -123q-2 -3 -6 -3z" />
    <glyph glyph-name="Ycircumflex" unicode="&#x176;" horiz-adv-x="529" 
d="M270 0h-11q-5 0 -5 5v281l-242 423q-3 6 4 6h12q4 0 6 -3l231 -404l231 404q2 3 6 3h12q7 0 4 -6l-243 -423v-281q0 -5 -5 -5zM135 790h-12q-9 0 -3 6l131 134q3 3 7 3h14q4 0 7 -3l131 -134q6 -6 -3 -6h-12q-4 0 -7 3l-123 121l-123 -121q-3 -3 -7 -3z" />
    <glyph glyph-name="ycircumflex" unicode="&#x177;" horiz-adv-x="538" 
d="M439 78v430q0 5 5 5h10q5 0 5 -5v-530q0 -80 -47.5 -129t-141.5 -49q-98 0 -185 80q-3 4 0 7l6 7q3 4 7 0q82 -75 172 -75q86 0 127.5 43t41.5 116v80q-70 -38 -159 -38q-97 0 -151.5 48.5t-54.5 142.5v297q0 5 5 5h10q5 0 5 -5v-297q0 -86 49 -129t138 -43q85 0 158 39z
M162 600h-13q-8 0 -3 6l114 134q2 3 6 3h10q4 0 6 -3l114 -134q4 -6 -3 -6h-13q-4 0 -6 3l-103 123l-103 -123q-2 -3 -6 -3z" />
    <glyph glyph-name="Ydieresis" unicode="&#x178;" horiz-adv-x="529" 
d="M270 0h-11q-5 0 -5 5v281l-242 423q-3 6 4 6h12q4 0 6 -3l231 -404l231 404q2 3 6 3h12q7 0 4 -6l-243 -423v-281q0 -5 -5 -5zM186 859q0 -20 -20 -20t-20 20t20 20t20 -20zM384 859q0 -20 -20 -20t-20 20t20 20t20 -20z" />
    <glyph glyph-name="Zacute" unicode="&#x179;" horiz-adv-x="546" 
d="M507 0h-470q-5 0 -5 5v5q0 2 2 6l444 679h-427q-5 0 -5 5v10q0 5 5 5h450q5 0 5 -5v-7q0 -2 -2 -6l-443 -677h446q5 0 5 -5v-10q0 -5 -5 -5zM371 927l-115 -134q-2 -3 -6 -3h-10q-7 0 -3 6l108 134q1 3 6 3h17q8 0 3 -6z" />
    <glyph glyph-name="zacute" unicode="&#x17a;" horiz-adv-x="442" 
d="M408 0h-374q-5 0 -5 5v7q0 2 2 6l345 476h-327q-5 0 -5 5v9q0 5 5 5h350q5 0 5 -5v-6q0 -2 -2 -6l-346 -477h352q5 0 5 -5v-9q0 -5 -5 -5zM192 600h-8q-8 0 -4 6l83 134q1 3 6 3h15q6 0 3 -6l-89 -134q-2 -3 -6 -3z" />
    <glyph glyph-name="Zdotaccent" unicode="&#x17b;" horiz-adv-x="546" 
d="M507 0h-470q-5 0 -5 5v5q0 2 2 6l444 679h-427q-5 0 -5 5v10q0 5 5 5h450q5 0 5 -5v-7q0 -2 -2 -6l-443 -677h446q5 0 5 -5v-10q0 -5 -5 -5zM292 859q0 -22 -22 -22t-22 22t22 22t22 -22z" />
    <glyph glyph-name="zdotaccent" unicode="&#x17c;" horiz-adv-x="442" 
d="M408 0h-374q-5 0 -5 5v7q0 2 2 6l345 476h-327q-5 0 -5 5v9q0 5 5 5h350q5 0 5 -5v-6q0 -2 -2 -6l-346 -477h352q5 0 5 -5v-9q0 -5 -5 -5zM245 650q0 -22 -22 -22t-22 22t22 22t22 -22z" />
    <glyph glyph-name="Zcaron" unicode="&#x17d;" horiz-adv-x="546" 
d="M507 0h-470q-5 0 -5 5v5q0 2 2 6l444 679h-427q-5 0 -5 5v10q0 5 5 5h450q5 0 5 -5v-7q0 -2 -2 -6l-443 -677h446q5 0 5 -5v-10q0 -5 -5 -5zM128 933h12q4 0 7 -3l123 -121l123 121q3 3 7 3h12q9 0 3 -6l-131 -134q-3 -3 -7 -3h-14q-4 0 -7 3l-131 134q-6 6 3 6z" />
    <glyph glyph-name="zcaron" unicode="&#x17e;" horiz-adv-x="442" 
d="M408 0h-374q-5 0 -5 5v7q0 2 2 6l345 476h-327q-5 0 -5 5v9q0 5 5 5h350q5 0 5 -5v-6q0 -2 -2 -6l-346 -477h352q5 0 5 -5v-9q0 -5 -5 -5zM101 743h13q4 0 6 -3l103 -123l103 123q2 3 6 3h13q7 0 3 -6l-114 -134q-2 -3 -6 -3h-10q-4 0 -6 3l-114 134q-5 6 3 6z" />
    <glyph glyph-name="florin" unicode="&#x192;" horiz-adv-x="424" 
d="M138 1q-25 -129 -100 -129q-31 0 -62 12q-5 2 -3 7l3 8q2 5 7 3q23 -11 54 -11q34 0 52 27t30 91l64 342h-100q-5 0 -5 5v9q0 5 5 5h104l40 215q13 72 37.5 106t78.5 34q28 0 61 -11q5 -2 3 -7l-2 -9q-1 -5 -6 -3q-29 11 -59 11q-42 0 -61.5 -29t-32.5 -98l-39 -209h113
q5 0 5 -5v-9q0 -5 -5 -5h-116z" />
    <glyph glyph-name="uni0218" unicode="&#x218;" horiz-adv-x="589" 
d="M541 176q0 -88 -64.5 -137t-176.5 -49q-74 0 -130 22t-114 72q-5 3 -1 7l7 8q3 3 7 1q56 -47 110 -68.5t121 -21.5q102 0 161 42.5t59 123.5q0 71 -49 110t-177 69q-121 28 -178.5 76t-57.5 124q0 83 65.5 126.5t164.5 43.5q133 0 233 -80q3 -2 1 -7l-5 -8q-4 -5 -7 -2
q-93 77 -225 77q-88 0 -147 -38.5t-59 -112.5q0 -69 52.5 -110.5t166.5 -68.5q137 -33 190 -78t53 -121zM273 -227h-8q-7 0 -5 6l38 144q2 4 5 4h14q5 0 4 -6l-43 -144q-2 -4 -5 -4z" />
    <glyph glyph-name="uni0219" unicode="&#x219;" horiz-adv-x="459" 
d="M418 131q0 -63 -48.5 -102t-137.5 -39q-105 0 -188 64q-5 3 -1 7l5 8q3 3 7 1q81 -61 177 -61q76 0 121 32t45 90q0 25 -11 45t-24 31.5t-39.5 21t-43 14t-48.5 10.5q-37 7 -65 16.5t-57 25.5t-44.5 42t-15.5 60q0 57 47.5 91.5t123.5 34.5q91 0 177 -49q4 -4 1 -7l-4 -8
q-2 -4 -7 -1q-80 46 -167 46q-66 0 -108.5 -28.5t-42.5 -78.5q0 -24 10 -43.5t25 -31.5t38.5 -22.5t44 -16t48.5 -11.5q34 -7 55 -13t48 -17t42 -24.5t26 -36t11 -50.5zM200 -223h-6q-6 0 -5 6l37 140q2 4 5 4h12q5 0 4 -6l-42 -140q-2 -4 -5 -4z" />
    <glyph glyph-name="uni021A" unicode="&#x21a;" horiz-adv-x="527" 
d="M17 715h493q5 0 5 -5v-10q0 -5 -5 -5h-238v-690q0 -5 -5 -5h-11q-5 0 -5 5v690h-234q-5 0 -5 5v10q0 5 5 5zM237 -227h-8q-7 0 -5 6l38 144q2 4 5 4h14q5 0 4 -6l-43 -144q-2 -4 -5 -4z" />
    <glyph glyph-name="uni021B" unicode="&#x21b;" horiz-adv-x="298" 
d="M95 151q0 -67 33 -103.5t96 -36.5q32 0 62 3q5 2 5 -4v-9q0 -4 -5 -6q-30 -3 -62 -3q-71 0 -110 42.5t-39 116.5v487q0 5 5 5h10q5 0 5 -5v-125h178q5 0 5 -5v-9q0 -5 -5 -5h-178v-343zM150 -223h-6q-6 0 -5 6l37 140q2 4 5 4h12q5 0 4 -6l-42 -140q-2 -4 -5 -4z" />
    <glyph glyph-name="uni0237" unicode="&#x237;" horiz-adv-x="186" 
d="M107 -39q0 -161 -120 -161q-9 0 -52 5q-5 2 -5 6v8q0 2 1.5 4t3.5 1q30 -5 50 -5q49 0 75.5 32t26.5 106v551q0 5 5 5h10q5 0 5 -5v-547z" />
    <glyph glyph-name="circumflex" unicode="&#x2c6;" horiz-adv-x="294" 
d="M38 600h-13q-7 0 -3 6l114 134q2 3 6 3h10q4 0 6 -3l114 -134q4 -6 -3 -6h-13q-4 0 -6 3l-103 123l-103 -123q-2 -3 -6 -3z" />
    <glyph glyph-name="caron" unicode="&#x2c7;" horiz-adv-x="294" 
d="M25 743h13q4 0 6 -3l103 -123l103 123q2 3 6 3h13q7 0 3 -6l-114 -134q-2 -3 -6 -3h-10q-4 0 -6 3l-114 134q-4 6 3 6z" />
    <glyph glyph-name="breve" unicode="&#x2d8;" horiz-adv-x="290" 
d="M285 736q-7 -60 -45 -98.5t-97 -38.5t-97 38.5t-45 98.5q-2 5 4 6l10 1q5 0 6 -4q7 -55 38.5 -88t83.5 -33t83.5 33t38.5 88q2 5 6 4l10 -1q6 0 4 -6z" />
    <glyph glyph-name="dotaccent" unicode="&#x2d9;" horiz-adv-x="64" 
d="M54 650q0 -22 -22 -22t-22 22t22 22t22 -22z" />
    <glyph glyph-name="ring" unicode="&#x2da;" horiz-adv-x="192" 
d="M190 677q0 -39 -26 -65t-68 -26t-68 26t-26 65t26 65.5t68 26.5t68 -26.5t26 -65.5zM21 677q0 -33 20.5 -53t55.5 -20t54.5 20t19.5 53t-19.5 53.5t-54.5 20.5t-55.5 -20.5t-20.5 -53.5z" />
    <glyph glyph-name="ogonek" unicode="&#x2db;" horiz-adv-x="155" 
d="M137 -180q-31 -18 -73 -18q-31 0 -49.5 18t-18.5 51t25.5 67.5t67.5 59.5q2 2 6 2h10q9 0 1 -6q-43 -28 -66.5 -62t-23.5 -61q0 -50 49 -50q33 0 62 15q5 3 7 -2l4 -8q2 -4 -1 -6z" />
    <glyph glyph-name="tilde" unicode="&#x2dc;" horiz-adv-x="265" 
d="M264 679q-7 -20 -24.5 -34.5t-39.5 -14.5q-21 0 -67 23q-42 23 -66 23q-34 0 -49 -37q-2 -3 -6 -2l-7 3q-4 3 -3 7q20 47 66 47q22 0 70 -24q46 -22 61 -22q33 0 49 38q2 4 6 2l7 -3q4 -2 3 -6z" />
    <glyph glyph-name="hungarumlaut" unicode="&#x2dd;" horiz-adv-x="293" 
d="M13 600h-9q-7 0 -4 6l77 134q1 3 6 3h15q6 0 3 -6l-82 -134q-1 -3 -6 -3zM126 600h-9q-7 0 -4 6l77 134q2 3 6 3h15q6 0 3 -6l-82 -134q-2 -3 -6 -3z" />
    <glyph glyph-name="gravecomb" unicode="&#x300;" horiz-adv-x="107" 
d="M102 600h-8q-4 0 -6 3l-89 134q-3 6 3 6h15q5 0 6 -3l83 -134q4 -6 -4 -6z" />
    <glyph glyph-name="acutecomb" unicode="&#x301;" horiz-adv-x="109" 
d="M13 600h-8q-8 0 -4 6l83 134q2 3 6 3h15q6 0 3 -6l-89 -134q-1 -3 -6 -3z" />
    <glyph glyph-name="uni0302" unicode="&#x302;" horiz-adv-x="294" 
d="M38 600h-13q-7 0 -3 6l114 134q2 3 6 3h10q4 0 6 -3l114 -134q4 -6 -3 -6h-13q-4 0 -6 3l-103 123l-103 -123q-2 -3 -6 -3z" />
    <glyph glyph-name="tildecomb" unicode="&#x303;" horiz-adv-x="265" 
d="M264 679q-7 -20 -24.5 -34.5t-39.5 -14.5q-21 0 -67 23q-42 23 -66 23q-34 0 -49 -37q-2 -3 -6 -2l-7 3q-4 3 -3 7q20 47 66 47q22 0 70 -24q46 -22 61 -22q33 0 49 38q2 4 6 2l7 -3q4 -2 3 -6z" />
    <glyph glyph-name="uni0304" unicode="&#x304;" horiz-adv-x="240" 
d="M0 659v8q0 5 5 5h230q5 0 5 -5v-8q0 -5 -5 -5h-230q-5 0 -5 5z" />
    <glyph glyph-name="uni0306" unicode="&#x306;" horiz-adv-x="286" 
d="M285 736q-7 -60 -45 -98.5t-97 -38.5t-97 38.5t-45 98.5q-2 5 4 6l10 1q5 0 6 -4q7 -55 38.5 -88t83.5 -33t83.5 33t38.5 88q2 5 6 4l10 -1q6 0 4 -6z" />
    <glyph glyph-name="uni0307" unicode="&#x307;" horiz-adv-x="122" 
d="M83 650q0 -22 -22 -22t-22 22t22 22t22 -22z" />
    <glyph glyph-name="uni0308" unicode="&#x308;" horiz-adv-x="226" 
d="M49 650q0 -20 -20 -20t-20 20t20 20t20 -20zM217 650q0 -20 -20 -20t-20 20t20 20t20 -20z" />
    <glyph glyph-name="uni030A" unicode="&#x30a;" horiz-adv-x="192" 
d="M190 677q0 -39 -26 -65t-68 -26t-68 26t-26 65t26 65.5t68 26.5t68 -26.5t26 -65.5zM21 677q0 -33 20.5 -53t55.5 -20t54.5 20t19.5 53t-19.5 53.5t-54.5 20.5t-55.5 -20.5t-20.5 -53.5z" />
    <glyph glyph-name="uni030B" unicode="&#x30b;" horiz-adv-x="216" 
d="M13 600h-9q-7 0 -4 6l77 134q1 3 6 3h15q6 0 3 -6l-82 -134q-1 -3 -6 -3zM126 600h-9q-7 0 -4 6l77 134q2 3 6 3h15q6 0 3 -6l-82 -134q-2 -3 -6 -3z" />
    <glyph glyph-name="uni030C" unicode="&#x30c;" horiz-adv-x="294" 
d="M25 743h13q4 0 6 -3l103 -123l103 123q2 3 6 3h13q7 0 3 -6l-114 -134q-2 -3 -6 -3h-10q-4 0 -6 3l-114 134q-4 6 3 6z" />
    <glyph glyph-name="uni0312" unicode="&#x312;" horiz-adv-x="63" 
d="M19 600h-13q-6 0 -4 6l46 144q2 4 5 4h7q6 0 4 -6l-40 -144q-2 -4 -5 -4z" />
    <glyph glyph-name="uni0326" unicode="&#x326;" horiz-adv-x="62" 
d="M13 -223h-6q-7 0 -5 6l37 140q2 4 5 4h12q6 0 4 -6l-42 -140q-2 -4 -5 -4z" />
    <glyph glyph-name="uni0327" unicode="&#x327;" horiz-adv-x="156" 
d="M157 -128q0 -33 -25 -53.5t-69 -20.5q-31 0 -59 9q-4 1 -4 6v8q0 5 6 4q30 -9 57 -9q36 0 55 15t19 41q0 27 -20 39t-67 13q-4 0 -6 3q-3 3 -1 6l24 66q2 4 5 4h10q6 0 4 -6l-21 -58q92 0 92 -67z" />
    <glyph glyph-name="uni0328" unicode="&#x328;" horiz-adv-x="134" 
d="M141 -180q-31 -18 -73 -18q-31 0 -49.5 18t-18.5 51t25.5 67.5t67.5 59.5q2 2 6 2h10q9 0 1 -6q-43 -28 -66.5 -62t-23.5 -61q0 -50 49 -50q33 0 62 15q5 3 7 -2l4 -8q2 -4 -1 -6z" />
    <glyph glyph-name="uni0335" unicode="&#x335;" horiz-adv-x="324" 
d="M319 606h-314q-5 0 -5 5v8q0 5 5 5h314q5 0 5 -5v-8q0 -5 -5 -5z" />
    <glyph glyph-name="uni0336" unicode="&#x336;" horiz-adv-x="515" 
d="M0 258v8q0 5 5 5h505q5 0 5 -5v-8q0 -5 -5 -5h-505q-5 0 -5 5z" />
    <glyph glyph-name="uni0337" unicode="&#x337;" horiz-adv-x="262" 
d="M3 303l253 226q6 6 6 -3v-14q0 -4 -3 -6l-253 -226q-6 -6 -6 3v14q0 5 3 6z" />
    <glyph glyph-name="uni0338" unicode="&#x338;" horiz-adv-x="504" 
d="M47 -37h-10q-7 0 -4 6l418 772q2 4 6 4h10q7 0 4 -6l-418 -772q-2 -4 -6 -4z" />
    <glyph glyph-name="tonos" unicode="&#x384;" horiz-adv-x="107" 
d="M13 600h-8q-8 0 -4 6l83 134q2 3 6 3h15q6 0 3 -6l-89 -134q-1 -3 -6 -3z" />
    <glyph glyph-name="dieresistonos" unicode="&#x385;" horiz-adv-x="221" 
d="M86 600h-9q-7 0 -4 6l76 134q1 3 6 3h15q6 0 3 -6l-81 -134q-2 -3 -6 -3zM40 650q0 -20 -20 -20t-20 20t20 20t20 -20zM221 650q0 -20 -20 -20t-20 20t20 20t20 -20z" />
    <glyph glyph-name="Alphatonos" unicode="&#x386;" horiz-adv-x="597" 
d="M85 572h-8q-9 0 -4 6l83 134q2 3 6 3h15q6 0 3 -6l-89 -134q-1 -3 -6 -3zM43 0h-12q-5 0 -4 6l266 705q2 4 5 4h16q3 0 5 -4l266 -705q1 -6 -4 -6h-12q-3 0 -5 4l-86 229h-344l-86 -229q-2 -4 -5 -4zM305 687l-163 -434h328l-163 434h-2z" />
    <glyph glyph-name="Epsilontonos" unicode="&#x388;" horiz-adv-x="672" 
d="M33 572h-8q-9 0 -4 6l83 134q2 3 6 3h15q6 0 3 -6l-89 -134q-1 -3 -6 -3zM234 355v-335h386q5 0 5 -5v-10q0 -5 -5 -5h-402q-5 0 -5 5v705q0 5 5 5h387q5 0 5 -5v-10q0 -5 -5 -5h-371v-320h351q5 0 5 -5v-10q0 -5 -5 -5h-351z" />
    <glyph glyph-name="Etatonos" unicode="&#x389;" horiz-adv-x="818" 
d="M33 572h-8q-9 0 -4 6l83 134q2 3 6 3h15q6 0 3 -6l-89 -134q-1 -3 -6 -3zM697 375v335q0 5 5 5h11q5 0 5 -5v-705q0 -5 -5 -5h-11q-5 0 -5 5v350h-430v-350q0 -5 -5 -5h-11q-5 0 -5 5v705q0 5 5 5h11q5 0 5 -5v-335h430z" />
    <glyph glyph-name="Iotatonos" unicode="&#x38a;" horiz-adv-x="326" 
d="M33 572h-8q-9 0 -4 6l83 134q2 3 6 3h15q6 0 3 -6l-89 -134q-1 -3 -6 -3zM226 710v-705q0 -5 -5 -5h-11q-5 0 -5 5v705q0 5 5 5h11q5 0 5 -5z" />
    <glyph glyph-name="Omicrontonos" unicode="&#x38c;" horiz-adv-x="755" 
d="M55 572h-8q-8 0 -4 6l83 134q2 3 6 3h15q6 0 3 -6l-89 -134q-1 -3 -6 -3zM680 218q0 -98 -72 -163t-186 -65t-186 65t-72 163v270q0 105 71 171t187 66t187 -66t71 -171v-270zM185 218q0 -90 65.5 -149t171.5 -59t171.5 59t65.5 149v270q0 97 -65 157t-172 60t-172 -60
t-65 -157v-270z" />
    <glyph glyph-name="Upsilontonos" unicode="&#x38e;" horiz-adv-x="686" 
d="M40 572h-8q-8 0 -4 6l83 134q1 3 6 3h15q6 0 3 -6l-89 -134q-2 -3 -6 -3zM427 0h-11q-5 0 -5 5v281l-242 423q-3 6 4 6h12q5 0 6 -3l231 -404l231 404q1 3 6 3h12q7 0 4 -6l-243 -423v-281q0 -5 -5 -5z" />
    <glyph glyph-name="Omegatonos" unicode="&#x38f;" horiz-adv-x="761" 
d="M364 0h-181q-5 0 -5 5v10q0 5 5 5h149q-71 48 -113 116.5t-42 148.5v182q0 121 67.5 189.5t187.5 68.5t187.5 -68.5t67.5 -189.5v-182q0 -80 -42 -148.5t-113 -116.5h149q5 0 5 -5v-10q0 -5 -5 -5h-181q-5 0 -5 5v6q0 5 3 6q82 54 125 123t43 145v182q0 113 -61.5 175.5
t-172.5 62.5t-172.5 -62.5t-61.5 -175.5v-182q0 -76 43 -145t125 -123q3 -1 3 -6v-6q0 -5 -5 -5zM35 572h-8q-9 0 -4 6l83 134q2 3 6 3h15q6 0 3 -6l-89 -134q-1 -3 -6 -3z" />
    <glyph glyph-name="iotadieresistonos" unicode="&#x390;" horiz-adv-x="178" 
d="M94 0h-10q-5 0 -5 5v503q0 5 5 5h10q5 0 5 -5v-503q0 -5 -5 -5zM43 659q0 -20 -20 -20t-20 20t20 20t20 -20zM65 600h-9q-7 0 -4 6l76 134q2 3 6 3h15q6 0 3 -6l-81 -134q-1 -3 -6 -3zM190 659q0 -20 -20 -20t-20 20t20 20t20 -20z" />
    <glyph glyph-name="Alpha" unicode="&#x391;" horiz-adv-x="582" 
d="M28 0h-12q-6 0 -4 6l266 705q2 4 5 4h16q3 0 5 -4l266 -705q2 -6 -4 -6h-12q-3 0 -5 4l-86 229h-344l-86 -229q-2 -4 -5 -4zM290 687l-163 -434h328l-163 434h-2z" />
    <glyph glyph-name="Beta" unicode="&#x392;" horiz-adv-x="618" 
d="M530 546q0 -63 -35 -104.5t-96 -56.5q77 -12 118.5 -61t41.5 -128q0 -94 -64 -145t-184 -51h-206q-5 0 -5 5v705q0 5 5 5h206q116 0 167.5 -47.5t51.5 -121.5zM121 20h190q113 0 170 46t57 130t-51 131.5t-155 47.5h-211v-355zM509 546q0 65 -45 107t-153 42h-190v-300
h211q84 0 130.5 40t46.5 111z" />
    <glyph glyph-name="Gamma" unicode="&#x393;" horiz-adv-x="494" 
d="M116 0h-11q-5 0 -5 5v705q0 5 5 5h372q5 0 5 -5v-10q0 -5 -5 -5h-356v-690q0 -5 -5 -5z" />
    <glyph glyph-name="uni0394" unicode="&#x394;" horiz-adv-x="590" 
d="M574 0h-558q-6 0 -4 6l268 705q2 4 6 4h18q4 0 6 -4l268 -705q2 -6 -4 -6zM294 688l-254 -668h510l-254 668h-2z" />
    <glyph glyph-name="Epsilon" unicode="&#x395;" horiz-adv-x="559" 
d="M121 355v-335h386q5 0 5 -5v-10q0 -5 -5 -5h-402q-5 0 -5 5v705q0 5 5 5h387q5 0 5 -5v-10q0 -5 -5 -5h-371v-320h351q5 0 5 -5v-10q0 -5 -5 -5h-351z" />
    <glyph glyph-name="Zeta" unicode="&#x396;" horiz-adv-x="546" 
d="M507 0h-470q-5 0 -5 5v5q0 2 2 6l444 679h-427q-5 0 -5 5v10q0 5 5 5h450q5 0 5 -5v-7q0 -2 -2 -6l-443 -677h446q5 0 5 -5v-10q0 -5 -5 -5z" />
    <glyph glyph-name="Eta" unicode="&#x397;" horiz-adv-x="672" 
d="M551 375v335q0 5 5 5h11q5 0 5 -5v-705q0 -5 -5 -5h-11q-5 0 -5 5v350h-430v-350q0 -5 -5 -5h-11q-5 0 -5 5v705q0 5 5 5h11q5 0 5 -5v-335h430z" />
    <glyph glyph-name="Theta" unicode="&#x398;" horiz-adv-x="672" 
d="M597 218q0 -98 -72.5 -163t-188.5 -65t-188.5 65t-72.5 163v270q0 105 72 171t189 66t189 -66t72 -171v-270zM96 218q0 -90 66.5 -149t173.5 -59t173.5 59t66.5 149v270q0 97 -65.5 157t-174.5 60t-174.5 -60t-65.5 -157v-270zM522 356h-371q-5 0 -5 5v10q0 5 5 5h371
q5 0 5 -5v-10q0 -5 -5 -5z" />
    <glyph glyph-name="Iota" unicode="&#x399;" horiz-adv-x="221" 
d="M121 710v-705q0 -5 -5 -5h-11q-5 0 -5 5v705q0 5 5 5h11q5 0 5 -5z" />
    <glyph glyph-name="Kappa" unicode="&#x39a;" horiz-adv-x="602" 
d="M116 0h-11q-5 0 -5 5v705q0 5 5 5h11q5 0 5 -5v-408l421 410q3 3 7 3h16q9 0 3 -6l-325 -317l344 -386q5 -6 -3 -6h-16q-4 0 -6 3l-334 375l-107 -104v-269q0 -5 -5 -5z" />
    <glyph glyph-name="Lambda" unicode="&#x39b;" horiz-adv-x="590" 
d="M28 0h-12q-6 0 -4 6l268 705q2 4 6 4h18q4 0 6 -4l268 -705q2 -6 -4 -6h-12q-4 0 -6 4l-260 685h-2l-260 -685q-2 -4 -6 -4z" />
    <glyph glyph-name="Mu" unicode="&#x39c;" horiz-adv-x="838" 
d="M116 0h-11q-5 0 -5 5v705q0 5 5 5h17q4 0 6 -3l221 -385l70 -123l69 120l222 388q2 3 6 3h17q5 0 5 -5v-705q0 -5 -5 -5h-11q-5 0 -5 5v678l-93 -162l-195 -341q-1 -3 -6 -3h-8q-5 0 -6 3l-195 341l-93 162v-678q0 -5 -5 -5z" />
    <glyph glyph-name="Nu" unicode="&#x39d;" horiz-adv-x="699" 
d="M116 0h-11q-5 0 -5 5v705q0 5 5 5h14q5 0 6 -3l453 -678v676q0 5 5 5h11q5 0 5 -5v-705q0 -5 -5 -5h-14q-4 0 -6 3l-453 678v-676q0 -5 -5 -5z" />
    <glyph glyph-name="Xi" unicode="&#x39e;" horiz-adv-x="514" 
d="M456 695h-399q-5 0 -5 5v10q0 5 5 5h399q5 0 5 -5v-10q0 -5 -5 -5zM426 352h-338q-5 0 -5 5v10q0 5 5 5h338q5 0 5 -5v-10q0 -5 -5 -5zM460 0h-407q-5 0 -5 5v11q0 5 5 5h407q5 0 5 -5v-11q0 -5 -5 -5z" />
    <glyph glyph-name="Omicron" unicode="&#x39f;" horiz-adv-x="666" 
d="M591 218q0 -98 -72 -163t-186 -65t-186 65t-72 163v270q0 105 71 171t187 66t187 -66t71 -171v-270zM96 218q0 -90 65.5 -149t171.5 -59t171.5 59t65.5 149v270q0 97 -65 157t-172 60t-172 -60t-65 -157v-270z" />
    <glyph glyph-name="Pi" unicode="&#x3a0;" horiz-adv-x="672" 
d="M116 0h-11q-5 0 -5 5v705q0 5 5 5h462q5 0 5 -5v-705q0 -5 -5 -5h-11q-5 0 -5 5v690h-430v-690q0 -5 -5 -5z" />
    <glyph glyph-name="Rho" unicode="&#x3a1;" horiz-adv-x="609" 
d="M105 715h218q117 0 180 -57t63 -158q0 -102 -63.5 -158t-179.5 -56h-202v-281q0 -5 -5 -5h-11q-5 0 -5 5v705q0 5 5 5zM121 306h200q110 0 167 50t57 144t-57.5 144.5t-166.5 50.5h-200v-389z" />
    <glyph glyph-name="Sigma" unicode="&#x3a3;" horiz-adv-x="505" 
d="M44 715h418q5 0 5 -5v-10q0 -5 -5 -5h-394l260 -324q2 -4 0 -7l-261 -344h395q5 0 5 -5v-10q0 -5 -5 -5h-418q-5 0 -5 5v10q0 2 2 6l264 347l-264 326q-2 4 -2 6v10q0 5 5 5z" />
    <glyph glyph-name="Tau" unicode="&#x3a4;" horiz-adv-x="527" 
d="M17 715h493q5 0 5 -5v-10q0 -5 -5 -5h-238v-690q0 -5 -5 -5h-11q-5 0 -5 5v690h-234q-5 0 -5 5v10q0 5 5 5z" />
    <glyph glyph-name="Upsilon" unicode="&#x3a5;" horiz-adv-x="529" 
d="M270 0h-11q-5 0 -5 5v281l-242 423q-3 6 4 6h12q4 0 6 -3l231 -404l231 404q2 3 6 3h12q7 0 4 -6l-243 -423v-281q0 -5 -5 -5z" />
    <glyph glyph-name="Phi" unicode="&#x3a6;" horiz-adv-x="841" 
d="M426 -61h-11q-5 0 -5 5v91h-84q-48 0 -92.5 16t-81.5 47t-59.5 84.5t-22.5 121.5v106q0 68 22.5 121t60 84t81.5 47t92 16h84v85q0 5 5 5h11q5 0 5 -5v-85h83q65 0 121.5 -26.5t96 -89t39.5 -152.5v-106q0 -68 -22.5 -121.5t-60 -84.5t-82 -47t-92.5 -16h-83v-91
q0 -5 -5 -5zM91 304q0 -123 69.5 -186t165.5 -63h84v603h-84q-45 0 -86 -14.5t-75 -43.5t-54 -78t-20 -112v-106zM431 658v-603h83q45 0 86 14.5t75 43.5t54.5 78.5t20.5 112.5v106q0 122 -69.5 185t-166.5 63h-83z" />
    <glyph glyph-name="Chi" unicode="&#x3a7;" horiz-adv-x="569" 
d="M299 361l245 -355q4 -6 -3 -6h-14q-5 0 -6 3l-236 342l-237 -342q-2 -3 -6 -3h-14q-7 0 -3 6l246 355l-235 348q-4 6 3 6h14q5 0 6 -3l226 -335l225 335q2 3 6 3h14q7 0 3 -6z" />
    <glyph glyph-name="Psi" unicode="&#x3a8;" horiz-adv-x="782" 
d="M394 0h-11q-5 0 -5 5v159h-84q-100 0 -163 62.5t-63 163.5v320q0 5 5 5h11q5 0 5 -5v-320q0 -93 56.5 -149.5t148.5 -56.5h84v526q0 5 5 5h11q5 0 5 -5v-526h89q92 0 148.5 56.5t56.5 149.5v320q0 5 5 5h11q5 0 5 -5v-320q0 -101 -63 -163.5t-163 -62.5h-89v-159
q0 -5 -5 -5z" />
    <glyph glyph-name="uni03A9" unicode="&#x3a9;" horiz-adv-x="658" 
d="M261 0h-181q-5 0 -5 5v10q0 5 5 5h149q-71 48 -113 116.5t-42 148.5v182q0 121 67.5 189.5t187.5 68.5t187.5 -68.5t67.5 -189.5v-182q0 -80 -42 -148.5t-113 -116.5h149q5 0 5 -5v-10q0 -5 -5 -5h-181q-5 0 -5 5v6q0 5 3 6q82 54 125 123t43 145v182q0 113 -61.5 175.5
t-172.5 62.5t-172.5 -62.5t-61.5 -175.5v-182q0 -76 43 -145t125 -123q3 -1 3 -6v-6q0 -5 -5 -5z" />
    <glyph glyph-name="Iotadieresis" unicode="&#x3aa;" horiz-adv-x="221" 
d="M116 0h-11q-5 0 -5 5v705q0 5 5 5h11q5 0 5 -5v-705q0 -5 -5 -5zM51 859q0 -20 -20 -20t-20 20t20 20t20 -20zM211 859q0 -20 -20 -20t-20 20t20 20t20 -20z" />
    <glyph glyph-name="Upsilondieresis" unicode="&#x3ab;" horiz-adv-x="529" 
d="M186 859q0 -20 -20 -20t-20 20t20 20t20 -20zM384 859q0 -20 -20 -20t-20 20t20 20t20 -20zM270 0h-11q-5 0 -5 5v281l-242 423q-3 6 4 6h12q4 0 6 -3l231 -404l231 404q2 3 6 3h12q7 0 4 -6l-243 -423v-281q0 -5 -5 -5z" />
    <glyph glyph-name="alphatonos" unicode="&#x3ac;" horiz-adv-x="526" 
d="M428 68q-73 -78 -173 -78q-90 0 -143 50.5t-53 139.5v142q0 92 54.5 146.5t145.5 54.5q85 0 185 -38q4 -1 4 -5v-475q0 -5 -5 -5h-10q-5 0 -5 5v63zM79 180q0 -81 47.5 -126t129.5 -45q95 0 172 84v378q-93 33 -169 33q-83 0 -131.5 -49t-48.5 -133v-142zM244 600h-8
q-8 0 -4 6l83 134q1 3 6 3h15q6 0 3 -6l-89 -134q-2 -3 -6 -3z" />
    <glyph glyph-name="epsilontonos" unicode="&#x3ad;" horiz-adv-x="476" 
d="M247 9q57 0 97 21.5t80 62.5q4 3 7 0l7 -6q3 -3 0 -7q-83 -90 -193 -90q-84 0 -139.5 43t-55.5 110q0 49 31 83t85 46q-47 16 -71.5 47.5t-24.5 71.5q0 62 49 97t128 35q109 0 181 -68q4 -3 0 -7l-6 -6q-3 -3 -7 -1q-63 63 -168 63q-70 0 -113.5 -29.5t-43.5 -81.5
q0 -48 36 -80.5t97 -32.5h121q5 0 5 -5v-9q0 -5 -5 -5h-127q-66 0 -106.5 -33.5t-40.5 -84.5q0 -57 50 -95.5t127 -38.5zM229 600h-8q-9 0 -4 6l83 134q2 3 6 3h15q6 0 3 -6l-89 -134q-1 -3 -6 -3z" />
    <glyph glyph-name="etatonos" unicode="&#x3ae;" horiz-adv-x="545" 
d="M250 600h-8q-8 0 -4 6l83 134q1 3 6 3h15q6 0 3 -6l-89 -134q-2 -3 -6 -3zM93 0h-10q-5 0 -5 5v474q0 5 4 6q84 38 180 38q100 0 154.5 -51t54.5 -148v-319q0 -5 -5 -5h-10q-5 0 -5 5v319q0 89 -49 134.5t-140 45.5q-85 0 -164 -32v-467q0 -5 -5 -5z" />
    <glyph glyph-name="iotatonos" unicode="&#x3af;" horiz-adv-x="178" 
d="M77 600h-8q-9 0 -4 6l83 134q2 3 6 3h15q6 0 3 -6l-89 -134q-1 -3 -6 -3zM94 0h-10q-5 0 -5 5v503q0 5 5 5h10q5 0 5 -5v-503q0 -5 -5 -5z" />
    <glyph glyph-name="upsilondieresistonos" unicode="&#x3b0;" horiz-adv-x="545" 
d="M470 175q0 -80 -52.5 -133t-144.5 -52q-93 1 -146 53t-53 132v333q0 5 5 5h10q5 0 5 -5v-333q0 -72 47 -118.5t132 -47.5q84 -1 130.5 46.5t46.5 119.5v333q0 5 5 5h10q5 0 5 -5v-333zM249 600h-9q-7 0 -4 6l76 134q2 3 6 3h15q6 0 3 -6l-81 -134q-1 -3 -6 -3zM203 650
q0 -20 -20 -20t-20 20t20 20t20 -20zM384 650q0 -20 -20 -20t-20 20t20 20t20 -20z" />
    <glyph glyph-name="alpha" unicode="&#x3b1;" horiz-adv-x="526" 
d="M428 68q-73 -78 -173 -78q-90 0 -143 50.5t-53 139.5v142q0 92 54.5 146.5t145.5 54.5q85 0 185 -38q4 -1 4 -5v-475q0 -5 -5 -5h-10q-5 0 -5 5v63zM79 180q0 -81 47.5 -126t129.5 -45q95 0 172 84v378q-93 33 -169 33q-83 0 -131.5 -49t-48.5 -133v-142z" />
    <glyph glyph-name="beta" unicode="&#x3b2;" horiz-adv-x="529" 
d="M451 543q1 -66 -30.5 -112.5t-85.5 -56.5q69 -9 105.5 -57.5t36.5 -120.5q0 -98 -51.5 -152t-148.5 -54q-99 0 -178 66v-238q0 -5 -5 -5h-10q-5 0 -5 5v715q0 94 47 143t136 49q92 0 140 -46.5t49 -135.5zM99 78q82 -69 178 -69q178 0 180 187q1 80 -45 124t-130 44h-120
q-5 0 -5 5v9q0 5 5 5h122q69 0 108 42t39 118q0 163 -169 163q-163 0 -163 -173v-455z" />
    <glyph glyph-name="gamma" unicode="&#x3b3;" horiz-adv-x="472" 
d="M241 -191h-10q-5 0 -5 5v185l-204 508q-2 6 4 6h11q4 0 6 -4l193 -484l192 484q2 4 6 4h11q6 0 4 -6l-203 -508v-185q0 -5 -5 -5z" />
    <glyph glyph-name="delta" unicode="&#x3b4;" horiz-adv-x="521" 
d="M91 601q0 -25 13.5 -45t43 -36t50.5 -24.5t61 -21.5q50 -17 79.5 -30t62.5 -37t48.5 -60t15.5 -86v-82q0 -84 -56 -136.5t-145 -52.5q-91 0 -149.5 52t-58.5 132v91q0 163 164 202q-68 23 -108.5 54t-40.5 80q0 59 53.5 91.5t140.5 32.5q93 0 168 -49q4 -3 2 -7l-5 -9
q-3 -3 -7 -1q-70 47 -158 47q-79 0 -126.5 -27.5t-47.5 -77.5zM263 9q81 0 131.5 47t50.5 123v82q0 38 -12.5 68.5t-28.5 49t-46.5 35t-51.5 24t-59 19.5q-86 -19 -128.5 -64.5t-42.5 -127.5v-91q0 -73 52 -119t135 -46z" />
    <glyph glyph-name="epsilon" unicode="&#x3b5;" horiz-adv-x="476" 
d="M247 9q57 0 97 21.5t80 62.5q4 3 7 0l7 -6q3 -3 0 -7q-83 -90 -193 -90q-84 0 -139.5 43t-55.5 110q0 49 31 83t85 46q-47 16 -71.5 47.5t-24.5 71.5q0 62 49 97t128 35q109 0 181 -68q4 -3 0 -7l-6 -6q-3 -3 -7 -1q-63 63 -168 63q-70 0 -113.5 -29.5t-43.5 -81.5
q0 -48 36 -80.5t97 -32.5h121q5 0 5 -5v-9q0 -5 -5 -5h-127q-66 0 -106.5 -33.5t-40.5 -84.5q0 -57 50 -95.5t127 -38.5z" />
    <glyph glyph-name="zeta" unicode="&#x3b6;" horiz-adv-x="440" 
d="M399 -55q0 -43 -66 -118q-3 -5 -7 -1l-6 7q-3 3 -1 7q60 69 60 105q0 19 -33.5 30.5t-81.5 23t-96.5 31.5t-82 68t-33.5 121q0 121 87 244t253 233h-314q-5 0 -5 5v9q0 5 5 5h346q5 0 5 -5v-6q0 -4 -3 -6q-172 -112 -263 -236.5t-91 -241.5q0 -51 18 -88.5t47 -58.5
t63.5 -35t69.5 -22t64 -16t47 -21.5t18 -33.5z" />
    <glyph glyph-name="eta" unicode="&#x3b7;" horiz-adv-x="545" 
d="M93 0h-10q-5 0 -5 5v474q0 5 4 6q84 38 180 38q100 0 154.5 -51t54.5 -148v-319q0 -5 -5 -5h-10q-5 0 -5 5v319q0 89 -49 134.5t-140 45.5q-85 0 -164 -32v-467q0 -5 -5 -5z" />
    <glyph glyph-name="theta" unicode="&#x3b8;" horiz-adv-x="560" 
d="M486 189q0 -88 -52.5 -144t-152.5 -55q-101 1 -154 56t-53 143v337q0 88 53 143t154 56q100 1 152.5 -55t52.5 -144v-337zM94 526v-147h372v147q0 80 -46.5 130.5t-138.5 49.5q-93 -1 -140 -51t-47 -129zM94 189q0 -79 47 -129t140 -51q92 -1 138.5 49.5t46.5 130.5v171
h-372v-171z" />
    <glyph glyph-name="iota" unicode="&#x3b9;" horiz-adv-x="178" 
d="M94 0h-10q-5 0 -5 5v503q0 5 5 5h10q5 0 5 -5v-503q0 -5 -5 -5z" />
    <glyph glyph-name="kappa" unicode="&#x3ba;" horiz-adv-x="478" 
d="M461 0h-16q-3 0 -6 3l-246 264l-94 -86v-176q0 -5 -5 -5h-10q-5 0 -5 5v503q0 5 5 5h10q5 0 5 -5v-302l329 305q2 2 7 2h15q8 0 2 -6l-245 -227l256 -274q4 -6 -2 -6z" />
    <glyph glyph-name="lambda" unicode="&#x3bb;" horiz-adv-x="544" 
d="M89 0h-10q-5 0 -5 5v310q0 198 208 198q85 0 163 -47v79q0 71 -41.5 116t-124.5 45q-98 0 -173 -54q-4 -3 -7 1l-6 7q-4 4 1 7q32 24 83.5 41t102.5 17q88 0 136.5 -49.5t48.5 -129.5v-541q0 -5 -5 -5h-10q-5 0 -5 5v440q-79 49 -163 49q-188 0 -188 -179v-310
q0 -5 -5 -5z" />
    <glyph glyph-name="uni03BC" unicode="&#x3bc;" horiz-adv-x="556" 
d="M94 -191h-10q-5 0 -5 5v694q0 5 5 5h10q5 0 5 -5v-337q0 -68 47 -115t132 -47q86 0 132.5 47t46.5 115v337q0 5 5 5h10q5 0 5 -5v-503q0 -5 -5 -5h-10q-5 0 -5 5v93q-15 -48 -63.5 -78t-115.5 -30q-66 0 -114.5 29.5t-64.5 76.5v-282q0 -5 -5 -5z" />
    <glyph glyph-name="nu" unicode="&#x3bd;" horiz-adv-x="470" 
d="M242 0h-14q-4 0 -6 4l-199 503q-2 6 4 6h11q4 0 6 -4l191 -483l191 483q2 4 6 4h11q6 0 4 -6l-199 -503q-2 -4 -6 -4z" />
    <glyph glyph-name="xi" unicode="&#x3be;" horiz-adv-x="446" 
d="M406 -59q0 -43 -65 -114q-3 -5 -7 -1l-7 7q-3 3 0 7q59 64 59 100q0 19 -25 33t-63 21.5t-82 23t-82 35.5t-63 61t-25 97q0 63 40.5 109t107.5 60q-56 10 -94 57.5t-38 111.5q0 71 55 123.5t146 52.5q104 0 174 -66q3 -3 0 -7l-5 -7q-3 -5 -7 -1q-68 62 -162 62
q-82 0 -131.5 -47t-49.5 -110q0 -67 45.5 -113.5t114.5 -46.5h87q5 0 5 -5v-10q0 -5 -5 -5h-90q-70 0 -121.5 -45t-51.5 -111q0 -47 19 -81.5t48.5 -54t66 -33.5t73 -23t66 -18.5t48.5 -24.5t19 -37z" />
    <glyph glyph-name="omicron" unicode="&#x3bf;" horiz-adv-x="530" 
d="M470 176q0 -81 -53.5 -133.5t-151.5 -52.5t-151.5 52.5t-53.5 133.5v162q0 80 54 132.5t151 52.5q98 0 151.5 -52.5t53.5 -132.5v-162zM80 176q0 -73 48 -120t137 -47q90 0 137.5 47t47.5 120v162q0 72 -47.5 119t-137.5 47q-89 0 -137 -47t-48 -119v-162z" />
    <glyph glyph-name="pi" unicode="&#x3c0;" horiz-adv-x="533" 
d="M84 513h365q5 0 5 -5v-503q0 -5 -5 -5h-10q-5 0 -5 5v489h-335v-489q0 -5 -5 -5h-10q-5 0 -5 5v503q0 5 5 5z" />
    <glyph glyph-name="rho" unicode="&#x3c1;" horiz-adv-x="533" 
d="M90 -190h-10q-5 0 -5 5v513q0 89 49.5 142t144.5 53q100 0 152 -53t52 -142v-141q0 -96 -54 -146.5t-150 -50.5q-97 0 -174 61v-236q0 -5 -5 -5zM95 72q80 -63 174 -63q87 0 135.5 45t48.5 133v141q0 81 -46.5 128.5t-137.5 47.5q-86 0 -130 -47.5t-44 -128.5v-256z" />
    <glyph glyph-name="sigma1" unicode="&#x3c2;" horiz-adv-x="443" 
d="M79 353v-152q0 -51 24 -87.5t60 -53.5t78.5 -31t78.5 -22.5t60 -25t24 -40.5q0 -39 -65 -114q-3 -5 -7 -1l-6 6q-3 3 -1 7q59 71 59 101q0 22 -33.5 36t-81 26t-95.5 30.5t-81.5 61.5t-33.5 107v152q0 73 51 121.5t133 48.5q103 0 176 -53q5 -3 1 -7l-6 -8q-3 -3 -7 -1
q-67 50 -164 50q-74 0 -119 -43t-45 -108z" />
    <glyph glyph-name="sigma" unicode="&#x3c3;" horiz-adv-x="539" 
d="M468 174q0 -80 -53.5 -132.5t-150.5 -51.5t-150.5 53t-53.5 131v155q0 79 53.5 131.5t150.5 52.5h232q5 0 5 -5v-9q0 -5 -5 -5h-142q55 -17 84.5 -61.5t29.5 -103.5v-155zM80 174q0 -71 47.5 -117.5t136.5 -47.5t136.5 46t47.5 119v155q0 76 -49.5 120t-134.5 45
q-88 1 -136 -46.5t-48 -118.5v-155z" />
    <glyph glyph-name="tau" unicode="&#x3c4;" horiz-adv-x="432" 
d="M221 0h-10q-5 0 -5 5v489h-186q-5 0 -5 5v9q0 5 5 5h392q5 0 5 -5v-9q0 -5 -5 -5h-186v-489q0 -5 -5 -5z" />
    <glyph glyph-name="upsilon" unicode="&#x3c5;" horiz-adv-x="545" 
d="M470 175q0 -80 -52.5 -133t-144.5 -52q-93 1 -146 53t-53 132v333q0 5 5 5h10q5 0 5 -5v-333q0 -72 47 -118.5t132 -47.5q84 -1 130.5 46.5t46.5 119.5v333q0 5 5 5h10q5 0 5 -5v-333z" />
    <glyph glyph-name="phi" unicode="&#x3c6;" horiz-adv-x="704" 
d="M357 -190h-10q-5 0 -5 5v185h-94q-86 0 -137.5 52.5t-51.5 141.5v125q0 89 51.5 141.5t137.5 52.5h94v197q0 5 5 5h10q5 0 5 -5v-197h94q86 0 137.5 -52.5t51.5 -141.5v-125q0 -89 -51.5 -141.5t-137.5 -52.5h-94v-185q0 -5 -5 -5zM79 194q0 -81 45.5 -128t121.5 -47h96
v475h-96q-76 0 -121.5 -47t-45.5 -128v-125zM362 19h96q76 0 121.5 47t45.5 128v125q0 81 -45.5 128t-121.5 47h-96v-475z" />
    <glyph glyph-name="chi" unicode="&#x3c7;" horiz-adv-x="464" 
d="M244 263l197 -257q4 -6 -3 -6h-13q-5 0 -6 3l-188 245l-188 -245q-1 -3 -6 -3h-13q-7 0 -3 6l197 257l-185 244q-4 6 3 6h13q5 0 6 -3l176 -232l176 232q1 3 6 3h13q7 0 3 -6z" />
    <glyph glyph-name="psi" unicode="&#x3c8;" horiz-adv-x="738" 
d="M374 -191h-10q-5 0 -5 5v186h-78q-95 0 -151.5 53t-56.5 142v313q0 5 5 5h10q5 0 5 -5v-313q0 -81 50.5 -128.5t136.5 -47.5h79v489q0 5 5 5h10q5 0 5 -5v-489h79q86 0 136.5 47.5t50.5 128.5v313q0 5 5 5h10q5 0 5 -5v-313q0 -89 -56.5 -142t-151.5 -53h-78v-186
q0 -5 -5 -5z" />
    <glyph glyph-name="omega" unicode="&#x3c9;" horiz-adv-x="734" 
d="M504 511l1 8q0 6 6 4q78 -9 119.5 -55.5t41.5 -117.5v-192q0 -67 -42.5 -117.5t-114.5 -50.5q-60 0 -97 32.5t-51 85.5q-12 -53 -50 -85.5t-99 -32.5q-71 0 -114 50.5t-43 117.5v192q0 71 41.5 117.5t118.5 55.5q6 2 6 -4l1 -8q0 -5 -4 -6q-70 -9 -106.5 -50.5
t-36.5 -104.5v-192q0 -59 37 -104t100 -45q68 0 103.5 45t35.5 107v174q0 5 5 5h10q5 0 5 -5v-174q0 -62 35.5 -107t102.5 -45q64 0 100.5 45t36.5 104v192q0 63 -36.5 104.5t-107.5 50.5q-4 1 -4 6z" />
    <glyph glyph-name="iotadieresis" unicode="&#x3ca;" horiz-adv-x="178" 
d="M94 0h-10q-5 0 -5 5v503q0 5 5 5h10q5 0 5 -5v-503q0 -5 -5 -5zM47 650q0 -20 -20 -20t-20 20t20 20t20 -20zM171 650q0 -20 -20 -20t-20 20t20 20t20 -20z" />
    <glyph glyph-name="upsilondieresis" unicode="&#x3cb;" horiz-adv-x="545" 
d="M470 175q0 -80 -52.5 -133t-144.5 -52q-93 1 -146 53t-53 132v333q0 5 5 5h10q5 0 5 -5v-333q0 -72 47 -118.5t132 -47.5q84 -1 130.5 46.5t46.5 119.5v333q0 5 5 5h10q5 0 5 -5v-333zM208 650q0 -20 -20 -20t-20 20t20 20t20 -20zM376 650q0 -20 -20 -20t-20 20t20 20
t20 -20z" />
    <glyph glyph-name="omicrontonos" unicode="&#x3cc;" horiz-adv-x="530" 
d="M233 600h-8q-9 0 -4 6l83 134q2 3 6 3h15q6 0 3 -6l-89 -134q-1 -3 -6 -3zM470 176q0 -81 -53.5 -133.5t-151.5 -52.5t-151.5 52.5t-53.5 133.5v162q0 80 54 132.5t151 52.5q98 0 151.5 -52.5t53.5 -132.5v-162zM80 176q0 -73 48 -120t137 -47q90 0 137.5 47t47.5 120
v162q0 72 -47.5 119t-137.5 47q-89 0 -137 -47t-48 -119v-162z" />
    <glyph glyph-name="upsilontonos" unicode="&#x3cd;" horiz-adv-x="545" 
d="M470 175q0 -80 -52.5 -133t-144.5 -52q-93 1 -146 53t-53 132v333q0 5 5 5h10q5 0 5 -5v-333q0 -72 47 -118.5t132 -47.5q84 -1 130.5 46.5t46.5 119.5v333q0 5 5 5h10q5 0 5 -5v-333zM255 600h-8q-9 0 -4 6l83 134q2 3 6 3h15q6 0 3 -6l-89 -134q-1 -3 -6 -3z" />
    <glyph glyph-name="omegatonos" unicode="&#x3ce;" horiz-adv-x="734" 
d="M504 511l1 8q0 6 6 4q78 -9 119.5 -55.5t41.5 -117.5v-192q0 -67 -42.5 -117.5t-114.5 -50.5q-60 0 -97 32.5t-51 85.5q-12 -53 -50 -85.5t-99 -32.5q-71 0 -114 50.5t-43 117.5v192q0 71 41.5 117.5t118.5 55.5q6 2 6 -4l1 -8q0 -5 -4 -6q-70 -9 -106.5 -50.5
t-36.5 -104.5v-192q0 -59 37 -104t100 -45q68 0 103.5 45t35.5 107v174q0 5 5 5h10q5 0 5 -5v-174q0 -62 35.5 -107t102.5 -45q64 0 100.5 45t36.5 104v192q0 63 -36.5 104.5t-107.5 50.5q-4 1 -4 6zM353 600h-8q-9 0 -4 6l83 134q2 3 6 3h15q6 0 3 -6l-89 -134q-1 -3 -6 -3
z" />
    <glyph glyph-name="uni0401" unicode="&#x401;" horiz-adv-x="559" 
d="M121 355v-335h386q5 0 5 -5v-10q0 -5 -5 -5h-402q-5 0 -5 5v705q0 5 5 5h387q5 0 5 -5v-10q0 -5 -5 -5h-371v-320h351q5 0 5 -5v-10q0 -5 -5 -5h-351zM220 859q0 -21 -21 -21t-21 21t21 21t21 -21zM418 859q0 -21 -21 -21t-21 21t21 21t21 -21z" />
    <glyph glyph-name="uni0402" unicode="&#x402;" horiz-adv-x="706" 
d="M272 483q83 40 163 40q100 0 154.5 -50.5t54.5 -148.5v-173q0 -161 -120 -161q-17 0 -52 5q-5 0 -5 6v9q0 2 1.5 4t3.5 1q30 -5 52 -5q99 0 99 137v177q0 179 -188 179q-81 0 -163 -41v-457q0 -5 -5 -5h-11q-5 0 -5 5v690h-234q-5 0 -5 5v10q0 5 5 5h492q5 0 5 -5v-10
q0 -5 -5 -5h-237v-212z" />
    <glyph glyph-name="uni0403" unicode="&#x403;" horiz-adv-x="494" 
d="M116 0h-11q-5 0 -5 5v705q0 5 5 5h372q5 0 5 -5v-10q0 -5 -5 -5h-356v-690q0 -5 -5 -5zM361 927l-115 -134q-2 -3 -6 -3h-10q-7 0 -3 6l108 134q1 3 6 3h17q8 0 3 -6z" />
    <glyph glyph-name="uni0404" unicode="&#x404;" horiz-adv-x="581" 
d="M536 74q-93 -84 -223 -84q-114 0 -176 65t-62 170v265q0 105 61.5 170t173.5 65q120 0 211 -75q5 -3 1 -7l-6 -9q-3 -3 -7 -1q-87 72 -200 72q-103 0 -158 -59.5t-55 -155.5v-122h353q5 0 5 -5v-10q0 -5 -5 -5h-353v-123q0 -96 56 -155.5t160 -59.5q121 0 212 80q4 4 7 0
l6 -9q4 -4 -1 -7z" />
    <glyph glyph-name="uni0405" unicode="&#x405;" horiz-adv-x="599" 
d="M546 176q0 -88 -64.5 -137t-176.5 -49q-74 0 -130 22t-114 72q-5 3 -1 7l7 8q3 3 7 1q56 -47 110 -68.5t121 -21.5q102 0 161 42.5t59 123.5q0 71 -49 110t-177 69q-121 28 -178.5 76t-57.5 124q0 83 65.5 126.5t164.5 43.5q133 0 233 -80q3 -2 1 -7l-5 -8q-4 -5 -7 -2
q-93 77 -225 77q-88 0 -147 -38.5t-59 -112.5q0 -69 52.5 -110.5t166.5 -68.5q137 -33 190 -78t53 -121z" />
    <glyph glyph-name="uni0406" unicode="&#x406;" horiz-adv-x="221" 
d="M121 710v-705q0 -5 -5 -5h-11q-5 0 -5 5v705q0 5 5 5h11q5 0 5 -5z" />
    <glyph glyph-name="uni0407" unicode="&#x407;" horiz-adv-x="221" 
d="M121 710v-705q0 -5 -5 -5h-11q-5 0 -5 5v705q0 5 5 5h11q5 0 5 -5zM52 859q0 -20 -20 -20t-20 20t20 20t20 -20zM210 859q0 -20 -20 -20t-20 20t20 20t20 -20z" />
    <glyph glyph-name="uni0408" unicode="&#x408;" horiz-adv-x="487" 
d="M392 198q0 -106 -45.5 -157t-138.5 -51q-99 0 -186 82q-3 3 -1 7l7 8q3 4 7 0q82 -77 173 -77q84 0 123.5 45t39.5 143v512q0 5 5 5h11q5 0 5 -5v-512z" />
    <glyph glyph-name="uni0409" unicode="&#x409;" horiz-adv-x="994" 
d="M153 204q-15 -113 -48.5 -160t-94.5 -47q-5 0 -5 5v10q0 5 5 5q52 0 80.5 42.5t41.5 147.5q26 210 26 503q0 5 5 5h352q5 0 5 -5v-274h187q119 0 180.5 -56.5t61.5 -159.5q0 -107 -61.5 -163.5t-180.5 -56.5h-203q-5 0 -5 5v690h-321q-6 -345 -25 -491zM520 416v-396h187
q221 0 221 200q0 95 -55 145.5t-166 50.5h-187z" />
    <glyph glyph-name="uni040A" unicode="&#x40a;" horiz-adv-x="991" 
d="M116 0h-11q-5 0 -5 5v705q0 5 5 5h11q5 0 5 -5v-303h396v303q0 5 5 5h11q5 0 5 -5v-303h160q123 0 187 -51.5t64 -152.5q0 -96 -65.5 -149.5t-180.5 -53.5h-181q-5 0 -5 5v382h-396v-382q0 -5 -5 -5zM538 387v-367h165q107 0 166 47.5t59 135.5q0 184 -230 184h-160z" />
    <glyph glyph-name="uni040B" unicode="&#x40b;" horiz-adv-x="705" 
d="M266 483q83 40 163 40q101 0 155.5 -50.5t54.5 -148.5v-319q0 -5 -5 -5h-11q-5 0 -5 5v319q0 179 -189 179q-81 0 -163 -41v-457q0 -5 -5 -5h-11q-5 0 -5 5v690h-228q-5 0 -5 5v10q0 5 5 5h476q5 0 5 -5v-10q0 -5 -5 -5h-227v-212z" />
    <glyph glyph-name="uni040C" unicode="&#x40c;" horiz-adv-x="602" 
d="M407 927l-115 -134q-2 -3 -6 -3h-10q-7 0 -3 6l108 134q1 3 6 3h17q8 0 3 -6zM116 0h-11q-5 0 -5 5v705q0 5 5 5h11q5 0 5 -5v-408l421 410q3 3 7 3h16q9 0 3 -6l-325 -317l344 -386q5 -6 -3 -6h-16q-4 0 -6 3l-334 375l-107 -104v-269q0 -5 -5 -5z" />
    <glyph glyph-name="uni040E" unicode="&#x40e;" horiz-adv-x="507" 
d="M175 0h-13q-5 0 -3 6l101 222l-249 481q-3 6 4 6h12q5 0 6 -4l238 -460l207 460q2 4 6 4h13q5 0 3 -6l-319 -705q-2 -4 -6 -4zM403 931q-8 -63 -47.5 -103t-101.5 -40t-101.5 40t-46.5 103q-1 4 4 6l9 2q4 1 6 -4q6 -58 39.5 -93t89.5 -35t89.5 35t39.5 93q2 5 6 4l9 -2
q5 -2 5 -6z" />
    <glyph glyph-name="uni040F" unicode="&#x40f;" horiz-adv-x="677" 
d="M561 715h11q5 0 5 -5v-705q0 -5 -5 -5h-223v-126q0 -5 -5 -5h-10q-5 0 -5 5v126h-224q-5 0 -5 5v705q0 5 5 5h11q5 0 5 -5v-690h435v690q0 5 5 5z" />
    <glyph glyph-name="uni0410" unicode="&#x410;" horiz-adv-x="582" 
d="M28 0h-12q-6 0 -4 6l266 705q2 4 5 4h16q3 0 5 -4l266 -705q2 -6 -4 -6h-12q-3 0 -5 4l-86 229h-344l-86 -229q-2 -4 -5 -4zM290 687l-163 -434h328l-163 434h-2z" />
    <glyph glyph-name="uni0411" unicode="&#x411;" horiz-adv-x="616" 
d="M121 425h210q119 0 176 -52.5t57 -160.5q0 -101 -59.5 -156.5t-168.5 -55.5h-231q-5 0 -5 5v705q0 5 5 5h414q5 0 5 -5v-10q0 -5 -5 -5h-398v-270zM121 20h215q100 0 153.5 50t53.5 142q0 100 -51 146.5t-161 46.5h-210v-385z" />
    <glyph glyph-name="uni0412" unicode="&#x412;" horiz-adv-x="618" 
d="M530 546q0 -63 -35 -104.5t-96 -56.5q77 -12 118.5 -61t41.5 -128q0 -94 -64 -145t-184 -51h-206q-5 0 -5 5v705q0 5 5 5h206q116 0 167.5 -47.5t51.5 -121.5zM121 20h190q113 0 170 46t57 130t-51 131.5t-155 47.5h-211v-355zM509 546q0 65 -45 107t-153 42h-190v-300
h211q84 0 130.5 40t46.5 111z" />
    <glyph glyph-name="uni0413" unicode="&#x413;" horiz-adv-x="494" 
d="M116 0h-11q-5 0 -5 5v705q0 5 5 5h372q5 0 5 -5v-10q0 -5 -5 -5h-356v-690q0 -5 -5 -5z" />
    <glyph glyph-name="uni0414" unicode="&#x414;" horiz-adv-x="636" 
d="M24 -138h-11q-5 0 -5 5v148q0 5 5 5h38q42 21 64 86t33.5 202.5t17.5 401.5q0 5 5 5h347q5 0 5 -5v-690h71q5 0 5 -5v-148q0 -5 -5 -5h-11q-5 0 -5 5v133h-549v-133q0 -5 -5 -5zM186 695q-7 -356 -29.5 -500.5t-74.5 -174.5h420v675h-316z" />
    <glyph glyph-name="uni0415" unicode="&#x415;" horiz-adv-x="559" 
d="M121 355v-335h386q5 0 5 -5v-10q0 -5 -5 -5h-402q-5 0 -5 5v705q0 5 5 5h387q5 0 5 -5v-10q0 -5 -5 -5h-371v-320h351q5 0 5 -5v-10q0 -5 -5 -5h-351z" />
    <glyph glyph-name="uni0416" unicode="&#x416;" horiz-adv-x="891" 
d="M868 0h-15q-5 0 -6 3l-294 375l-97 -104v-269q0 -5 -5 -5h-11q-5 0 -5 5v269l-97 104l-294 -375q-2 -3 -6 -3h-15q-7 0 -3 6l304 388l-288 315q-4 6 2 6h17q5 0 6 -3l242 -265l132 -144v407q0 5 5 5h11q5 0 5 -5v-407l132 144l242 265q2 3 6 3h17q7 0 2 -6l-288 -315
l304 -388q4 -6 -3 -6z" />
    <glyph glyph-name="uni0417" unicode="&#x417;" horiz-adv-x="570" 
d="M488 536q0 -55 -32.5 -98.5t-97.5 -62.5q74 -18 111 -66.5t37 -114.5q0 -92 -64.5 -148t-169.5 -56q-140 0 -232 89q-3 3 0 7l7 8q3 4 7 0q90 -84 218 -84q97 0 155 51t58 133q0 72 -49.5 121.5t-149.5 49.5h-118q-5 0 -5 5v10q0 5 5 5h129q82 0 126 45t44 106
q0 71 -55 120t-142 49q-121 0 -204 -79q-4 -4 -7 0l-6 8q-3 4 0 7q89 84 218 84q94 0 155.5 -53.5t61.5 -135.5z" />
    <glyph glyph-name="uni0418" unicode="&#x418;" horiz-adv-x="699" 
d="M594 0h-11q-5 0 -5 5v676l-453 -678q-1 -3 -6 -3h-14q-5 0 -5 5v705q0 5 5 5h11q5 0 5 -5v-676l453 678q2 3 6 3h14q5 0 5 -5v-705q0 -5 -5 -5z" />
    <glyph glyph-name="uni0419" unicode="&#x419;" horiz-adv-x="699" 
d="M499 931q-8 -63 -47.5 -103t-101.5 -40t-101.5 40t-46.5 103q-1 4 4 6l9 2q4 1 6 -4q6 -58 39.5 -93t89.5 -35t89.5 35t39.5 93q2 5 6 4l9 -2q5 -2 5 -6zM583 0h11q5 0 5 5v705q0 5 -5 5h-14q-4 0 -6 -3l-453 -678v676q0 5 -5 5h-11q-5 0 -5 -5v-705q0 -5 5 -5h14
q5 0 6 3l453 678v-676q0 -5 5 -5z" />
    <glyph glyph-name="uni041A" unicode="&#x41a;" horiz-adv-x="602" 
d="M116 0h-11q-5 0 -5 5v705q0 5 5 5h11q5 0 5 -5v-408l421 410q3 3 7 3h16q9 0 3 -6l-325 -317l344 -386q5 -6 -3 -6h-16q-4 0 -6 3l-334 375l-107 -104v-269q0 -5 -5 -5z" />
    <glyph glyph-name="uni041B" unicode="&#x41b;" horiz-adv-x="626" 
d="M154 204q-15 -113 -48 -159t-95 -48q-5 0 -5 5v10q0 5 5 5q52 2 80.5 43.5t41.5 146.5q19 150 26 503q0 5 5 5h357q5 0 5 -5v-705q0 -5 -5 -5h-11q-5 0 -5 5v690h-326q-6 -332 -25 -491z" />
    <glyph glyph-name="uni041C" unicode="&#x41c;" horiz-adv-x="838" 
d="M116 0h-11q-5 0 -5 5v705q0 5 5 5h17q4 0 6 -3l221 -385l70 -123l69 120l222 388q2 3 6 3h17q5 0 5 -5v-705q0 -5 -5 -5h-11q-5 0 -5 5v678l-93 -162l-195 -341q-1 -3 -6 -3h-8q-5 0 -6 3l-195 341l-93 162v-678q0 -5 -5 -5z" />
    <glyph glyph-name="uni041D" unicode="&#x41d;" horiz-adv-x="672" 
d="M551 375v335q0 5 5 5h11q5 0 5 -5v-705q0 -5 -5 -5h-11q-5 0 -5 5v350h-430v-350q0 -5 -5 -5h-11q-5 0 -5 5v705q0 5 5 5h11q5 0 5 -5v-335h430z" />
    <glyph glyph-name="uni041E" unicode="&#x41e;" horiz-adv-x="666" 
d="M591 218q0 -98 -72 -163t-186 -65t-186 65t-72 163v270q0 105 71 171t187 66t187 -66t71 -171v-270zM96 218q0 -90 65.5 -149t171.5 -59t171.5 59t65.5 149v270q0 97 -65 157t-172 60t-172 -60t-65 -157v-270z" />
    <glyph glyph-name="uni041F" unicode="&#x41f;" horiz-adv-x="672" 
d="M116 0h-11q-5 0 -5 5v705q0 5 5 5h462q5 0 5 -5v-705q0 -5 -5 -5h-11q-5 0 -5 5v690h-430v-690q0 -5 -5 -5z" />
    <glyph glyph-name="uni0420" unicode="&#x420;" horiz-adv-x="609" 
d="M105 715h218q117 0 180 -57t63 -158q0 -102 -63.5 -158t-179.5 -56h-202v-281q0 -5 -5 -5h-11q-5 0 -5 5v705q0 5 5 5zM121 306h200q110 0 167 50t57 144t-57.5 144.5t-166.5 50.5h-200v-389z" />
    <glyph glyph-name="uni0421" unicode="&#x421;" horiz-adv-x="575" 
d="M536 74q-93 -84 -223 -84q-114 0 -176 65.5t-62 169.5v265q0 104 61.5 169.5t173.5 65.5q120 0 211 -75q5 -3 1 -7l-6 -8q-3 -3 -7 -1q-88 71 -200 71q-103 0 -158 -59.5t-55 -155.5v-265q0 -96 56 -155.5t160 -59.5q121 0 212 80q4 4 7 0l6 -9q4 -4 -1 -7z" />
    <glyph glyph-name="uni0422" unicode="&#x422;" horiz-adv-x="527" 
d="M17 715h493q5 0 5 -5v-10q0 -5 -5 -5h-238v-690q0 -5 -5 -5h-11q-5 0 -5 5v690h-234q-5 0 -5 5v10q0 5 5 5z" />
    <glyph glyph-name="uni0423" unicode="&#x423;" horiz-adv-x="507" 
d="M175 0h-13q-5 0 -3 6l101 222l-249 481q-3 6 4 6h12q5 0 6 -4l238 -460l207 460q2 4 6 4h13q5 0 3 -6l-319 -705q-2 -4 -6 -4z" />
    <glyph glyph-name="uni0424" unicode="&#x424;" horiz-adv-x="841" 
d="M426 -61h-11q-5 0 -5 5v91h-84q-48 0 -92.5 16t-81.5 47t-59.5 84.5t-22.5 121.5v106q0 68 22.5 121t60 84t81.5 47t92 16h84v85q0 5 5 5h11q5 0 5 -5v-85h83q65 0 121.5 -26.5t96 -89t39.5 -152.5v-106q0 -68 -22.5 -121.5t-60 -84.5t-82 -47t-92.5 -16h-83v-91
q0 -5 -5 -5zM91 304q0 -123 69.5 -186t165.5 -63h84v603h-84q-45 0 -86 -14.5t-75 -43.5t-54 -78t-20 -112v-106zM431 658v-603h83q45 0 86 14.5t75 43.5t54.5 78.5t20.5 112.5v106q0 122 -69.5 185t-166.5 63h-83z" />
    <glyph glyph-name="uni0425" unicode="&#x425;" horiz-adv-x="569" 
d="M299 361l245 -355q4 -6 -3 -6h-14q-5 0 -6 3l-236 342l-237 -342q-2 -3 -6 -3h-14q-7 0 -3 6l246 355l-235 348q-4 6 3 6h14q5 0 6 -3l226 -335l225 335q2 3 6 3h14q7 0 3 -6z" />
    <glyph glyph-name="uni0426" unicode="&#x426;" horiz-adv-x="675" 
d="M633 -131h-11q-5 0 -5 5v126h-512q-5 0 -5 5v705q0 5 5 5h11q5 0 5 -5v-690h420v690q0 5 5 5h11q5 0 5 -5v-690h71q5 0 5 -5v-141q0 -5 -5 -5z" />
    <glyph glyph-name="uni0427" unicode="&#x427;" horiz-adv-x="607" 
d="M502 0h-11q-5 0 -5 5v300q-94 -44 -177 -44q-117 0 -182.5 58.5t-65.5 159.5v231q0 5 5 5h11q5 0 5 -5v-231q0 -92 59 -145t168 -53q81 0 177 45v384q0 5 5 5h11q5 0 5 -5v-705q0 -5 -5 -5z" />
    <glyph glyph-name="uni0428" unicode="&#x428;" horiz-adv-x="953" 
d="M848 0h-743q-5 0 -5 5v705q0 5 5 5h11q5 0 5 -5v-690h345v690q0 5 5 5h11q5 0 5 -5v-690h345v690q0 5 5 5h11q5 0 5 -5v-705q0 -5 -5 -5z" />
    <glyph glyph-name="uni0429" unicode="&#x429;" horiz-adv-x="966" 
d="M924 -131h-11q-5 0 -5 5v126h-803q-5 0 -5 5v705q0 5 5 5h11q5 0 5 -5v-690h345v690q0 5 5 5h11q5 0 5 -5v-690h345v690q0 5 5 5h11q5 0 5 -5v-690h71q5 0 5 -5v-141q0 -5 -5 -5z" />
    <glyph glyph-name="uni042A" unicode="&#x42a;" horiz-adv-x="670" 
d="M383 0h-208q-5 0 -5 5v690h-151q-5 0 -5 5v10q0 5 5 5h167q5 0 5 -5v-275h192q119 0 180.5 -55.5t61.5 -157.5q0 -107 -61.5 -164.5t-180.5 -57.5zM191 415v-395h192q221 0 221 202q0 93 -55 143t-166 50h-192z" />
    <glyph glyph-name="uni042B" unicode="&#x42b;" horiz-adv-x="843" 
d="M313 0h-208q-5 0 -5 5v705q0 5 5 5h11q5 0 5 -5v-274h192q119 0 180.5 -56t61.5 -158q0 -107 -61.5 -164.5t-180.5 -57.5zM738 0h-11q-5 0 -5 5v705q0 5 5 5h11q5 0 5 -5v-705q0 -5 -5 -5zM121 416v-396h192q221 0 221 202q0 94 -55 144t-166 50h-192z" />
    <glyph glyph-name="uni042C" unicode="&#x42c;" horiz-adv-x="600" 
d="M313 0h-208q-5 0 -5 5v705q0 5 5 5h11q5 0 5 -5v-274h192q119 0 180.5 -56.5t61.5 -159.5q0 -107 -61.5 -163.5t-180.5 -56.5zM121 416v-396h192q221 0 221 200q0 95 -55 145.5t-166 50.5h-192z" />
    <glyph glyph-name="uni042D" unicode="&#x42d;" horiz-adv-x="582" 
d="M45 74q-5 3 -1 7l6 9q4 4 7 0q91 -80 212 -80q104 0 160 59.5t56 155.5v123h-353q-5 0 -5 5v10q0 5 5 5h353v122q0 96 -55 155.5t-158 59.5q-113 0 -200 -72q-4 -2 -7 1l-6 9q-4 4 1 7q91 75 211 75q112 0 173.5 -65t61.5 -170v-265q0 -105 -62 -170t-176 -65
q-130 0 -223 84z" />
    <glyph glyph-name="uni042E" unicode="&#x42e;" horiz-adv-x="884" 
d="M809 218q0 -98 -70.5 -163t-181.5 -65t-181.5 65t-70.5 163v137h-184v-350q0 -5 -5 -5h-11q-5 0 -5 5v705q0 5 5 5h11q5 0 5 -5v-335h184v113q0 105 69.5 171t182.5 66t182.5 -66t69.5 -171v-270zM326 218q0 -90 64 -149t167 -59t167 59t64 149v270q0 97 -63.5 157
t-167.5 60t-167.5 -60t-63.5 -157v-270z" />
    <glyph glyph-name="uni042F" unicode="&#x42f;" horiz-adv-x="622" 
d="M59 503q0 99 63.5 155.5t177.5 56.5h216q5 0 5 -5v-705q0 -5 -5 -5h-11q-5 0 -5 5v284h-190l-236 -286q-2 -3 -6 -3h-15q-7 0 -3 6l233 283q-106 4 -165 59t-59 155zM300 309h200v386h-200q-105 0 -162.5 -50.5t-57.5 -141.5q0 -94 57 -144t163 -50z" />
    <glyph glyph-name="uni0430" unicode="&#x430;" horiz-adv-x="497" 
d="M67 472q71 51 176 51q92 0 137 -48.5t45 -133.5v-309q0 -5 -4 -6q-82 -36 -178 -36q-90 0 -146.5 43.5t-56.5 115.5q0 74 53 115t150 41q74 0 162 -21v57q0 163 -162 163q-93 0 -165 -46q-4 -2 -7 1l-4 7q-2 5 0 6zM60 149q0 -63 51 -101.5t132 -38.5q84 0 162 30v227
q-82 20 -162 20q-88 0 -135.5 -35.5t-47.5 -101.5z" />
    <glyph glyph-name="uni0431" unicode="&#x431;" horiz-adv-x="525" 
d="M94 428q76 59 178 59q92 0 143.5 -55t51.5 -153v-93q0 -88 -54 -142t-142 -54t-142.5 54t-54.5 142v318q0 77 49 127.5t128 66.5q2 0 29 4.5t46 8.5t46 12t44 17q5 2 7 -2l4 -9q2 -5 -2 -6q-17 -9 -43.5 -17t-47 -12t-46.5 -9t-32 -6q-79 -17 -120.5 -62t-41.5 -113v-76z
M271 9q80 0 128 48.5t48 128.5v93q0 90 -46 139.5t-129 49.5q-104 0 -178 -62v-220q0 -80 48.5 -128.5t128.5 -48.5z" />
    <glyph glyph-name="uni0432" unicode="&#x432;" horiz-adv-x="515" 
d="M282 0h-198q-5 0 -5 5v503q0 5 5 5h197q82 0 122.5 -36t40.5 -89q0 -46 -29.5 -78.5t-78.5 -40.5q59 -10 94 -43t35 -87q0 -62 -46.5 -100.5t-136.5 -38.5zM99 494v-217h182q64 0 103.5 30t39.5 81q0 46 -35 76t-108 30h-182zM99 258v-239h183q82 0 122.5 33t40.5 87
q0 56 -45 87.5t-118 31.5h-183z" />
    <glyph glyph-name="uni0433" unicode="&#x433;" horiz-adv-x="389" 
d="M94 0h-10q-5 0 -5 5v503q0 5 5 5h285q5 0 5 -5v-9q0 -5 -5 -5h-270v-489q0 -5 -5 -5z" />
    <glyph glyph-name="uni0434" unicode="&#x434;" horiz-adv-x="530" 
d="M24 -138h-10q-5 0 -5 5v147q0 5 5 5h23q42 18 63 121.5t30 367.5q0 5 5 5h300q5 0 5 -5v-489h54q5 0 5 -5v-147q0 -5 -5 -5h-10q-5 0 -5 5v133h-450v-133q0 -5 -5 -5zM149 494q-13 -440 -84 -475h355v475h-271z" />
    <glyph glyph-name="uni0435" unicode="&#x435;" horiz-adv-x="505" 
d="M452 335v-88q0 -5 -5 -5h-367v-71q0 -74 51 -118t125 -44q95 0 174 73q4 3 7 -1l6 -6q4 -4 0 -7q-84 -78 -187 -78q-82 0 -139 50t-57 131v164q0 87 53 137.5t143 50.5q89 0 142.5 -50.5t53.5 -137.5zM432 335q0 79 -48 124t-128 45q-82 0 -129 -44.5t-47 -124.5v-74h352
v74z" />
    <glyph glyph-name="uni0436" unicode="&#x436;" horiz-adv-x="714" 
d="M691 0h-13q-4 0 -6 3l-221 269l-84 -88v-179q0 -5 -5 -5h-10q-5 0 -5 5v179l-84 88l-221 -269q-2 -3 -6 -3h-13q-7 0 -3 6l229 280l-213 221q-6 6 3 6h13q4 0 7 -3l288 -299v297q0 5 5 5h10q5 0 5 -5v-297l288 299q3 3 7 3h13q9 0 3 -6l-213 -221l229 -280q4 -6 -3 -6z
" />
    <glyph glyph-name="uni0437" unicode="&#x437;" horiz-adv-x="470" 
d="M400 394q0 -91 -96 -122q54 -12 85 -46.5t31 -83.5q0 -66 -55.5 -109t-141.5 -43q-102 0 -188 68q-5 3 -1 7l6 7q3 4 7 1q42 -32 81 -48t95 -16q76 0 126.5 38.5t50.5 94.5q0 51 -40.5 85t-106.5 34h-127q-5 0 -5 5v9q0 5 5 5h121q61 0 97 33t36 81q0 51 -44 80.5
t-111 29.5q-103 0 -169 -54q-4 -2 -7 1l-5 7q-4 4 1 7q70 58 180 58q75 0 125 -35.5t50 -93.5z" />
    <glyph glyph-name="uni0438" unicode="&#x438;" horiz-adv-x="557" 
d="M97 0h-13q-5 0 -5 5v503q0 5 5 5h10q5 0 5 -5v-478q6 8 13.5 18.5t30 41t55.5 74t101.5 136.5t155.5 210q1 3 6 3h12q5 0 5 -5v-503q0 -5 -5 -5h-10q-5 0 -5 5v477l-355 -479q-1 -3 -6 -3z" />
    <glyph glyph-name="uni0439" unicode="&#x439;" horiz-adv-x="557" 
d="M97 0h-13q-5 0 -5 5v503q0 5 5 5h10q5 0 5 -5v-478q6 8 13.5 18.5t30 41t55.5 74t101.5 136.5t155.5 210q1 3 6 3h12q5 0 5 -5v-503q0 -5 -5 -5h-10q-5 0 -5 5v477l-355 -479q-1 -3 -6 -3zM421 741q-7 -60 -45 -98.5t-97 -38.5t-97 38.5t-45 98.5q-2 5 4 6l10 1q5 0 6 -4
q7 -55 38.5 -88t83.5 -33t83.5 33t38.5 88q2 5 6 4l10 -1q6 0 4 -6z" />
    <glyph glyph-name="uni043A" unicode="&#x43a;" horiz-adv-x="478" 
d="M461 0h-16q-3 0 -6 3l-246 264l-94 -86v-176q0 -5 -5 -5h-10q-5 0 -5 5v503q0 5 5 5h10q5 0 5 -5v-302l329 305q2 2 7 2h15q8 0 2 -6l-245 -227l256 -274q4 -6 -2 -6z" />
    <glyph glyph-name="uni043B" unicode="&#x43b;" horiz-adv-x="539" 
d="M136 185q-12 -107 -40 -146t-84 -41q-5 0 -5 5v9q0 5 5 5q47 2 70.5 37.5t34.5 138.5q12 103 24 315q0 5 5 5h309q5 0 5 -5v-503q0 -5 -5 -5h-10q-5 0 -5 5v489h-280q-9 -169 -24 -309z" />
    <glyph glyph-name="uni043C" unicode="&#x43c;" horiz-adv-x="646" 
d="M94 0h-10q-5 0 -5 5v503q0 5 5 5h12q4 0 6 -3l221 -385l221 385q2 3 6 3h12q5 0 5 -5v-503q0 -5 -5 -5h-10q-5 0 -5 5v471l-212 -368q-1 -3 -6 -3h-12q-5 0 -6 3l-212 368v-471q0 -5 -5 -5z" />
    <glyph glyph-name="uni043D" unicode="&#x43d;" horiz-adv-x="533" 
d="M94 0h-10q-5 0 -5 5v503q0 5 5 5h10q5 0 5 -5v-233h335v233q0 5 5 5h10q5 0 5 -5v-503q0 -5 -5 -5h-10q-5 0 -5 5v251h-335v-251q0 -5 -5 -5z" />
    <glyph glyph-name="uni043E" unicode="&#x43e;" horiz-adv-x="530" 
d="M470 176q0 -81 -53.5 -133.5t-151.5 -52.5t-151.5 52.5t-53.5 133.5v162q0 80 54 132.5t151 52.5q98 0 151.5 -52.5t53.5 -132.5v-162zM80 176q0 -73 48 -120t137 -47q90 0 137.5 47t47.5 120v162q0 72 -47.5 119t-137.5 47q-89 0 -137 -47t-48 -119v-162z" />
    <glyph glyph-name="uni043F" unicode="&#x43f;" horiz-adv-x="533" 
d="M84 513h365q5 0 5 -5v-503q0 -5 -5 -5h-10q-5 0 -5 5v489h-335v-489q0 -5 -5 -5h-10q-5 0 -5 5v503q0 5 5 5z" />
    <glyph glyph-name="uni0440" unicode="&#x440;" horiz-adv-x="528" 
d="M81 487q85 36 180 36q209 0 209 -213v-105q0 -215 -209 -215q-91 0 -163 49v-224q0 -5 -5 -5h-10q-5 0 -5 5v667q0 4 3 5zM261 9q189 0 189 196v105q0 194 -189 194q-83 0 -163 -30v-413q76 -52 163 -52z" />
    <glyph glyph-name="uni0441" unicode="&#x441;" horiz-adv-x="462" 
d="M429 53q-78 -63 -174 -63q-89 0 -142 52.5t-53 130.5v167q0 78 53 130.5t142 52.5q87 0 160 -54q5 -3 1 -7l-5 -7q-3 -3 -7 -1q-69 50 -150 50q-82 0 -128 -47t-46 -117v-167q0 -70 47 -117t127 -47q87 0 164 59q4 2 7 -1l5 -7q4 -4 -1 -7z" />
    <glyph glyph-name="uni0442" unicode="&#x442;" horiz-adv-x="432" 
d="M221 0h-10q-5 0 -5 5v489h-186q-5 0 -5 5v9q0 5 5 5h392q5 0 5 -5v-9q0 -5 -5 -5h-186v-489q0 -5 -5 -5z" />
    <glyph glyph-name="uni0443" unicode="&#x443;" horiz-adv-x="538" 
d="M439 78v430q0 5 5 5h10q5 0 5 -5v-530q0 -80 -47.5 -129t-141.5 -49q-98 0 -185 80q-3 4 0 7l6 7q3 4 7 0q82 -75 172 -75q86 0 127.5 43t41.5 116v80q-70 -38 -159 -38q-97 0 -151.5 48.5t-54.5 142.5v297q0 5 5 5h10q5 0 5 -5v-297q0 -86 49 -129t138 -43q85 0 158 39z
" />
    <glyph glyph-name="uni0444" unicode="&#x444;" horiz-adv-x="704" 
d="M357 -190h-10q-5 0 -5 5v185h-94q-86 0 -137.5 52.5t-51.5 141.5v125q0 89 51.5 141.5t137.5 52.5h94v197q0 5 5 5h10q5 0 5 -5v-197h94q86 0 137.5 -52.5t51.5 -141.5v-125q0 -89 -51.5 -141.5t-137.5 -52.5h-94v-185q0 -5 -5 -5zM79 194q0 -81 45.5 -128t121.5 -47h96
v475h-96q-76 0 -121.5 -47t-45.5 -128v-125zM362 19h96q76 0 121.5 47t45.5 128v125q0 81 -45.5 128t-121.5 47h-96v-475z" />
    <glyph glyph-name="uni0445" unicode="&#x445;" horiz-adv-x="464" 
d="M244 263l197 -257q4 -6 -3 -6h-13q-5 0 -6 3l-188 245l-188 -245q-1 -3 -6 -3h-13q-7 0 -3 6l197 257l-185 244q-4 6 3 6h13q5 0 6 -3l176 -232l176 232q1 3 6 3h13q7 0 3 -6z" />
    <glyph glyph-name="uni0446" unicode="&#x446;" horiz-adv-x="544" 
d="M509 -131h-10q-5 0 -5 5v126h-410q-5 0 -5 5v503q0 5 5 5h10q5 0 5 -5v-489h335v489q0 5 5 5h10q5 0 5 -5v-489h55q5 0 5 -5v-140q0 -5 -5 -5z" />
    <glyph glyph-name="uni0447" unicode="&#x447;" horiz-adv-x="501" 
d="M417 0h-10q-5 0 -5 5v214q-82 -36 -165 -36q-89 0 -137.5 50t-48.5 145v130q0 5 5 5h10q5 0 5 -5v-130q0 -87 42.5 -131.5t123.5 -44.5q80 0 165 37v269q0 5 5 5h10q5 0 5 -5v-503q0 -5 -5 -5z" />
    <glyph glyph-name="uni0448" unicode="&#x448;" horiz-adv-x="778" 
d="M694 0h-610q-5 0 -5 5v504q0 5 5 5h10q5 0 5 -5v-490h280v490q0 5 5 5h10q5 0 5 -5v-490h280v490q0 5 5 5h10q5 0 5 -5v-504q0 -5 -5 -5z" />
    <glyph glyph-name="uni0449" unicode="&#x449;" horiz-adv-x="789" 
d="M754 -131h-10q-5 0 -5 5v126h-655q-5 0 -5 5v504q0 5 5 5h10q5 0 5 -5v-490h280v490q0 5 5 5h10q5 0 5 -5v-490h280v490q0 5 5 5h10q5 0 5 -5v-490h55q5 0 5 -5v-140q0 -5 -5 -5z" />
    <glyph glyph-name="uni044A" unicode="&#x44a;" horiz-adv-x="561" 
d="M338 0h-185q-5 0 -5 5v489h-128q-5 0 -5 5v9q0 5 5 5h143q5 0 5 -5v-177h170q87 0 135.5 -45.5t48.5 -123.5q0 -79 -47.5 -120.5t-136.5 -41.5zM168 312v-293h170q164 0 164 143q0 70 -42.5 110t-121.5 40h-170z" />
    <glyph glyph-name="uni044B" unicode="&#x44b;" horiz-adv-x="635" 
d="M269 0h-185q-5 0 -5 5v503q0 5 5 5h10q5 0 5 -5v-177h170q87 0 135.5 -45.5t48.5 -123.5q0 -79 -47.5 -120.5t-136.5 -41.5zM99 312v-293h170q164 0 164 143q0 70 -42.5 110t-121.5 40h-170zM551 0h-10q-5 0 -5 5v503q0 5 5 5h10q5 0 5 -5v-503q0 -5 -5 -5z" />
    <glyph glyph-name="uni044C" unicode="&#x44c;" horiz-adv-x="492" 
d="M269 0h-185q-5 0 -5 5v503q0 5 5 5h10q5 0 5 -5v-177h170q87 0 135.5 -45.5t48.5 -123.5q0 -79 -47.5 -120.5t-136.5 -41.5zM99 312v-293h170q164 0 164 143q0 70 -42.5 110t-121.5 40h-170z" />
    <glyph glyph-name="uni044D" unicode="&#x44d;" horiz-adv-x="472" 
d="M219 9q78 0 125 46t47 111v92h-274q-5 0 -5 5v9q0 5 5 5h274v70q0 65 -46.5 111t-125.5 46q-87 0 -163 -50q-4 -2 -7 1l-4 7q-4 4 1 7q79 54 172 54q88 0 140.5 -51.5t52.5 -124.5v-181q0 -73 -53 -124.5t-140 -51.5q-101 0 -182 63q-5 3 -1 7l5 8q3 3 7 1
q79 -60 172 -60z" />
    <glyph glyph-name="uni044E" unicode="&#x44e;" horiz-adv-x="692" 
d="M241 346q0 75 51.5 126t143.5 51t143.5 -51t51.5 -126v-177q0 -75 -51.5 -127t-143.5 -52t-143.5 52t-51.5 127v88h-142v-252q0 -5 -5 -5h-10q-5 0 -5 5v503q0 5 5 5h10q5 0 5 -5v-232h142v70zM436 9q84 0 129.5 46.5t45.5 113.5v177q0 67 -45.5 112.5t-129.5 45.5
t-129.5 -46t-45.5 -112v-177q0 -67 46 -113.5t129 -46.5z" />
    <glyph glyph-name="uni044F" unicode="&#x44f;" horiz-adv-x="497" 
d="M60 0h-16q-6 0 -2 6l181 196q-80 1 -127.5 42t-47.5 114q0 76 49 116t139 40h176q5 0 5 -5v-504q0 -5 -5 -5h-10q-5 0 -5 5v196h-149l-182 -198q-3 -3 -6 -3zM68 358q0 -66 43.5 -102t124.5 -36h161v275h-161q-168 0 -168 -137z" />
    <glyph glyph-name="uni0451" unicode="&#x451;" horiz-adv-x="505" 
d="M192 650q0 -20 -20 -20t-20 20t20 20t20 -20zM360 650q0 -20 -20 -20t-20 20t20 20t20 -20zM452 335v-88q0 -5 -5 -5h-367v-71q0 -74 51 -118t125 -44q95 0 174 73q4 3 7 -1l6 -6q4 -4 0 -7q-84 -78 -187 -78q-82 0 -139 50t-57 131v164q0 87 53 137.5t143 50.5
q89 0 142.5 -50.5t53.5 -137.5zM432 335q0 79 -48 124t-128 45q-82 0 -129 -44.5t-47 -124.5v-74h352v74z" />
    <glyph glyph-name="uni0452" unicode="&#x452;" horiz-adv-x="546" 
d="M99 482q82 41 164 41q100 0 154.5 -50.5t54.5 -148.5v-362q0 -161 -120 -161q-2 0 -47 3q-5 2 -5 6v9q0 6 5 4q24 -3 45 -3q49 0 75.5 32t26.5 106v366q0 180 -189 180q-83 0 -164 -42v-457q0 -5 -5 -5h-10q-5 0 -5 5v603h-78q-5 0 -5 5v8q0 5 5 5h78v84q0 5 5 5h10
q5 0 5 -5v-84h187q5 0 5 -5v-8q0 -5 -5 -5h-187v-126z" />
    <glyph glyph-name="uni0453" unicode="&#x453;" horiz-adv-x="389" 
d="M94 0h-10q-5 0 -5 5v503q0 5 5 5h285q5 0 5 -5v-9q0 -5 -5 -5h-270v-489q0 -5 -5 -5zM205 600h-8q-9 0 -4 6l83 134q2 3 6 3h15q6 0 3 -6l-89 -134q-1 -3 -6 -3z" />
    <glyph glyph-name="uni0454" unicode="&#x454;" horiz-adv-x="472" 
d="M253 9q93 0 172 60q4 2 7 -1l5 -8q4 -4 -1 -7q-81 -63 -182 -63q-87 0 -140 51.5t-53 124.5v181q0 73 52.5 124.5t140.5 51.5q93 0 172 -54q5 -3 1 -7l-4 -7q-3 -3 -7 -1q-76 50 -163 50q-79 0 -125.5 -46t-46.5 -111v-70h274q5 0 5 -5v-9q0 -5 -5 -5h-274v-92
q0 -65 47 -111t125 -46z" />
    <glyph glyph-name="uni0455" unicode="&#x455;" horiz-adv-x="459" 
d="M418 131q0 -63 -48.5 -102t-137.5 -39q-105 0 -188 64q-5 3 -1 7l5 8q3 3 7 1q81 -61 177 -61q76 0 121 32t45 90q0 25 -11 45t-24 31.5t-39.5 21t-43 14t-48.5 10.5q-37 7 -65 16.5t-57 25.5t-44.5 42t-15.5 60q0 57 47.5 91.5t123.5 34.5q91 0 177 -49q4 -4 1 -7l-4 -8
q-2 -4 -7 -1q-80 46 -167 46q-66 0 -108.5 -28.5t-42.5 -78.5q0 -24 10 -43.5t25 -31.5t38.5 -22.5t44 -16t48.5 -11.5q34 -7 55 -13t48 -17t42 -24.5t26 -36t11 -50.5z" />
    <glyph glyph-name="uni0456" unicode="&#x456;" horiz-adv-x="178" 
d="M94 0h-10q-5 0 -5 5v503q0 5 5 5h10q5 0 5 -5v-503q0 -5 -5 -5zM109 650q0 -20 -20 -20t-20 20t20 20t20 -20z" />
    <glyph glyph-name="uni0457" unicode="&#x457;" horiz-adv-x="178" 
d="M94 0h-10q-5 0 -5 5v503q0 5 5 5h10q5 0 5 -5v-503q0 -5 -5 -5zM47 650q0 -20 -20 -20t-20 20t20 20t20 -20zM171 650q0 -20 -20 -20t-20 20t20 20t20 -20z" />
    <glyph glyph-name="uni0458" unicode="&#x458;" horiz-adv-x="186" 
d="M107 -39q0 -161 -120 -161q-31 0 -52 5q-5 2 -5 6v8q0 3 1 4.5t4 0.5q22 -5 52 -5q100 0 100 142v547q0 5 5 5h10q5 0 5 -5v-547zM117 650q0 -20 -20 -20t-20 20t20 20t20 -20z" />
    <glyph glyph-name="uni0459" unicode="&#x459;" horiz-adv-x="843" 
d="M136 185q-13 -108 -41 -147.5t-83 -39.5q-5 0 -5 5v9q0 5 5 5q46 0 68.5 35.5t36.5 140.5q11 84 24 315q0 5 5 5h304q5 0 5 -5v-177h165q87 0 135.5 -45.5t48.5 -123.5q0 -79 -47.5 -120.5t-136.5 -41.5h-180q-5 0 -5 5v489h-275q-10 -195 -24 -309zM455 312v-293h165
q164 0 164 143q0 70 -42.5 110t-121.5 40h-165z" />
    <glyph glyph-name="uni045A" unicode="&#x45a;" horiz-adv-x="815" 
d="M94 0h-10q-5 0 -5 5v503q0 5 5 5h10q5 0 5 -5v-207h318v207q0 5 5 5h10q5 0 5 -5v-207h160q86 0 133.5 -40.5t47.5 -110.5q0 -73 -47 -111.5t-134 -38.5h-175q-5 0 -5 5v277h-318v-277q0 -5 -5 -5zM437 282v-263h160q161 0 161 131q0 62 -41.5 97t-119.5 35h-160z" />
    <glyph glyph-name="uni045B" unicode="&#x45b;" horiz-adv-x="546" 
d="M99 482q82 41 164 41q100 0 154.5 -50.5t54.5 -148.5v-319q0 -5 -5 -5h-10q-5 0 -5 5v319q0 180 -189 180q-83 0 -164 -42v-457q0 -5 -5 -5h-10q-5 0 -5 5v603h-78q-5 0 -5 5v9q0 5 5 5h78v83q0 5 5 5h10q5 0 5 -5v-83h187q5 0 5 -5v-9q0 -5 -5 -5h-187v-126z" />
    <glyph glyph-name="uni045C" unicode="&#x45c;" horiz-adv-x="478" 
d="M461 0h-16q-3 0 -6 3l-246 264l-94 -86v-176q0 -5 -5 -5h-10q-5 0 -5 5v503q0 5 5 5h10q5 0 5 -5v-302l329 305q2 2 7 2h15q8 0 2 -6l-245 -227l256 -274q4 -6 -2 -6zM230 600h-8q-9 0 -4 6l83 134q1 3 6 3h15q6 0 3 -6l-89 -134q-2 -3 -6 -3z" />
    <glyph glyph-name="uni045D" unicode="&#x45d;" horiz-adv-x="557" 
d="M97 0h-13q-5 0 -5 5v503q0 5 5 5h10q5 0 5 -5v-478q6 8 13.5 18.5t30 41t55.5 74t101.5 136.5t155.5 210q1 3 6 3h12q5 0 5 -5v-503q0 -5 -5 -5h-10q-5 0 -5 5v477l-355 -479q-1 -3 -6 -3zM296 605h-8q-4 0 -6 3l-89 134q-3 6 3 6h15q5 0 6 -3l83 -134q4 -6 -4 -6z" />
    <glyph glyph-name="uni045E" unicode="&#x45e;" horiz-adv-x="538" 
d="M409 736q-7 -60 -45 -98.5t-97 -38.5t-97 38.5t-45 98.5q-2 5 4 6l10 1q5 0 6 -4q7 -55 38.5 -88t83.5 -33t83.5 33t38.5 88q2 5 6 4l10 -1q6 0 4 -6zM439 78v430q0 5 5 5h10q5 0 5 -5v-530q0 -80 -47.5 -129t-141.5 -49q-98 0 -185 80q-3 4 0 7l6 7q3 4 7 0
q82 -75 172 -75q86 0 127.5 43t41.5 116v80q-70 -38 -159 -38q-97 0 -151.5 48.5t-54.5 142.5v297q0 5 5 5h10q5 0 5 -5v-297q0 -86 49 -129t138 -43q85 0 158 39z" />
    <glyph glyph-name="uni045F" unicode="&#x45f;" horiz-adv-x="534" 
d="M440 513h10q5 0 5 -5v-503q0 -5 -5 -5h-173v-126q0 -5 -5 -5h-9q-5 0 -5 5v126h-174q-5 0 -5 5v503q0 5 5 5h10q5 0 5 -5v-489h336v489q0 5 5 5z" />
    <glyph glyph-name="uni0490" unicode="&#x490;" horiz-adv-x="472" 
d="M116 0h-11q-5 0 -5 5v705q0 5 5 5h335v135q0 5 5 5h10q5 0 5 -5v-150q0 -5 -5 -5h-334v-690q0 -5 -5 -5z" />
    <glyph glyph-name="uni0491" unicode="&#x491;" horiz-adv-x="389" 
d="M355 513v111q0 5 5 5h9q5 0 5 -5v-125q0 -5 -5 -5h-270v-489q0 -5 -5 -5h-10q-5 0 -5 5v503q0 5 5 5h271z" />
    <glyph glyph-name="Wgrave" unicode="&#x1e80;" horiz-adv-x="928" 
d="M244 0h-16q-3 0 -5 4l-207 705q-2 6 4 6h12q3 0 5 -4l199 -683l217 669q2 4 5 4h12q3 0 5 -4l217 -669l199 683q2 4 5 4h12q6 0 4 -6l-207 -705q-2 -4 -5 -4h-16q-3 0 -5 4l-215 662l-215 -662q-2 -4 -5 -4zM482 793l-115 134q-5 6 3 6h17q5 0 6 -3l108 -134q4 -6 -3 -6
h-10q-4 0 -6 3z" />
    <glyph glyph-name="wgrave" unicode="&#x1e81;" horiz-adv-x="738" 
d="M191 0q-3 0 -5 4l-162 503q-2 6 4 6h11q3 0 5 -4l155 -481l158 469q2 4 5 4h14q3 0 5 -4l158 -469l155 481q2 4 5 4h11q6 0 4 -6l-162 -503q-2 -4 -5 -4h-15q-3 0 -5 4l-158 469l-158 -469q-2 -4 -5 -4h-15zM389 600h-8q-5 0 -6 3l-89 134q-3 6 3 6h15q4 0 6 -3l83 -134
q5 -6 -4 -6z" />
    <glyph glyph-name="Wacute" unicode="&#x1e82;" horiz-adv-x="928" 
d="M244 0h-16q-3 0 -5 4l-207 705q-2 6 4 6h12q3 0 5 -4l199 -683l217 669q2 4 5 4h12q3 0 5 -4l217 -669l199 683q2 4 5 4h12q6 0 4 -6l-207 -705q-2 -4 -5 -4h-16q-3 0 -5 4l-215 662l-215 -662q-2 -4 -5 -4zM565 927l-115 -134q-2 -3 -6 -3h-10q-7 0 -3 6l108 134
q1 3 6 3h17q8 0 3 -6z" />
    <glyph glyph-name="wacute" unicode="&#x1e83;" horiz-adv-x="738" 
d="M191 0q-3 0 -5 4l-162 503q-2 6 4 6h11q3 0 5 -4l155 -481l158 469q2 4 5 4h14q3 0 5 -4l158 -469l155 481q2 4 5 4h11q6 0 4 -6l-162 -503q-2 -4 -5 -4h-15q-3 0 -5 4l-158 469l-158 -469q-2 -4 -5 -4h-15zM338 600h-8q-8 0 -4 6l83 134q1 3 6 3h15q6 0 3 -6l-89 -134
q-2 -3 -6 -3z" />
    <glyph glyph-name="Wdieresis" unicode="&#x1e84;" horiz-adv-x="928" 
d="M593 859q0 -20 -20 -20t-20 20t20 20t20 -20zM375 859q0 -20 -20 -20t-20 20t20 20t20 -20zM244 0h-16q-3 0 -5 4l-207 705q-2 6 4 6h12q3 0 5 -4l199 -683l217 669q2 4 5 4h12q3 0 5 -4l217 -669l199 683q2 4 5 4h12q6 0 4 -6l-207 -705q-2 -4 -5 -4h-16q-3 0 -5 4
l-215 662l-215 -662q-2 -4 -5 -4z" />
    <glyph glyph-name="wdieresis" unicode="&#x1e85;" horiz-adv-x="738" 
d="M493 650q0 -20 -20 -20t-20 20t20 20t20 -20zM285 650q0 -20 -20 -20t-20 20t20 20t20 -20zM191 0q-3 0 -5 4l-162 503q-2 6 4 6h11q3 0 5 -4l155 -481l158 469q2 4 5 4h14q3 0 5 -4l158 -469l155 481q2 4 5 4h11q6 0 4 -6l-162 -503q-2 -4 -5 -4h-15q-3 0 -5 4l-158 469
l-158 -469q-2 -4 -5 -4h-15z" />
    <glyph glyph-name="Ygrave" unicode="&#x1ef2;" horiz-adv-x="529" 
d="M270 0h-11q-5 0 -5 5v281l-242 423q-3 6 4 6h12q4 0 6 -3l231 -404l231 404q2 3 6 3h12q7 0 4 -6l-243 -423v-281q0 -5 -5 -5zM283 793l-115 134q-4 6 3 6h17q4 0 6 -3l108 -134q4 -6 -3 -6h-10q-5 0 -6 3z" />
    <glyph glyph-name="ygrave" unicode="&#x1ef3;" horiz-adv-x="538" 
d="M439 78v430q0 5 5 5h10q5 0 5 -5v-530q0 -80 -47.5 -129t-141.5 -49q-98 0 -185 80q-3 4 0 7l6 7q3 4 7 0q82 -75 172 -75q86 0 127.5 43t41.5 116v80q-70 -38 -159 -38q-97 0 -151.5 48.5t-54.5 142.5v297q0 5 5 5h10q5 0 5 -5v-297q0 -86 49 -129t138 -43q85 0 158 39z
M291 600h-8q-5 0 -6 3l-89 134q-3 6 3 6h15q4 0 6 -3l83 -134q4 -6 -4 -6z" />
    <glyph glyph-name="endash" unicode="&#x2013;" horiz-adv-x="565" 
d="M498 313v-9q0 -5 -5 -5h-421q-5 0 -5 5v9q0 5 5 5h421q5 0 5 -5z" />
    <glyph glyph-name="emdash" unicode="&#x2014;" horiz-adv-x="907" 
d="M840 313v-9q0 -5 -5 -5h-763q-5 0 -5 5v9q0 5 5 5h763q5 0 5 -5z" />
    <glyph glyph-name="quoteleft" unicode="&#x2018;" horiz-adv-x="168" 
d="M55 552l51 159q2 4 5 4h7q6 0 5 -6l-44 -159q-2 -4 -5 -4h-15q-5 0 -4 6z" />
    <glyph glyph-name="quoteright" unicode="&#x2019;" horiz-adv-x="167" 
d="M124 709l-50 -159q-2 -4 -5 -4h-7q-6 0 -5 6l43 159q2 4 5 4h15q6 0 4 -6z" />
    <glyph glyph-name="quotesinglbase" unicode="&#x201a;" horiz-adv-x="158" 
d="M102 58l-50 -159q-2 -4 -5 -4h-7q-6 0 -5 6l43 159q2 4 5 4h15q6 0 4 -6z" />
    <glyph glyph-name="quotedblleft" unicode="&#x201c;" horiz-adv-x="258" 
d="M74 546h-15q-5 0 -4 6l51 159q2 4 5 4h7q6 0 5 -6l-44 -159q-2 -4 -5 -4zM164 546h-15q-5 0 -4 6l51 159q2 4 5 4h7q6 0 5 -6l-44 -159q-2 -4 -5 -4z" />
    <glyph glyph-name="quotedblright" unicode="&#x201d;" horiz-adv-x="257" 
d="M69 546h-7q-6 0 -5 6l43 159q2 4 5 4h15q6 0 4 -6l-50 -159q-2 -4 -5 -4zM159 546h-7q-6 0 -5 6l43 159q2 4 5 4h15q6 0 4 -6l-50 -159q-2 -4 -5 -4z" />
    <glyph glyph-name="quotedblbase" unicode="&#x201e;" horiz-adv-x="248" 
d="M47 -104h-7q-6 0 -5 6l43 159q2 4 5 4h15q6 0 4 -6l-50 -159q-2 -4 -5 -4zM137 -104h-7q-6 0 -5 6l43 159q2 4 5 4h15q6 0 4 -6l-50 -159q-2 -4 -5 -4z" />
    <glyph glyph-name="dagger" unicode="&#x2020;" horiz-adv-x="569" 
d="M290 -139h-11q-5 0 -5 5v622h-210q-5 0 -5 5v10q0 5 5 5h210v232q0 5 5 5h11q5 0 5 -5v-232h210q5 0 5 -5v-10q0 -5 -5 -5h-210v-622q0 -5 -5 -5z" />
    <glyph glyph-name="daggerdbl" unicode="&#x2021;" horiz-adv-x="569" 
d="M290 -139h-11q-5 0 -5 5v244h-210q-5 0 -5 5v10q0 5 5 5h210v358h-210q-5 0 -5 5v10q0 5 5 5h210v232q0 5 5 5h11q5 0 5 -5v-232h210q5 0 5 -5v-10q0 -5 -5 -5h-210v-358h210q5 0 5 -5v-10q0 -5 -5 -5h-210v-244q0 -5 -5 -5z" />
    <glyph glyph-name="bullet" unicode="&#x2022;" horiz-adv-x="268" 
d="M134 275q-34 0 -34 34t34 34t34 -34t-34 -34z" />
    <glyph glyph-name="ellipsis" unicode="&#x2026;" horiz-adv-x="483" 
d="M91 18q0 -20 -20 -20t-20 20t20 20t20 -20zM262 18q0 -20 -20 -20t-20 20t20 20t20 -20zM432 18q0 -20 -20 -20t-20 20t20 20t20 -20z" />
    <glyph glyph-name="perthousand" unicode="&#x2030;" horiz-adv-x="1067" 
d="M1016 101q0 -46 -33 -77.5t-85 -31.5t-85 31.5t-33 77.5v145q0 50 32.5 82t85.5 32t85.5 -32t32.5 -82v-145zM798 101q0 -38 28 -64.5t72 -26.5t72 26.5t28 64.5v145q0 42 -27.5 69t-72.5 27t-72.5 -27t-27.5 -69v-145zM296 460q0 -46 -33 -77.5t-85 -31.5t-85 31.5
t-33 77.5v145q0 50 32.5 82t85.5 32t85.5 -32t32.5 -82v-145zM111 0h-9q-8 0 -4 6l516 699q2 3 6 3h10q7 0 3 -6l-516 -699q-1 -3 -6 -3zM78 460q0 -38 28 -64.5t72 -26.5t72 26.5t28 64.5v145q0 42 -27.5 69t-72.5 27t-72.5 -27t-27.5 -69v-145zM696 101q0 -46 -33 -77.5
t-85 -31.5t-85 31.5t-33 77.5v145q0 50 32.5 82t85.5 32t85.5 -32t32.5 -82v-145zM478 101q0 -38 28 -64.5t72 -26.5t72 26.5t28 64.5v145q0 42 -27.5 69t-72.5 27t-72.5 -27t-27.5 -69v-145z" />
    <glyph glyph-name="guilsinglleft" unicode="&#x2039;" horiz-adv-x="261" 
d="M205 71h-12q-5 0 -6 3l-145 214q-2 3 0 6l145 214q1 3 6 3h12q7 0 3 -6l-145 -214l145 -214q4 -6 -3 -6z" />
    <glyph glyph-name="guilsinglright" unicode="&#x203a;" horiz-adv-x="260" 
d="M66 71h-12q-7 0 -3 6l145 214l-145 214q-4 6 3 6h12q4 0 6 -3l145 -214q1 -3 0 -6l-145 -214q-2 -3 -6 -3z" />
    <glyph glyph-name="fraction" unicode="&#x2044;" horiz-adv-x="160" 
d="M381 709l-587 -706q-2 -3 -6 -3h-7q-7 0 -3 6l587 706q1 3 6 3h7q7 0 3 -6z" />
    <glyph glyph-name="zero.sups" unicode="&#x2070;" horiz-adv-x="344" 
d="M295 519q0 -49 -34.5 -81.5t-88.5 -32.5t-88.5 32.5t-34.5 81.5v165q0 53 34 86t89 33t89 -33t34 -86v-165zM64 519q0 -43 30 -71t78 -28t78 28t30 71v165q0 47 -29.5 75.5t-78.5 28.5t-78.5 -28.5t-29.5 -75.5v-165z" />
    <glyph glyph-name="four.sups" unicode="&#x2074;" horiz-adv-x="302" 
d="M230 410h-5q-5 0 -5 5v98h-190q-5 0 -5 5v2q0 2 2 6l153 269q2 3 6 3h5q7 0 4 -6l-150 -264h175v98q0 5 5 5h5q5 0 5 -5v-98h36q5 0 5 -5v-5q0 -5 -5 -5h-36v-98q0 -5 -5 -5z" />
    <glyph glyph-name="five.sups" unicode="&#x2075;" horiz-adv-x="322" 
d="M284 539q0 -63 -32 -98.5t-87 -35.5q-75 0 -119 65q-1 4 3 7l3 2q5 3 7 -3q40 -56 106 -56q50 0 77 31t27 88q0 56 -27.5 84t-74.5 28q-56 0 -100 -50q-2 -2 -7 -2l-9 2q-4 1 -4 6l6 186q0 5 5 5h206q5 0 5 -5v-5q0 -5 -5 -5h-197l-5 -166q43 49 105 49q53 0 85 -32.5
t32 -94.5z" />
    <glyph glyph-name="six.sups" unicode="&#x2076;" horiz-adv-x="327" 
d="M289 536q0 -61 -31.5 -96t-84.5 -35q-56 0 -90 35t-34 96v153q0 52 32 83t86 31q51 0 102 -40q3 -3 0 -7l-3 -4q-4 -4 -7 0q-45 36 -92 36q-49 0 -76 -26t-27 -73v-92q12 26 41.5 43.5t66.5 17.5q54 0 85.5 -32t31.5 -90zM64 536q0 -55 30 -85.5t79 -30.5q47 0 74 31
t27 85q0 52 -27 79.5t-75 27.5t-78 -29.5t-30 -77.5z" />
    <glyph glyph-name="seven.sups" unicode="&#x2077;" horiz-adv-x="284" 
d="M77 410h-7q-5 0 -3 6l177 367h-216q-5 0 -5 5v5q0 5 5 5h230q5 0 5 -5v-1q0 -3 -1 -6l-180 -373q-2 -3 -5 -3z" />
    <glyph glyph-name="eight.sups" unicode="&#x2078;" horiz-adv-x="338" 
d="M296 516q0 -46 -36 -78.5t-91 -32.5t-91 32.5t-36 78.5q0 35 21.5 62t61.5 36q-73 19 -73 93q0 42 33 69t84 27t84 -27t33 -69q0 -74 -73 -93q40 -9 61.5 -36t21.5 -62zM67 707q0 -38 26 -62t76 -24t76 24t26 62q0 37 -29.5 59t-72.5 22t-72.5 -22t-29.5 -59zM57 517
q0 -40 31 -68.5t81 -28.5t81 28.5t31 68.5q0 39 -31 64t-81 25t-81 -25t-31 -64z" />
    <glyph glyph-name="nine.sups" unicode="&#x2079;" horiz-adv-x="330" 
d="M41 679q0 57 31.5 90.5t84.5 33.5q56 0 90 -34t34 -94v-156q0 -52 -32 -83t-86 -31q-63 0 -113 59q-4 4 0 7l4 4q4 3 7 0q43 -55 102 -55q49 0 76 26t27 73v96q-12 -28 -41.5 -46.5t-66.5 -18.5q-54 0 -85.5 33.5t-31.5 95.5zM266 675q0 54 -30 83.5t-79 29.5
q-47 0 -74 -29.5t-27 -79.5q0 -55 27 -84.5t75 -29.5t78 30.5t30 79.5z" />
    <glyph glyph-name="zero.sinf" unicode="&#x2080;" horiz-adv-x="344" 
d="M295 9q0 -49 -34.5 -81.5t-88.5 -32.5t-88.5 32.5t-34.5 81.5v165q0 53 34 86t89 33t89 -33t34 -86v-165zM64 9q0 -43 30 -71t78 -28t78 28t30 71v165q0 47 -29.5 75.5t-78.5 28.5t-78.5 -28.5t-29.5 -75.5v-165z" />
    <glyph glyph-name="one.sinf" unicode="&#x2081;" horiz-adv-x="193" 
d="M126 -100h-5q-5 0 -5 5v369l-83 -58q-3 -3 -7 1l-3 4q-2 3 2 7l85 59q1 1 5 1h11q5 0 5 -5v-378q0 -5 -5 -5z" />
    <glyph glyph-name="two.sinf" unicode="&#x2082;" horiz-adv-x="305" 
d="M266 -100h-229q-5 0 -5 5v3q0 5 2 7l79 85q52 55 74.5 81.5t40.5 59.5t18 62q0 34 -25.5 54.5t-69.5 20.5q-55 0 -102 -53q-3 -3 -7 0l-3 3q-3 4 0 8q47 57 113 57q53 0 81 -26.5t28 -62.5q0 -45 -31.5 -90.5t-103.5 -121.5l-72 -77h212q5 0 5 -5v-5q0 -5 -5 -5z" />
    <glyph glyph-name="three.sinf" unicode="&#x2083;" horiz-adv-x="311" 
d="M273 18q0 -50 -33.5 -86.5t-83.5 -36.5q-73 0 -123 63q-3 4 0 7l4 3q4 3 7 -1q48 -57 111 -57q45 0 74 32t29 77q0 41 -26.5 68.5t-76.5 27.5q-19 0 -39 -2q-4 0 -5 2l-2 4q-2 3 2 7l132 147h-191q-5 0 -5 5v5q0 5 5 5h212q4 0 4 -4v-3q0 -2 -3 -5l-133 -148q10 1 27 1
q51 0 82.5 -31t31.5 -80z" />
    <glyph glyph-name="four.sinf" unicode="&#x2084;" horiz-adv-x="302" 
d="M230 -100h-5q-5 0 -5 5v98h-190q-5 0 -5 5v2q0 2 2 6l153 269q2 3 6 3h5q7 0 4 -6l-150 -264h175v98q0 5 5 5h5q5 0 5 -5v-98h36q5 0 5 -5v-5q0 -5 -5 -5h-36v-98q0 -5 -5 -5z" />
    <glyph glyph-name="five.sinf" unicode="&#x2085;" horiz-adv-x="322" 
d="M284 29q0 -63 -32 -98.5t-87 -35.5q-75 0 -119 65q-1 4 3 7l3 2q5 3 7 -3q40 -56 106 -56q50 0 77 31t27 88q0 56 -27.5 84t-74.5 28q-56 0 -100 -50q-2 -2 -7 -2l-9 2q-4 1 -4 6l6 186q0 5 5 5h206q5 0 5 -5v-5q0 -5 -5 -5h-197l-5 -166q43 49 105 49q53 0 85 -32.5
t32 -94.5z" />
    <glyph glyph-name="six.sinf" unicode="&#x2086;" horiz-adv-x="327" 
d="M289 26q0 -61 -31.5 -96t-84.5 -35q-56 0 -90 35t-34 96v153q0 52 32 83t86 31q51 0 102 -40q3 -3 0 -7l-3 -4q-4 -4 -7 0q-45 36 -92 36q-49 0 -76 -26t-27 -73v-92q12 26 41.5 43.5t66.5 17.5q54 0 85.5 -32t31.5 -90zM64 26q0 -55 30 -85.5t79 -30.5q47 0 74 31t27 85
q0 52 -27 79.5t-75 27.5t-78 -29.5t-30 -77.5z" />
    <glyph glyph-name="seven.sinf" unicode="&#x2087;" horiz-adv-x="284" 
d="M77 -100h-7q-5 0 -3 6l177 367h-216q-5 0 -5 5v5q0 5 5 5h230q5 0 5 -5v-1q0 -3 -1 -6l-180 -373q-2 -3 -5 -3z" />
    <glyph glyph-name="eight.sinf" unicode="&#x2088;" horiz-adv-x="338" 
d="M296 6q0 -46 -36 -78.5t-91 -32.5t-91 32.5t-36 78.5q0 35 21.5 62t61.5 36q-73 19 -73 93q0 42 33 69t84 27t84 -27t33 -69q0 -74 -73 -93q40 -9 61.5 -36t21.5 -62zM67 197q0 -38 26 -62t76 -24t76 24t26 62q0 37 -29.5 59t-72.5 22t-72.5 -22t-29.5 -59zM57 7
q0 -40 31 -68.5t81 -28.5t81 28.5t31 68.5q0 39 -31 64t-81 25t-81 -25t-31 -64z" />
    <glyph glyph-name="nine.sinf" unicode="&#x2089;" horiz-adv-x="330" 
d="M40 169q0 57 31.5 90.5t84.5 33.5q56 0 90 -34t34 -94v-156q0 -52 -32 -83t-86 -31t-109 40q-3 3 0 7l3 4q4 4 7 0q49 -36 99 -36q49 0 76 26t27 73v96q-12 -28 -41.5 -46.5t-66.5 -18.5q-54 0 -85.5 33.5t-31.5 95.5zM265 165q0 54 -30 83.5t-79 29.5q-47 0 -74 -29.5
t-27 -79.5q0 -55 27 -84.5t75 -29.5t78 30.5t30 79.5z" />
    <glyph glyph-name="Euro" unicode="&#x20ac;" horiz-adv-x="633" 
d="M340 9q127 0 221 80q4 2 7 -1l6 -7q4 -4 -1 -7q-96 -84 -232 -84q-113 0 -175 65.5t-62 169.5v58h-51q-5 0 -5 5v9q0 5 5 5h51v117h-51q-5 0 -5 5v9q0 5 5 5h51v52q0 104 61.5 169.5t172.5 65.5q127 0 226 -75q3 -2 1 -7l-5 -8q-3 -3 -7 -1q-93 72 -216 72
q-103 0 -158 -59.5t-55 -156.5v-52h321q5 0 5 -5v-9q0 -5 -5 -5h-321v-117h321q5 0 5 -5v-9q0 -5 -5 -5h-321v-58q0 -97 56 -156.5t160 -59.5z" />
    <glyph glyph-name="uni20BD" unicode="&#x20bd;" horiz-adv-x="619" 
d="M576 500q0 -102 -62.5 -158t-179.5 -56h-192v-103h191q5 0 5 -5v-9q0 -5 -5 -5h-191v-159q0 -5 -5 -5h-10q-5 0 -5 5v159h-79q-5 0 -5 5v9q0 5 5 5h79v527q0 5 5 5h207q116 0 179 -57t63 -158zM556 500q0 94 -57.5 145t-166.5 51h-190v-391h190q110 0 167 50.5t57 144.5z
" />
    <glyph glyph-name="uni2113" unicode="&#x2113;" horiz-adv-x="357" 
d="M319 51q-53 -60 -115 -60q-55 0 -85.5 40.5t-30.5 114.5v107q-26 -16 -40 -23q-6 -3 -6 4v11q0 5 4 6l42 26v280q0 86 30.5 127t84.5 41t83.5 -42t29.5 -119q0 -91 -52 -162t-156 -136v-119q0 -66 25.5 -101t70.5 -35q54 0 102 57q3 4 7 0l7 -9q3 -4 -1 -8zM108 557v-268
q94 63 141 126.5t47 148.5q0 142 -93 142q-45 0 -70 -37.5t-25 -111.5z" />
    <glyph glyph-name="uni2116" unicode="&#x2116;" horiz-adv-x="1102" 
d="M1037 450q0 -63 -43.5 -106t-121.5 -43t-121.5 43t-43.5 106v126q0 63 43.5 106t121.5 43t121.5 -43t43.5 -106v-126zM727 450q0 -55 38 -92.5t107 -37.5q70 0 107.5 37.5t37.5 92.5v126q0 55 -37.5 92.5t-107.5 37.5q-69 0 -107 -37.5t-38 -92.5v-126zM116 0h-11
q-5 0 -5 5v705q0 5 5 5h14q5 0 6 -3l453 -679v677q0 5 5 5h11q5 0 5 -5v-705q0 -5 -5 -5h-14q-4 0 -6 3l-453 679v-677q0 -5 -5 -5zM1022 222h-300q-5 0 -5 5v10q0 5 5 5h300q5 0 5 -5v-10q0 -5 -5 -5z" />
    <glyph glyph-name="trademark" unicode="&#x2122;" horiz-adv-x="634" 
d="M310 415h-6q-5 0 -5 5v290q0 5 5 5h11q5 0 6 -4l104 -201l102 201q1 4 6 4h11q5 0 5 -5v-290q0 -5 -5 -5h-6q-5 0 -5 5v267l-101 -196q-1 -4 -6 -4h-2q-5 0 -6 4l-103 197v-268q0 -5 -5 -5zM145 415h-6q-5 0 -5 5v279h-92q-5 0 -5 5v6q0 5 5 5h200q5 0 5 -5v-6
q0 -5 -5 -5h-92v-279q0 -5 -5 -5z" />
    <glyph glyph-name="estimated" unicode="&#x212e;" horiz-adv-x="867" 
d="M232 141q35 -38 92 -60.5t114 -22.5q181 0 248 106q2 3 6 3h78q7 0 3 -6q-54 -85 -146 -128t-190 -43q-157 0 -268.5 104t-111.5 252q0 157 111.5 268t268.5 111q158 0 269.5 -111t111.5 -268v-31q0 -5 -5 -5h-581v-169zM644 381v201q-90 76 -206 76q-120 0 -206 -84
v-193h412z" />
    <glyph glyph-name="onethird" unicode="&#x2153;" horiz-adv-x="846" 
d="M142 326h-5q-5 0 -5 5v369l-83 -58q-3 -3 -7 1l-3 4q-2 3 2 7l85 59q1 1 5 1h11q5 0 5 -5v-378q0 -5 -5 -5zM675 709l-587 -706q-2 -3 -6 -3h-7q-7 0 -3 6l587 706q1 3 6 3h7q7 0 3 -6zM791 118q0 -50 -33.5 -86.5t-83.5 -36.5q-73 0 -123 63q-3 4 0 7l4 3q4 3 7 -1
q48 -57 111 -57q45 0 74 32t29 77q0 41 -26.5 68.5t-76.5 27.5q-19 0 -39 -2q-4 0 -5 2l-2 4q-2 3 2 7l132 147h-191q-5 0 -5 5v5q0 5 5 5h212q4 0 4 -4v-3q0 -2 -3 -5l-133 -148q10 1 27 1q51 0 82.5 -31t31.5 -80z" />
    <glyph glyph-name="twothirds" unicode="&#x2154;" horiz-adv-x="892" 
d="M287 327h-229q-5 0 -5 5v3q0 5 2 7l79 85q52 55 74.5 81.5t40.5 59.5t18 62q0 34 -25.5 54.5t-69.5 20.5q-55 0 -102 -53q-4 -4 -7 0l-3 3q-3 4 0 8q47 57 113 57q53 0 81 -26.5t28 -62.5q0 -45 -31.5 -90.5t-103.5 -121.5l-72 -77h212q5 0 5 -5v-5q0 -5 -5 -5zM749 709
l-587 -706q-2 -3 -6 -3h-7q-7 0 -3 6l587 706q1 3 6 3h7q7 0 3 -6zM836 118q0 -50 -33.5 -86.5t-83.5 -36.5q-73 0 -123 63q-3 4 0 7l4 3q4 3 7 -1q48 -57 111 -57q45 0 74 32t29 77q0 41 -26.5 68.5t-76.5 27.5q-19 0 -39 -2q-4 0 -5 2l-2 4q-2 3 2 7l132 147h-191
q-5 0 -5 5v5q0 5 5 5h212q4 0 4 -4v-3q0 -2 -3 -5l-133 -148q10 1 27 1q51 0 82.5 -31t31.5 -80z" />
    <glyph glyph-name="oneeighth" unicode="&#x215b;" horiz-adv-x="853" 
d="M141 326h-5q-5 0 -5 5v369l-83 -58q-3 -3 -7 1l-3 4q-2 3 2 7l85 59q1 1 5 1h11q5 0 5 -5v-378q0 -5 -5 -5zM678 709l-587 -706q-1 -3 -6 -3h-7q-7 0 -3 6l587 706q2 3 6 3h7q7 0 3 -6zM804 106q0 -46 -36 -78.5t-91 -32.5t-91 32.5t-36 78.5q0 35 21.5 62t61.5 36
q-73 19 -73 93q0 42 33 69t84 27t84 -27t33 -69q0 -74 -73 -93q40 -9 61.5 -36t21.5 -62zM575 297q0 -38 26 -62t76 -24t76 24t26 62q0 37 -29.5 59t-72.5 22t-72.5 -22t-29.5 -59zM565 107q0 -40 31 -68.5t81 -28.5t81 28.5t31 68.5q0 39 -31 64t-81 25t-81 -25t-31 -64z
" />
    <glyph glyph-name="threeeighths" unicode="&#x215c;" horiz-adv-x="909" 
d="M288 445q0 -50 -33.5 -86.5t-83.5 -36.5q-73 0 -123 63q-3 4 0 7l4 3q4 3 7 -1q48 -57 111 -57q45 0 74 32t29 77q0 41 -26.5 68.5t-76.5 27.5q-19 0 -39 -2q-4 0 -5 2l-2 4q-2 3 2 7l132 147h-191q-5 0 -5 5v5q0 5 5 5h212q4 0 4 -4v-3q0 -2 -3 -5l-133 -148q10 1 27 1
q51 0 82.5 -31t31.5 -80zM738 709l-587 -706q-1 -3 -6 -3h-7q-7 0 -3 6l587 706q2 3 6 3h7q7 0 3 -6zM860 106q0 -46 -36 -78.5t-91 -32.5t-91 32.5t-36 78.5q0 35 21.5 62t61.5 36q-73 19 -73 93q0 42 33 69t84 27t84 -27t33 -69q0 -74 -73 -93q40 -9 61.5 -36t21.5 -62z
M631 297q0 -38 26 -62t76 -24t76 24t26 62q0 37 -29.5 59t-72.5 22t-72.5 -22t-29.5 -59zM621 107q0 -40 31 -68.5t81 -28.5t81 28.5t31 68.5q0 39 -31 64t-81 25t-81 -25t-31 -64z" />
    <glyph glyph-name="fiveeighths" unicode="&#x215d;" horiz-adv-x="881" 
d="M298 456q0 -63 -32 -98.5t-87 -35.5q-75 0 -119 65q-1 4 3 7l3 2q5 3 7 -3q40 -56 106 -56q50 0 77 31t27 88q0 56 -27.5 84t-74.5 28q-56 0 -100 -50q-2 -2 -7 -2l-9 2q-4 1 -4 6l6 186q0 5 5 5h206q5 0 5 -5v-5q0 -5 -5 -5h-197l-5 -166q43 49 105 49q53 0 85 -32.5
t32 -94.5zM727 709l-587 -706q-2 -3 -6 -3h-7q-7 0 -3 6l587 706q1 3 6 3h7q7 0 3 -6zM831 106q0 -46 -36 -78.5t-91 -32.5t-91 32.5t-36 78.5q0 35 21.5 62t61.5 36q-73 19 -73 93q0 42 33 69t84 27t84 -27t33 -69q0 -74 -73 -93q40 -9 61.5 -36t21.5 -62zM602 297
q0 -38 26 -62t76 -24t76 24t26 62q0 37 -29.5 59t-72.5 22t-72.5 -22t-29.5 -59zM592 107q0 -40 31 -68.5t81 -28.5t81 28.5t31 68.5q0 39 -31 64t-81 25t-81 -25t-31 -64z" />
    <glyph glyph-name="seveneighths" unicode="&#x215e;" horiz-adv-x="830" 
d="M103 327h-7q-5 0 -3 6l177 367h-216q-5 0 -5 5v5q0 5 5 5h230q5 0 5 -5v-1q0 -3 -1 -6l-180 -373q-2 -3 -5 -3zM657 709l-587 -706q-2 -3 -6 -3h-7q-7 0 -3 6l587 706q1 3 6 3h7q7 0 3 -6zM781 106q0 -46 -36 -78.5t-91 -32.5t-91 32.5t-36 78.5q0 35 21.5 62t61.5 36
q-73 19 -73 93q0 42 33 69t84 27t84 -27t33 -69q0 -74 -73 -93q40 -9 61.5 -36t21.5 -62zM552 297q0 -38 26 -62t76 -24t76 24t26 62q0 37 -29.5 59t-72.5 22t-72.5 -22t-29.5 -59zM542 107q0 -40 31 -68.5t81 -28.5t81 28.5t31 68.5q0 39 -31 64t-81 25t-81 -25t-31 -64z
" />
    <glyph glyph-name="arrowleft" unicode="&#x2190;" horiz-adv-x="658" 
d="M83 355h500q5 0 5 -5v-10q0 -5 -5 -5h-500l147 -147q4 -4 0 -7l-6 -6q-4 -4 -8 0l-157 157q-3 3 -3 7v12q0 4 3 7l158 158q3 4 7 0l6 -6q4 -4 0 -8z" />
    <glyph glyph-name="arrowup" unicode="&#x2191;" horiz-adv-x="415" 
d="M219 611l158 -158q3 -3 0 -7l-6 -6q-4 -4 -8 0l-147 147v-500q0 -5 -5 -5h-10q-5 0 -5 5v500l-147 -147q-3 -4 -7 0l-6 6q-4 4 0 8l157 157q3 3 7 3h12q4 0 7 -3z" />
    <glyph glyph-name="arrowright" unicode="&#x2192;" horiz-adv-x="657" 
d="M427 510l6 6q3 4 7 0l158 -158q3 -3 3 -7v-12q0 -4 -3 -7l-158 -158q-4 -4 -7 0l-6 6q-4 4 0 8l147 147h-500q-5 0 -5 5v10q0 5 5 5h500l-147 147q-4 4 0 8z" />
    <glyph glyph-name="arrowdown" unicode="&#x2193;" horiz-adv-x="415" 
d="M217 106l147 147q4 3 7 0l6 -6q4 -4 0 -8l-157 -157q-3 -3 -7 -3h-12q-4 0 -7 3l-158 158q-3 3 0 7l6 6q4 4 8 0l147 -147v500q0 5 5 5h10q5 0 5 -5v-500z" />
    <glyph glyph-name="arrowboth" unicode="&#x2194;" horiz-adv-x="750" 
d="M527 515l6 6q3 3 7 0l158 -158q3 -3 3 -7v-12q0 -4 -3 -7l-158 -158q-4 -3 -7 0l-6 6q-4 4 0 8l147 147h-598l147 -147q3 -3 0 -7l-6 -6q-4 -4 -8 0l-157 157q-3 3 -3 7v12q0 4 3 7l158 158q4 3 7 0l6 -6q4 -4 0 -8l-147 -147h598l-147 147q-4 4 0 8z" />
    <glyph glyph-name="arrowupdn" unicode="&#x2195;" horiz-adv-x="462" 
d="M241 674v-618l147 147q4 3 7 0l6 -6q4 -4 0 -8l-157 -157q-3 -3 -7 -3h-12q-4 0 -7 3l-158 158q-3 3 0 7l6 6q4 4 8 0l147 -147v618l-147 -147q-4 -3 -7 0l-6 6q-4 4 0 8l157 157q3 3 7 3h12q4 0 7 -3l158 -158q3 -3 0 -7l-6 -6q-4 -4 -8 0z" />
    <glyph glyph-name="uni2196" unicode="&#x2196;" horiz-adv-x="504" 
d="M97 521l354 -354q3 -3 0 -7l-7 -7q-4 -4 -8 0l-353 354v-209q0 -5 -5 -5h-9q-5 0 -5 5v224q0 4 3 7l8 8q3 3 7 3h224q5 0 5 -5v-9q0 -5 -5 -5h-209z" />
    <glyph glyph-name="uni2197" unicode="&#x2197;" horiz-adv-x="503" 
d="M199 540h223q4 0 7 -3l8 -8q3 -3 3 -7v-223q0 -5 -5 -5l-9 -1q-5 0 -5 5v209l-354 -354q-3 -3 -7 0l-7 7q-4 4 0 8l354 353h-209q-5 0 -5 5l1 9q0 5 5 5z" />
    <glyph glyph-name="uni2198" unicode="&#x2198;" horiz-adv-x="492" 
d="M410 183v209q0 5 5 5l9 -1q5 0 5 -5v-223q0 -4 -3 -7l-8 -8q-3 -3 -7 -3h-223q-5 0 -5 5l-1 9q0 5 5 5h209l-354 354q-3 3 0 7l7 7q4 4 8 0z" />
    <glyph glyph-name="uni2199" unicode="&#x2199;" horiz-adv-x="492" 
d="M443 536l7 -7q4 -3 0 -7l-354 -353h209q5 0 5 -5v-9q0 -5 -5 -5h-224q-4 0 -7 3l-8 8q-3 3 -3 7v224q0 5 5 5h9q5 0 5 -5v-209l353 353q4 4 8 0z" />
    <glyph glyph-name="partialdiff" unicode="&#x2202;" horiz-adv-x="508" 
d="M149 710v10q0 5 5 5q146 -1 217.5 -121t71.5 -340v-16q0 -120 -51.5 -189t-142.5 -69q-90 0 -142.5 71.5t-52.5 186.5q0 112 55.5 180.5t137.5 68.5q118 0 174 -133q-20 166 -84 252.5t-183 88.5q-5 0 -5 5zM74 248q0 -108 46.5 -173.5t128.5 -65.5q85 0 129.5 62
t44.5 177q0 108 -52.5 169t-122.5 61q-74 0 -124 -63t-50 -167z" />
    <glyph glyph-name="emptyset" unicode="&#x2205;" horiz-adv-x="640" 
d="M83 91l-5 5q-4 4 -1 8l60 62q-67 70 -67 170q0 103 73.5 176t177.5 73q92 0 163 -61l53 54q4 4 8 0l5 -5q4 -5 1 -8l-52 -54q73 -73 73 -175q0 -103 -73.5 -176.5t-177.5 -73.5q-99 0 -171 66l-59 -61q-4 -4 -8 0zM552 336q0 94 -67 161l-321 -331q66 -61 157 -61
q96 0 163.5 67.5t67.5 163.5zM90 336q0 -90 60 -156l321 330q-66 56 -150 56q-95 0 -163 -67.5t-68 -162.5z" />
    <glyph glyph-name="product" unicode="&#x220f;" horiz-adv-x="616" 
d="M100 -134v874q0 5 5 5h406q5 0 5 -5v-874q0 -5 -5 -5h-11q-5 0 -5 5v859h-374v-859q0 -5 -5 -5h-11q-5 0 -5 5z" />
    <glyph glyph-name="summation" unicode="&#x2211;" horiz-adv-x="503" 
d="M455 -139h-414q-5 0 -5 5v10q0 2 2 6l273 430l-273 412q-2 4 -2 6v10q0 5 5 5h414q5 0 5 -5v-10q0 -5 -5 -5h-392l265 -400q7 -11 7 -12v-1q0 -1 -6 -11l-267 -420h393q5 0 5 -5v-10q0 -5 -5 -5z" />
    <glyph glyph-name="minus" unicode="&#x2212;" 
d="M475 323h-410q-5 0 -5 5v10q0 5 5 5h410q5 0 5 -5v-10q0 -5 -5 -5z" />
    <glyph glyph-name="radical" unicode="&#x221a;" horiz-adv-x="552" 
d="M277 -139h-18q-3 0 -5 4l-134 504h-90q-5 0 -5 5v9q0 5 5 5h102q3 0 5 -4l131 -494l239 851q2 4 5 4h11q5 0 4 -6l-245 -874q-2 -4 -5 -4z" />
    <glyph glyph-name="infinity" unicode="&#x221e;" horiz-adv-x="693" 
d="M347 314q-32 -56 -67 -87.5t-83 -31.5q-53 0 -91.5 36.5t-38.5 101.5t38.5 101.5t91.5 36.5q48 0 83 -31.5t67 -87.5q31 56 66 87.5t83 31.5q53 0 91.5 -36.5t38.5 -101.5t-38.5 -101.5t-91.5 -36.5q-48 0 -83 31.5t-66 87.5zM87 333q0 -60 32.5 -89t76.5 -29
q46 0 77.5 30.5t62.5 87.5q-31 57 -62.5 87.5t-77.5 30.5q-44 0 -76.5 -29t-32.5 -89zM357 333q31 -57 62.5 -87.5t77.5 -30.5q44 0 76.5 29t32.5 89t-32.5 89t-76.5 29q-46 0 -77.5 -30.5t-62.5 -87.5z" />
    <glyph glyph-name="integral" unicode="&#x222b;" horiz-adv-x="400" 
d="M189 598q0 70 36.5 110.5t96.5 40.5q30 0 60 -3q5 -2 5 -6v-10q0 -4 -5 -4q-48 3 -55 3q-56 0 -86.5 -34t-30.5 -98v-587q0 -70 -37 -110.5t-99 -40.5q-26 0 -56 3q-5 2 -5 6v10q0 4 5 4q48 -3 54 -3q55 0 86 34t31 98v587z" />
    <glyph glyph-name="approxequal" unicode="&#x2248;" 
d="M461 406q-45 -35 -94 -35q-26 0 -100 23q-66 21 -98 21q-42 0 -75 -30q-5 -3 -8 0l-7 7q-4 4 0 7q43 35 90 35q37 0 106 -23q65 -21 93 -21q43 0 78 30q4 3 7 0l8 -7q4 -4 0 -7zM461 276q-45 -35 -94 -35q-26 0 -100 23q-66 21 -98 21q-42 0 -75 -30q-5 -3 -8 0l-7 7
q-4 4 0 7q43 35 90 35q37 0 106 -23q65 -21 93 -21q43 0 78 30q4 3 7 0l8 -7q4 -4 0 -7z" />
    <glyph glyph-name="notequal" unicode="&#x2260;" 
d="M480 429v-10q0 -5 -5 -5h-132l-111 -157h243q5 0 5 -5v-10q0 -5 -5 -5h-257l-62 -88q-2 -3 -6 -3h-14q-7 0 -3 6l61 85h-129q-5 0 -5 5v10q0 5 5 5h143l111 157h-254q-5 0 -5 5v10q0 5 5 5h268l60 84q1 3 6 3h13q7 0 3 -6l-57 -81h117q5 0 5 -5z" />
    <glyph glyph-name="lessequal" unicode="&#x2264;" 
d="M480 154v-11q0 -2 -2 -3.5t-4 -0.5l-410 196q-4 2 -4 6v18q0 4 4 6l410 196q6 4 6 -4v-11q0 -4 -4 -6l-396 -190l396 -190q4 -2 4 -6zM480 90v-10q0 -5 -5 -5h-410q-5 0 -5 5v10q0 5 5 5h410q5 0 5 -5z" />
    <glyph glyph-name="greaterequal" unicode="&#x2265;" 
d="M476 335l-410 -196q-6 -4 -6 4v11q0 4 4 6l396 190l-396 190q-4 2 -4 6v11q0 2 2 3.5t4 0.5l410 -196q4 -2 4 -6v-18q0 -4 -4 -6zM475 75h-410q-5 0 -5 5v10q0 5 5 5h410q5 0 5 -5v-10q0 -5 -5 -5z" />
    <glyph glyph-name="lozenge" unicode="&#x25ca;" horiz-adv-x="492" 
d="M243 715h6q5 0 6 -3l206 -352q1 -3 0 -6l-206 -351q-1 -3 -6 -3h-6q-5 0 -6 3l-206 351q-1 3 0 6l206 352q1 3 6 3zM54 357l192 -333l192 333l-192 334z" />
    <glyph glyph-name="idotaccent" horiz-adv-x="178" 
d="M94 0h-10q-5 0 -5 5v503q0 5 5 5h10q5 0 5 -5v-503q0 -5 -5 -5zM111 650q0 -22 -22 -22t-22 22t22 22t22 -22z" />
    <glyph glyph-name="a.ss01" horiz-adv-x="526" 
d="M428 68q-73 -78 -173 -78q-90 0 -143 50.5t-53 139.5v142q0 92 54.5 146.5t145.5 54.5q85 0 185 -38q4 -1 4 -5v-475q0 -5 -5 -5h-10q-5 0 -5 5v63zM79 180q0 -81 47.5 -126t129.5 -45q95 0 172 84v378q-93 33 -169 33q-83 0 -131.5 -49t-48.5 -133v-142z" />
    <glyph glyph-name="aacute.ss01" horiz-adv-x="526" 
d="M232 605h-8q-8 0 -4 6l83 134q1 3 6 3h15q6 0 3 -6l-89 -134q-2 -3 -6 -3zM428 68q-73 -78 -173 -78q-90 0 -143 50.5t-53 139.5v142q0 92 54.5 146.5t145.5 54.5q85 0 185 -38q4 -1 4 -5v-475q0 -5 -5 -5h-10q-5 0 -5 5v63zM79 180q0 -81 47.5 -126t129.5 -45
q95 0 172 84v378q-93 33 -169 33q-83 0 -131.5 -49t-48.5 -133v-142z" />
    <glyph glyph-name="abreve.ss01" horiz-adv-x="526" 
d="M407 741q-7 -60 -45 -98.5t-97 -38.5t-97 38.5t-45 98.5q-2 5 4 6l10 1q5 0 6 -4q7 -55 38.5 -88t83.5 -33t83.5 33t38.5 88q2 5 6 4l10 -1q6 0 4 -6zM428 68q-73 -78 -173 -78q-90 0 -143 50.5t-53 139.5v142q0 92 54.5 146.5t145.5 54.5q85 0 185 -38q4 -1 4 -5v-475
q0 -5 -5 -5h-10q-5 0 -5 5v63zM79 180q0 -81 47.5 -126t129.5 -45q95 0 172 84v378q-93 33 -169 33q-83 0 -131.5 -49t-48.5 -133v-142z" />
    <glyph glyph-name="acircumflex.ss01" horiz-adv-x="526" 
d="M154 605h-13q-7 0 -3 6l114 134q2 3 6 3h10q4 0 6 -3l114 -134q4 -6 -3 -6h-13q-4 0 -6 3l-103 123l-103 -123q-2 -3 -6 -3zM428 68q-73 -78 -173 -78q-90 0 -143 50.5t-53 139.5v142q0 92 54.5 146.5t145.5 54.5q85 0 185 -38q4 -1 4 -5v-475q0 -5 -5 -5h-10q-5 0 -5 5
v63zM79 180q0 -81 47.5 -126t129.5 -45q95 0 172 84v378q-93 33 -169 33q-83 0 -131.5 -49t-48.5 -133v-142z" />
    <glyph glyph-name="adieresis.ss01" horiz-adv-x="526" 
d="M199 655q0 -20 -20 -20t-20 20t20 20t20 -20zM367 655q0 -20 -20 -20t-20 20t20 20t20 -20zM428 68q-73 -78 -173 -78q-90 0 -143 50.5t-53 139.5v142q0 92 54.5 146.5t145.5 54.5q85 0 185 -38q4 -1 4 -5v-475q0 -5 -5 -5h-10q-5 0 -5 5v63zM79 180q0 -81 47.5 -126
t129.5 -45q95 0 172 84v378q-93 33 -169 33q-83 0 -131.5 -49t-48.5 -133v-142z" />
    <glyph glyph-name="agrave.ss01" horiz-adv-x="526" 
d="M283 605h-8q-5 0 -6 3l-89 134q-3 6 3 6h15q4 0 6 -3l83 -134q5 -6 -4 -6zM428 68q-73 -78 -173 -78q-90 0 -143 50.5t-53 139.5v142q0 92 54.5 146.5t145.5 54.5q85 0 185 -38q4 -1 4 -5v-475q0 -5 -5 -5h-10q-5 0 -5 5v63zM79 180q0 -81 47.5 -126t129.5 -45
q95 0 172 84v378q-93 33 -169 33q-83 0 -131.5 -49t-48.5 -133v-142z" />
    <glyph glyph-name="amacron.ss01" horiz-adv-x="526" 
d="M143 664v8q0 5 5 5h230q5 0 5 -5v-8q0 -5 -5 -5h-230q-5 0 -5 5zM428 68q-73 -78 -173 -78q-90 0 -143 50.5t-53 139.5v142q0 92 54.5 146.5t145.5 54.5q85 0 185 -38q4 -1 4 -5v-475q0 -5 -5 -5h-10q-5 0 -5 5v63zM79 180q0 -81 47.5 -126t129.5 -45q95 0 172 84v378
q-93 33 -169 33q-83 0 -131.5 -49t-48.5 -133v-142z" />
    <glyph glyph-name="aogonek.ss01" horiz-adv-x="526" 
d="M469 -180q-36 -18 -71 -18q-33 0 -51.5 17.5t-18.5 50.5q0 36 27 74t73 65v59q-80 -78 -173 -78q-90 0 -143 50t-53 140v142q0 92 54.5 146.5t145.5 54.5q85 0 185 -38q4 -1 4 -5v-472q0 -7 -9 -12q-42 -24 -66.5 -60t-24.5 -66q0 -49 50 -49q31 0 61 15q5 3 7 -2l4 -8
q2 -4 -1 -6zM79 180q0 -81 47.5 -126t129.5 -45q88 0 172 84v377q-92 34 -169 34q-83 0 -131.5 -49t-48.5 -133v-142z" />
    <glyph glyph-name="aring.ss01" horiz-adv-x="526" 
d="M357 682q0 -39 -26 -65t-68 -26t-68 26t-26 65q0 40 26.5 66t67.5 26t67.5 -26t26.5 -66zM188 682q0 -33 20.5 -53t55.5 -20t54.5 20t19.5 53t-19.5 53.5t-54.5 20.5t-55.5 -20.5t-20.5 -53.5zM428 68q-73 -78 -173 -78q-90 0 -143 50.5t-53 139.5v142q0 92 54.5 146.5
t145.5 54.5q85 0 185 -38q4 -1 4 -5v-475q0 -5 -5 -5h-10q-5 0 -5 5v63zM79 180q0 -81 47.5 -126t129.5 -45q95 0 172 84v378q-93 33 -169 33q-83 0 -131.5 -49t-48.5 -133v-142z" />
    <glyph glyph-name="atilde.ss01" horiz-adv-x="526" 
d="M394 679q-7 -20 -24.5 -34.5t-39.5 -14.5q-21 0 -67 23q-42 23 -66 23q-34 0 -49 -37q-2 -3 -6 -2l-7 3q-4 3 -3 7q20 47 66 47q22 0 70 -24q46 -22 61 -22q33 0 49 38q2 4 6 2l7 -3q4 -2 3 -6zM428 68q-73 -78 -173 -78q-90 0 -143 50.5t-53 139.5v142q0 92 54.5 146.5
t145.5 54.5q85 0 185 -38q4 -1 4 -5v-475q0 -5 -5 -5h-10q-5 0 -5 5v63zM79 180q0 -81 47.5 -126t129.5 -45q95 0 172 84v378q-93 33 -169 33q-83 0 -131.5 -49t-48.5 -133v-142z" />
    <glyph glyph-name="ae.ss01" horiz-adv-x="868" 
d="M806 68q-29 -23 -49 -36.5t-58 -27.5t-77 -14q-118 0 -175 86v-71q0 -5 -5 -5h-10q-5 0 -5 5v75q-69 -90 -180 -90q-84 0 -136 51t-52 139v142q0 92 54.5 146.5t144.5 54.5q45 0 97 -23t82 -67q63 90 185 90q88 0 140.5 -50.5t52.5 -137.5v-88v-1q0 -3 -0.5 -3.5
t-4.5 -0.5h-363v-131q31 -54 69.5 -78t105.5 -24q15 0 29 2t24.5 4t23.5 8t20 9t20.5 12t17.5 11.5t18.5 13.5t17.5 13q4 2 7 -1l6 -6q4 -3 0 -7zM79 180q0 -81 46 -126t123 -45q108 0 179 102v300q-25 47 -74.5 70t-94.5 23q-82 0 -130.5 -49t-48.5 -133v-142zM447 410
v-149h348v74q0 79 -47 124t-126 45q-116 0 -175 -94z" />
    <glyph glyph-name="uni0414.loclBGR" horiz-adv-x="631" 
d="M26 -138h-11q-5 0 -5 5v148q0 5 5 5h47l240 691q2 4 5 4h18q3 0 5 -4l240 -691h46q5 0 5 -5v-148q0 -5 -5 -5h-11q-5 0 -5 5v133h-569v-133q0 -5 -5 -5zM315 686l-231 -666h464l-231 666h-2z" />
    <glyph glyph-name="uni041B.loclBGR" horiz-adv-x="590" 
d="M28 0h-12q-6 0 -4 6l268 705q2 4 6 4h18q4 0 6 -4l268 -705q2 -6 -4 -6h-12q-4 0 -6 4l-260 685h-2l-260 -685q-2 -4 -6 -4z" />
    <glyph glyph-name="uni0432.loclBGR" horiz-adv-x="523" 
d="M476 204q0 -98 -56.5 -155.5t-155.5 -58.5q-96 -1 -181 42q-4 1 -4 6v493q0 89 50 141.5t136 52.5q82 0 133.5 -47t51.5 -121q0 -133 -139 -178q73 -5 119 -56.5t46 -118.5zM99 45q80 -37 165 -36q90 2 141 53t51 141q0 70 -54.5 122t-158.5 37l-144 -20v-297zM99 531
v-170l158 22q92 16 132.5 63t40.5 111q0 67 -45.5 108t-119.5 41q-77 0 -121.5 -47t-44.5 -128z" />
    <glyph glyph-name="uni0433.loclBGR" horiz-adv-x="454" 
d="M411 55q-91 -65 -190 -65q-83 0 -132 39.5t-49 104.5q0 63 46.5 96t131.5 52q34 8 52 12.5t43.5 14.5t38.5 21t22.5 28.5t9.5 39.5q0 53 -44 79.5t-109 26.5q-90 0 -156 -46q-1 -2 -3.5 -1t-3.5 3l-4 8q-2 5 2 7q72 48 165 48q76 0 124.5 -32.5t48.5 -92.5
q0 -27 -11.5 -48t-26.5 -33.5t-43.5 -24t-47 -16.5t-53.5 -13q-34 -8 -57 -16t-50 -22.5t-41 -37.5t-14 -54q0 -55 43.5 -89.5t117.5 -34.5q92 0 181 63q3 3 7 -2l4 -8q2 -4 -2 -7z" />
    <glyph glyph-name="uni0434.loclBGR" horiz-adv-x="527" 
d="M449 -22q0 -80 -48.5 -129t-143.5 -49q-103 0 -187 82q-3 3 0 7l5 7q3 4 7 0q80 -77 175 -77q87 0 129.5 43t42.5 116v81q-76 -39 -160 -39q-101 0 -155.5 50t-54.5 147v111q0 98 55 146.5t153 48.5t178 -35q4 -1 4 -6v-504zM79 217q0 -178 190 -178q82 0 160 40v396
q-78 29 -164 29q-90 0 -138 -44.5t-48 -131.5v-111z" />
    <glyph glyph-name="uni0436.loclBGR" horiz-adv-x="714" 
d="M691 0h-13q-4 0 -6 3l-221 269l-84 -88v-179q0 -5 -5 -5h-10q-5 0 -5 5v179l-84 88l-221 -269q-2 -3 -6 -3h-13q-7 0 -3 6l229 280l-213 221q-6 6 3 6h13q4 0 7 -3l288 -299v499q0 5 5 5h10q5 0 5 -5v-499l288 299q3 3 7 3h13q9 0 3 -6l-213 -221l229 -280q4 -6 -3 -6z
" />
    <glyph glyph-name="uni0438.loclBGR" horiz-adv-x="537" 
d="M444 513h10q5 0 5 -5v-474q0 -5 -4 -6q-82 -38 -176 -38q-98 0 -151.5 51t-53.5 148v319q0 5 5 5h10q5 0 5 -5v-319q0 -88 48 -134t137 -46q76 0 160 32v467q0 5 5 5z" />
    <glyph glyph-name="uni0439.loclBGR" horiz-adv-x="537" 
d="M409 736q-7 -60 -45 -98.5t-97 -38.5t-97 38.5t-45 98.5q-2 5 4 6l10 1q5 0 6 -4q7 -55 38.5 -88t83.5 -33t83.5 33t38.5 88q2 5 6 4l10 -1q6 0 4 -6zM444 513h10q5 0 5 -5v-474q0 -5 -4 -6q-82 -38 -176 -38q-98 0 -151.5 51t-53.5 148v319q0 5 5 5h10q5 0 5 -5v-319
q0 -88 48 -134t137 -46q76 0 160 32v467q0 5 5 5z" />
    <glyph glyph-name="uni045D.loclBGR" horiz-adv-x="537" 
d="M290 600h-8q-4 0 -6 3l-89 134q-3 6 3 6h15q5 0 6 -3l83 -134q4 -6 -4 -6zM444 513h10q5 0 5 -5v-474q0 -5 -4 -6q-82 -38 -176 -38q-98 0 -151.5 51t-53.5 148v319q0 5 5 5h10q5 0 5 -5v-319q0 -88 48 -134t137 -46q76 0 160 32v467q0 5 5 5z" />
    <glyph glyph-name="uni043A.loclBGR" horiz-adv-x="471" 
d="M453 0h-14q-5 0 -6 3l-248 276l-86 -74v-200q0 -5 -5 -5h-10q-5 0 -5 5v705q0 5 5 5h10q5 0 5 -5v-480l322 281q2 2 7 2h16q8 0 2 -6l-246 -215l256 -286q4 -6 -3 -6z" />
    <glyph glyph-name="uni043B.loclBGR" horiz-adv-x="470" 
d="M23 6l199 503q2 4 6 4h14q4 0 6 -4l199 -503q2 -6 -4 -6h-11q-4 0 -6 4l-191 483l-191 -483q-2 -4 -6 -4h-11q-6 0 -4 6z" />
    <glyph glyph-name="uni043F.loclBGR" horiz-adv-x="545" 
d="M93 0h-10q-5 0 -5 5v474q0 5 4 6q84 38 180 38q100 0 154.5 -51t54.5 -148v-319q0 -5 -5 -5h-10q-5 0 -5 5v319q0 89 -49 134.5t-140 45.5q-85 0 -164 -32v-467q0 -5 -5 -5z" />
    <glyph glyph-name="uni0442.loclBGR" horiz-adv-x="799" 
d="M373 473q74 50 161 50q89 0 140 -48.5t51 -136.5v-333q0 -5 -5 -5h-10q-5 0 -5 5v333q0 80 -45 123t-126 43q-83 0 -150 -46q30 -46 30 -120v-333q0 -5 -5 -5h-10q-5 0 -5 5v333q0 166 -155 166q-68 0 -141 -31v-468q0 -5 -5 -5h-10q-5 0 -5 5v475q0 5 4 6q79 37 157 37
q87 0 134 -50z" />
    <glyph glyph-name="uni0446.loclBGR" horiz-adv-x="566" 
d="M533 -131h-10q-5 0 -5 5v155h-59q-86 -39 -180 -39q-98 0 -151.5 50.5t-53.5 146.5v321q0 5 5 5h10q5 0 5 -5v-321q0 -88 47.5 -133t137.5 -45q81 0 160 32v467q0 5 5 5h10q5 0 5 -5v-460h74q5 0 5 -5v-169q0 -5 -5 -5z" />
    <glyph glyph-name="uni0448.loclBGR" horiz-adv-x="799" 
d="M426 40q-74 -50 -161 -50q-89 0 -140 48.5t-51 136.5v333q0 5 5 5h10q5 0 5 -5v-333q0 -80 45 -123t126 -43q83 0 150 46q-30 47 -30 120v333q0 5 5 5h10q5 0 5 -5v-333q0 -166 155 -166q68 0 141 31v468q0 5 5 5h10q5 0 5 -5v-475q0 -5 -4 -6q-79 -37 -157 -37
q-87 0 -134 50z" />
    <glyph glyph-name="uni0449.loclBGR" horiz-adv-x="828" 
d="M795 -131h-10q-5 0 -5 5v155h-59q-83 -39 -161 -39q-90 0 -134 50q-74 -50 -161 -50q-89 0 -140 48.5t-51 136.5v333q0 5 5 5h10q5 0 5 -5v-333q0 -80 45 -123t126 -43q83 0 148 46q-28 46 -28 120v333q0 5 5 5h10q5 0 5 -5v-333q0 -166 155 -166q69 0 141 32v467
q0 5 5 5h10q5 0 5 -5v-460h74q5 0 5 -5v-169q0 -5 -5 -5z" />
    <glyph glyph-name="uni044C.loclBGR" horiz-adv-x="494" 
d="M456 164q0 -80 -55.5 -126.5t-152.5 -47.5q-79 -1 -166 32q-4 1 -4 5v481q0 5 5 5h10q5 0 5 -5v-197q81 27 152 27q94 0 150 -47t56 -127zM98 36q73 -28 150 -27q89 1 138.5 42t49.5 113t-50 113.5t-136 41.5q-73 0 -152 -28v-255z" />
    <glyph glyph-name="uni044A.loclBGR" horiz-adv-x="564" 
d="M526 164q0 -80 -55.5 -126.5t-152.5 -47.5q-79 -1 -166 32q-4 1 -4 5v467h-128q-5 0 -5 5v9q0 5 5 5h143q5 0 5 -5v-197q81 27 152 27q94 0 150 -47t56 -127zM168 36q73 -28 150 -27q89 1 138.5 42t49.5 113t-50 113.5t-136 41.5q-73 0 -152 -28v-255z" />
    <glyph glyph-name="uni044E.loclBGR" horiz-adv-x="692" 
d="M241 346q0 75 51.5 126t143.5 51t143.5 -51t51.5 -126v-177q0 -75 -51.5 -127t-143.5 -52t-143.5 52t-51.5 127v88h-142v-252q0 -5 -5 -5h-10q-5 0 -5 5v705q0 5 5 5h10q5 0 5 -5v-434h142v70zM436 9q84 0 129.5 46.5t45.5 113.5v177q0 67 -45.5 112.5t-129.5 45.5
t-129.5 -46t-45.5 -112v-177q0 -67 46 -113.5t129 -46.5z" />
    <glyph glyph-name="uni0430.ss01" horiz-adv-x="526" 
d="M428 68q-73 -78 -173 -78q-90 0 -143 50.5t-53 139.5v142q0 92 54.5 146.5t145.5 54.5q85 0 185 -38q4 -1 4 -5v-475q0 -5 -5 -5h-10q-5 0 -5 5v63zM79 180q0 -81 47.5 -126t129.5 -45q95 0 172 84v378q-93 33 -169 33q-83 0 -131.5 -49t-48.5 -133v-142z" />
    <glyph glyph-name="zero.tf" 
d="M497 213q0 -102 -61 -162.5t-166 -60.5t-166 60.5t-61 162.5v285q0 105 60.5 166t166.5 61t166.5 -61t60.5 -166v-285zM63 213q0 -94 55 -149t152 -55t152 55t55 149v285q0 98 -54.5 153t-152.5 55t-152.5 -55t-54.5 -153v-285z" />
    <glyph glyph-name="one.tf" 
d="M298 710v-691h160q5 0 5 -5v-9q0 -5 -5 -5h-341q-5 0 -5 5v9q0 5 5 5h161v670l-156 -98q-4 -4 -7 1l-5 8q-2 5 2 7l168 106q2 2 6 2h7q5 0 5 -5z" />
    <glyph glyph-name="two.tf" 
d="M488 0h-440q-5 0 -5 5v6q0 5 2 7l153 162q74 78 107 115t73 89.5t55 90.5t15 77q0 62 -43.5 108t-127.5 46q-116 0 -205 -103q-3 -4 -7 0l-6 7q-2 4 0 7q93 108 218 108q92 0 141.5 -51.5t49.5 -121.5q0 -34 -13.5 -70.5t-28 -63t-57.5 -77.5t-66 -76t-89 -96l-141 -150
h415q5 0 5 -5v-9q0 -5 -5 -5z" />
    <glyph glyph-name="three.tf" 
d="M490 207q0 -98 -62 -157.5t-167 -59.5q-73 0 -124 27.5t-98 82.5q-3 4 0 7l7 6q5 3 8 -2q43 -50 90 -76t117 -26q97 0 153 54t56 144q0 91 -55.5 143t-159.5 52q-23 0 -57 -2q-4 0 -5 3l-1 2q-2 4 1 7l262 284h-385q-5 0 -5 5v9q0 5 5 5h410q5 0 5 -5v-5q0 -3 -2 -7
l-257 -278l21 1q120 1 181.5 -57.5t61.5 -156.5z" />
    <glyph glyph-name="four.tf" 
d="M410 0h-10q-5 0 -5 5v198h-353q-5 0 -5 5v4q0 3 2 7l289 493q2 3 6 3h12q6 0 3 -6l-286 -487h332v180q0 5 5 5h10q5 0 5 -5v-180h80q5 0 5 -5v-9q0 -5 -5 -5h-80v-198q0 -5 -5 -5z" />
    <glyph glyph-name="five.tf" 
d="M497 233q0 -109 -62 -175t-166 -66q-130 0 -214 108q-1 4 1 7l7 6q4 4 7 -1q40 -51 86.5 -76t112.5 -25q96 0 152 59.5t56 162.5q0 105 -54.5 156t-144.5 51q-111 0 -189 -80q-4 -4 -7 -2l-13 5q-4 2 -4 5l13 342q0 5 5 5h376q5 0 5 -5v-9q0 -5 -5 -5h-362l-12 -313
q82 76 194 76q98 0 158 -56.5t60 -169.5z" />
    <glyph glyph-name="six.tf" 
d="M80 318q23 60 80.5 92.5t119.5 32.5q102 0 160 -58.5t58 -167.5q0 -105 -59 -166t-159 -61t-160 60t-60 164v293q0 99 64 158.5t155 59.5q114 0 191 -77q3 -3 0 -7l-5 -6q-5 -5 -8 -1q-72 72 -178 72q-86 0 -142.5 -55t-56.5 -144v-189zM80 214q0 -96 54 -150.5
t146 -54.5t145 55.5t53 152.5q0 101 -52 154t-146 53q-77 0 -138.5 -50t-61.5 -142v-18z" />
    <glyph glyph-name="seven.tf" 
d="M153 0h-11q-7 0 -4 6l334 690h-419q-5 0 -5 5v9q0 5 5 5h438q5 0 5 -5v-5q0 -4 -1 -6l-336 -695q-2 -4 -6 -4z" />
    <glyph glyph-name="eight.tf" 
d="M503 196q0 -90 -62.5 -148t-170.5 -58t-170.5 58t-62.5 148q0 66 43 116t118 65q-70 16 -105 62t-35 108q0 79 56.5 128.5t155.5 49.5t155.5 -49.5t56.5 -128.5q0 -62 -34.5 -108t-104.5 -62q75 -15 117.5 -65t42.5 -116zM57 198q0 -82 55.5 -135.5t157.5 -53.5
t157.5 53.5t55.5 135.5q0 73 -58 121t-155 48t-155 -48t-58 -121zM78 548q0 -71 49 -116.5t143 -45.5t143 45.5t49 116.5q0 74 -52.5 116t-139.5 42t-139.5 -42t-52.5 -116z" />
    <glyph glyph-name="nine.tf" 
d="M42 498q0 105 59 166t159 61t160 -60t60 -163v-294q0 -99 -64 -158.5t-155 -59.5q-111 0 -191 96q-3 4 0 7l7 6q3 3 7 0q76 -90 177 -90q86 0 142.5 55t56.5 144v186q-23 -59 -81 -90.5t-119 -31.5q-103 0 -160.5 58t-57.5 168zM62 498q0 -101 52 -154t146 -53
q77 0 138.5 49.5t61.5 140.5v21q0 96 -54 150t-146 54t-145 -55.5t-53 -152.5z" />
    <glyph glyph-name="zero.dnom" horiz-adv-x="344" 
d="M295 109q0 -49 -34.5 -81.5t-88.5 -32.5t-88.5 32.5t-34.5 81.5v165q0 53 34 86t89 33t89 -33t34 -86v-165zM64 109q0 -43 30 -71t78 -28t78 28t30 71v165q0 47 -29.5 75.5t-78.5 28.5t-78.5 -28.5t-29.5 -75.5v-165z" />
    <glyph glyph-name="one.dnom" horiz-adv-x="193" 
d="M126 0h-5q-5 0 -5 5v369l-83 -58q-3 -3 -7 1l-3 4q-2 3 2 7l85 59q1 1 5 1h11q5 0 5 -5v-378q0 -5 -5 -5z" />
    <glyph glyph-name="two.dnom" horiz-adv-x="305" 
d="M266 0h-229q-5 0 -5 5v3q0 5 2 7l79 85q52 55 74.5 81.5t40.5 59.5t18 62q0 34 -25.5 54.5t-69.5 20.5q-55 0 -102 -53q-3 -3 -7 0l-3 3q-3 4 0 8q47 57 113 57q53 0 81 -26.5t28 -62.5q0 -45 -31.5 -90.5t-103.5 -121.5l-72 -77h212q5 0 5 -5v-5q0 -5 -5 -5z" />
    <glyph glyph-name="three.dnom" horiz-adv-x="311" 
d="M273 118q0 -50 -33.5 -86.5t-83.5 -36.5q-73 0 -123 63q-3 4 0 7l4 3q4 3 7 -1q48 -57 111 -57q45 0 74 32t29 77q0 41 -26.5 68.5t-76.5 27.5q-19 0 -39 -2q-4 0 -5 2l-2 4q-2 3 2 7l132 147h-191q-5 0 -5 5v5q0 5 5 5h212q4 0 4 -4v-3q0 -2 -3 -5l-133 -148q10 1 27 1
q51 0 82.5 -31t31.5 -80z" />
    <glyph glyph-name="four.dnom" horiz-adv-x="302" 
d="M229 0h-5q-5 0 -5 5v98h-190q-5 0 -5 5v2q0 2 2 6l153 269q1 3 6 3h5q7 0 4 -6l-150 -264h175v98q0 5 5 5h5q5 0 5 -5v-98h36q5 0 5 -5v-5q0 -5 -5 -5h-36v-98q0 -5 -5 -5z" />
    <glyph glyph-name="five.dnom" horiz-adv-x="322" 
d="M284 129q0 -63 -32 -98.5t-87 -35.5q-75 0 -119 65q-1 4 3 7l3 2q5 3 7 -3q40 -56 106 -56q50 0 77 31t27 88q0 56 -27.5 84t-74.5 28q-56 0 -100 -50q-2 -2 -7 -2l-9 2q-4 1 -4 6l6 186q0 5 5 5h206q5 0 5 -5v-5q0 -5 -5 -5h-197l-5 -166q43 49 105 49q53 0 85 -32.5
t32 -94.5z" />
    <glyph glyph-name="six.dnom" horiz-adv-x="327" 
d="M289 126q0 -61 -31.5 -96t-84.5 -35q-56 0 -90 35t-34 96v153q0 52 32 83t87 31q50 0 101 -40q3 -3 0 -7l-3 -4q-4 -4 -7 0q-43 36 -91 36q-49 0 -76.5 -26t-27.5 -73v-92q12 26 41.5 43.5t66.5 17.5q54 0 85.5 -32t31.5 -90zM64 126q0 -55 30 -85.5t79 -30.5q47 0 74 31
t27 85q0 52 -27 79.5t-75 27.5t-78 -29.5t-30 -77.5z" />
    <glyph glyph-name="seven.dnom" horiz-adv-x="284" 
d="M77 0h-7q-5 0 -3 6l177 367h-216q-5 0 -5 5v5q0 5 5 5h230q5 0 5 -5v-1q0 -3 -1 -6l-180 -373q-2 -3 -5 -3z" />
    <glyph glyph-name="eight.dnom" horiz-adv-x="338" 
d="M296 106q0 -46 -36 -78.5t-91 -32.5t-91 32.5t-36 78.5q0 35 21.5 62t61.5 36q-73 19 -73 93q0 42 33 69t84 27t84 -27t33 -69q0 -74 -73 -93q40 -9 61.5 -36t21.5 -62zM67 297q0 -38 26 -62t76 -24t76 24t26 62q0 37 -29.5 59t-72.5 22t-72.5 -22t-29.5 -59zM57 107
q0 -40 31 -68.5t81 -28.5t81 28.5t31 68.5q0 39 -31 64t-81 25t-81 -25t-31 -64z" />
    <glyph glyph-name="nine.dnom" horiz-adv-x="330" 
d="M41 269q0 57 31.5 90.5t84.5 33.5q56 0 90 -34t34 -94v-156q0 -52 -32 -83t-86 -31q-63 0 -113 59q-4 4 0 7l4 4q4 3 7 0q43 -55 102 -55q49 0 76 26t27 73v96q-12 -28 -41.5 -46.5t-66.5 -18.5q-54 0 -85.5 33.5t-31.5 95.5zM266 265q0 54 -30 83.5t-79 29.5
q-47 0 -74 -29.5t-27 -79.5q0 -55 27 -84.5t75 -29.5t78 30.5t30 79.5z" />
    <glyph glyph-name="zero.numr" horiz-adv-x="344" 
d="M295 436q0 -49 -34.5 -81.5t-88.5 -32.5t-88.5 32.5t-34.5 81.5v165q0 53 34 86t89 33t89 -33t34 -86v-165zM64 436q0 -43 30 -71t78 -28t78 28t30 71v165q0 47 -29.5 75.5t-78.5 28.5t-78.5 -28.5t-29.5 -75.5v-165z" />
    <glyph glyph-name="one.numr" horiz-adv-x="193" 
d="M127 326h-5q-5 0 -5 5v369l-83 -58q-3 -3 -7 1l-3 4q-2 3 2 7l85 59q1 1 5 1h11q5 0 5 -5v-378q0 -5 -5 -5z" />
    <glyph glyph-name="two.numr" horiz-adv-x="305" 
d="M266 327h-229q-5 0 -5 5v3q0 5 2 7l79 85q52 55 74.5 81.5t40.5 59.5t18 62q0 34 -25.5 54.5t-69.5 20.5q-55 0 -102 -53q-3 -4 -7 0l-3 3q-3 4 0 8q47 57 113 57q53 0 81 -26.5t28 -62.5q0 -45 -31.5 -90.5t-103.5 -121.5l-72 -77h212q5 0 5 -5v-5q0 -5 -5 -5z" />
    <glyph glyph-name="three.numr" horiz-adv-x="311" 
d="M273 445q0 -50 -33.5 -86.5t-83.5 -36.5q-73 0 -123 63q-3 4 0 7l4 3q4 3 7 -1q48 -57 111 -57q45 0 74 32t29 77q0 41 -26.5 68.5t-76.5 27.5q-19 0 -39 -2q-4 0 -5 2l-2 4q-2 3 2 7l132 147h-191q-5 0 -5 5v5q0 5 5 5h212q4 0 4 -4v-3q0 -2 -3 -5l-133 -148q10 1 27 1
q51 0 82.5 -31t31.5 -80z" />
    <glyph glyph-name="four.numr" horiz-adv-x="302" 
d="M230 327h-5q-5 0 -5 5v98h-190q-5 0 -5 5v2q0 2 2 6l153 269q2 3 6 3h5q7 0 4 -6l-150 -264h175v98q0 5 5 5h5q5 0 5 -5v-98h36q5 0 5 -5v-5q0 -5 -5 -5h-36v-98q0 -5 -5 -5z" />
    <glyph glyph-name="five.numr" horiz-adv-x="322" 
d="M284 456q0 -63 -32 -98.5t-87 -35.5q-75 0 -119 65q-1 4 3 7l3 2q5 3 7 -3q40 -56 106 -56q50 0 77 31t27 88q0 56 -27.5 84t-74.5 28q-56 0 -100 -50q-2 -2 -7 -2l-9 2q-4 1 -4 6l6 186q0 5 5 5h206q5 0 5 -5v-5q0 -5 -5 -5h-197l-5 -166q43 49 105 49q53 0 85 -32.5
t32 -94.5z" />
    <glyph glyph-name="six.numr" horiz-adv-x="327" 
d="M289 453q0 -61 -31.5 -96t-84.5 -35q-56 0 -90 35t-34 96v153q0 52 32 83t86 31q51 0 102 -40q3 -3 0 -7l-3 -4q-4 -3 -7 0q-45 36 -92 36q-49 0 -76 -26t-27 -73v-92q12 26 41.5 43.5t66.5 17.5q54 0 85.5 -32t31.5 -90zM64 453q0 -55 30 -85.5t79 -30.5q47 0 74 31
t27 85q0 52 -27 79.5t-75 27.5t-78 -29.5t-30 -77.5z" />
    <glyph glyph-name="seven.numr" horiz-adv-x="284" 
d="M77 327h-7q-5 0 -3 6l177 367h-216q-5 0 -5 5v5q0 5 5 5h230q5 0 5 -5v-1q0 -3 -1 -6l-180 -373q-2 -3 -5 -3z" />
    <glyph glyph-name="eight.numr" horiz-adv-x="338" 
d="M296 433q0 -46 -36 -78.5t-91 -32.5t-91 32.5t-36 78.5q0 35 21.5 62t61.5 36q-73 19 -73 93q0 42 33 69t84 27t84 -27t33 -69q0 -74 -73 -93q40 -9 61.5 -36t21.5 -62zM67 624q0 -38 26 -62t76 -24t76 24t26 62q0 37 -29.5 59t-72.5 22t-72.5 -22t-29.5 -59zM57 434
q0 -40 31 -68.5t81 -28.5t81 28.5t31 68.5q0 39 -31 64t-81 25t-81 -25t-31 -64z" />
    <glyph glyph-name="nine.numr" horiz-adv-x="330" 
d="M41 596q0 57 31.5 90.5t84.5 33.5q56 0 90 -34t34 -94v-156q0 -52 -32 -83t-86 -31q-63 0 -113 59q-4 3 0 7l4 4q4 4 7 0q43 -55 102 -55q49 0 76 26t27 73v96q-12 -28 -41.5 -46.5t-66.5 -18.5q-54 0 -85.5 33.5t-31.5 95.5zM266 592q0 54 -30 83.5t-79 29.5
q-47 0 -74 -29.5t-27 -79.5q0 -55 27 -84.5t75 -29.5t78 30.5t30 79.5z" />
    <glyph glyph-name="cent.tf" 
d="M453 68l5 -8q4 -4 -1 -7q-77 -62 -169 -63v-78q0 -5 -5 -5h-9q-5 0 -5 5v78q-83 4 -132 56.5t-49 126.5v167q0 74 49 126.5t132 56.5v80q0 5 5 5h9q5 0 5 -5v-80q83 -1 155 -54q5 -3 1 -7l-5 -8q-3 -3 -7 -1q-68 51 -150 51t-128 -47t-46 -117v-167q0 -70 47 -117
t127 -47q88 0 164 60q4 2 7 -1z" />
    <glyph glyph-name="currency.tf" 
d="M428 173q-63 -58 -158 -58t-158 58l-47 -47q-4 -4 -8 0l-5 5q-4 4 0 8l47 47q-58 61 -58 159q0 94 58 157l-47 47q-4 4 0 8l5 5q4 4 8 0l47 -47q64 59 158 59q96 0 158 -59l47 47q4 4 8 0l5 -5q4 -4 0 -8l-47 -47q58 -63 58 -157q0 -96 -58 -159l47 -47q4 -4 0 -8l-5 -5
q-4 -4 -8 0zM60 345q0 -95 59 -153t151 -58t151.5 59t58.5 152q-1 91 -60.5 150.5t-149.5 59.5q-92 0 -151 -59t-59 -151z" />
    <glyph glyph-name="dollar.tf" 
d="M268 371q45 -11 70.5 -18.5t62 -23.5t56 -34.5t34 -49t14.5 -69.5q0 -86 -59.5 -135t-163.5 -51v-81q0 -5 -5 -5h-10q-5 0 -5 5v81q-114 3 -218 98q-5 3 -1 7l5 7q3 3 7 1q106 -95 221 -95q94 0 151.5 44t57.5 123q0 35 -14.5 63.5t-29.5 44t-53 31.5t-54 20.5t-63 15.5
q-3 1 -5.5 1.5t-5.5 1.5q-109 26 -164.5 67t-55.5 127q0 83 62.5 129.5t159.5 48.5v75q0 5 5 5h10q5 0 5 -5v-75q99 -4 202 -83q5 -3 1 -7l-5 -7q-3 -3 -7 -1q-104 79 -208 79q-90 0 -147.5 -42t-57.5 -117q0 -77 51.5 -114t156.5 -62z" />
    <glyph glyph-name="euro.tf" 
d="M299 9q115 2 202 79q3 4 7 0l6 -7q3 -4 -1 -7q-88 -84 -213 -84q-110 0 -169.5 65.5t-59.5 169.5v57h-46q-5 0 -5 5v10q0 5 5 5h46v110h-46q-5 0 -5 5v10q0 5 5 5h46v58q0 104 59 169.5t167 65.5q114 0 201 -75q5 -3 1 -7l-6 -7q-3 -3 -7 -1q-83 69 -190 71
q-99 0 -152 -59.5t-53 -156.5v-58h315q5 0 5 -5v-10q0 -5 -5 -5h-315v-110h315q5 0 5 -5v-10q0 -5 -5 -5h-315v-57q0 -97 53.5 -156.5t154.5 -59.5z" />
    <glyph glyph-name="florin.tf" 
d="M196 1q-25 -129 -100 -129q-28 0 -62 12q-5 2 -3 7l3 8q2 5 7 3q33 -11 54 -11q34 0 52 27t30 91l64 342h-100q-5 0 -5 5v9q0 5 5 5h104l40 215q13 72 37.5 106t78.5 34q28 0 61 -11q5 -2 3 -7l-2 -9q-1 -5 -6 -3q-35 11 -59 11q-42 0 -61.5 -29t-32.5 -98l-39 -209h113
q5 0 5 -5v-9q0 -5 -5 -5h-116z" />
    <glyph glyph-name="ruble.tf" 
d="M527 500q0 -102 -63 -158t-180 -56h-174v-103h171q5 0 5 -5v-9q0 -5 -5 -5h-171v-159q0 -5 -5 -5h-10q-5 0 -5 5v159h-76q-5 0 -5 5v9q0 5 5 5h76v527q0 5 5 5h189q117 0 180 -57t63 -158zM506 500q0 94 -57.5 145t-166.5 51h-172v-391h172q110 0 167 50.5t57 144.5z" />
    <glyph glyph-name="sterling.tf" 
d="M480 0h-425q-5 0 -5 5v9q0 5 5 5q69 3 69 108v249h-69q-5 0 -5 5v9q0 5 5 5h69v157q0 74 47 123.5t132 49.5q96 0 170 -61q3 -2 1 -7l-5 -7q-3 -3 -7 -1q-81 57 -160 57q-76 0 -117 -44t-41 -110v-157h239q5 0 5 -5v-9q0 -5 -5 -5h-239v-250q0 -84 -41 -107h377q5 0 5 -5
v-9q0 -5 -5 -5z" />
    <glyph glyph-name="yen.tf" 
d="M496 715h12q7 0 4 -6l-225 -411h128q5 0 5 -5v-9q0 -5 -5 -5h-136v-89h136q5 0 5 -5v-9q0 -5 -5 -5h-136v-166q0 -5 -5 -5h-10q-5 0 -5 5v166h-134q-5 0 -5 5v9q0 5 5 5h134v89h-134q-5 0 -5 5v9q0 5 5 5h127l-225 411q-3 6 4 6h12q4 0 6 -4l220 -404l221 404q2 4 6 4z
" />
    <glyph glyph-name="dieresiscomb.case" horiz-adv-x="256" 
d="M49 859q0 -20 -20 -20t-20 20t20 20t20 -20zM247 859q0 -20 -20 -20t-20 20t20 20t20 -20z" />
    <glyph glyph-name="dotaccentcomb.case" horiz-adv-x="130" 
d="M86 859q0 -22 -22 -22t-22 22t22 22t22 -22z" />
    <glyph glyph-name="gravecomb.case" horiz-adv-x="144" 
d="M120 793l-115 134q-5 6 3 6h17q5 0 6 -3l108 -134q4 -6 -3 -6h-10q-4 0 -6 3z" />
    <glyph glyph-name="acutecomb.case" horiz-adv-x="145" 
d="M138 927l-115 -134q-1 -3 -6 -3h-10q-7 0 -3 6l108 134q2 3 6 3h17q7 0 3 -6z" />
    <glyph glyph-name="hungarumlautcomb.case" horiz-adv-x="291" 
d="M12 790h-9q-7 0 -3 6l109 134q1 3 6 3h17q8 0 3 -6l-117 -134q-2 -3 -6 -3zM166 790h-9q-7 0 -3 6l109 134q1 3 6 3h17q7 0 3 -6l-117 -134q-2 -3 -6 -3z" />
    <glyph glyph-name="circumflexcomb.case" horiz-adv-x="338" 
d="M42 790h-12q-9 0 -3 6l131 134q3 3 7 3h14q4 0 7 -3l131 -134q6 -6 -3 -6h-12q-4 0 -7 3l-123 121l-123 -121q-3 -3 -7 -3z" />
    <glyph glyph-name="caroncomb.case" horiz-adv-x="344" 
d="M29 933h12q4 0 7 -3l123 -121l123 121q3 3 7 3h12q9 0 3 -6l-131 -134q-3 -3 -7 -3h-14q-4 0 -7 3l-131 134q-6 6 3 6z" />
    <glyph glyph-name="brevecomb.case" horiz-adv-x="320" 
d="M309 931q-8 -63 -47.5 -103t-101.5 -40t-101.5 40t-46.5 103q-1 4 4 6l9 2q4 1 6 -4q6 -58 39.5 -93t89.5 -35t89.5 35t39.5 93q2 5 6 4l9 -2q5 -2 5 -6z" />
    <glyph glyph-name="ringcomb.case" horiz-adv-x="234" 
d="M212 866q0 -40 -26 -64.5t-67 -24.5q-43 0 -69 24.5t-26 64.5q0 39 26 63.5t69 24.5q41 0 67 -24.5t26 -63.5zM43 866q0 -32 20.5 -51.5t55.5 -19.5t54.5 19.5t19.5 51.5q0 31 -19.5 50.5t-54.5 19.5t-55.5 -19.5t-20.5 -50.5z" />
    <glyph glyph-name="tildecomb.case" horiz-adv-x="262" 
d="M262 874q-6 -20 -24 -34.5t-40 -14.5q-25 0 -67 23t-66 23q-30 0 -49 -37q-2 -3 -6 -2l-7 3q-5 2 -3 7q7 20 24.5 33.5t41.5 13.5q22 0 70 -24q46 -22 61 -22q31 0 49 38q2 3 6 2l7 -3q4 -2 3 -6z" />
    <glyph glyph-name="macroncomb.case" horiz-adv-x="299" 
d="M274 845h-249q-5 0 -5 5v10q0 5 5 5h249q5 0 5 -5v-10q0 -5 -5 -5z" />
    <glyph glyph-name="commaturnedabovecomb.case" horiz-adv-x="70" 
d="M2 796l50 149q2 4 5 4h7q6 0 4 -6l-43 -149q-2 -4 -5 -4h-14q-6 0 -4 6z" />
    <glyph glyph-name="commaaccentcomb.case" horiz-adv-x="172" 
d="M52 -227h-8q-6 0 -5 6l38 144q2 4 5 4h14q6 0 4 -6l-43 -144q-2 -4 -5 -4z" />
    <glyph glyph-name="cedillacomb.case" horiz-adv-x="160" 
d="M160 -129q0 -33 -25.5 -53.5t-69.5 -20.5q-32 0 -61 10q-4 1 -4 6v8q0 5 6 4q30 -10 59 -10q37 0 56.5 15t19.5 42q0 26 -20.5 38t-69.5 13q-5 0 -6 3q-3 3 -1 6l25 66q2 4 6 4h10q6 0 4 -6l-23 -58q94 0 94 -67z" />
    <glyph glyph-name="ogonekcomb.case" horiz-adv-x="167" 
d="M141 -180q-31 -18 -73 -18q-31 0 -49.5 18t-18.5 51t25.5 67.5t67.5 59.5q2 2 6 2h10q9 0 1 -6q-43 -28 -66.5 -62t-23.5 -61q0 -50 49 -50q33 0 62 15q5 3 7 -2l4 -8q2 -4 -1 -6z" />
    <glyph glyph-name="strokeshortcomb.case" horiz-adv-x="344" 
d="M339 377h-334q-5 0 -5 5v9q0 5 5 5h334q5 0 5 -5v-9q0 -5 -5 -5z" />
    <glyph glyph-name="strokelongcomb.case" horiz-adv-x="625" 
d="M520 377h-515q-5 0 -5 5v9q0 5 5 5h515q5 0 5 -5v-9q0 -5 -5 -5z" />
    <glyph glyph-name="slashshortcomb.case" horiz-adv-x="290" 
d="M3 283l253 226q6 6 6 -3v-14q0 -4 -3 -6l-253 -226q-6 -6 -6 3v14q0 5 3 6z" />
    <glyph glyph-name="slashlongcomb.case" horiz-adv-x="600" 
d="M47 -37h-10q-7 0 -4 6l418 772q2 4 6 4h10q7 0 4 -6l-418 -772q-2 -4 -6 -4z" />
    <glyph glyph-name="cyrbreve.loclBGR" horiz-adv-x="286" 
d="M285 736q-7 -60 -45 -98.5t-97 -38.5t-97 38.5t-45 98.5q-2 5 4 6l10 1q5 0 6 -4q7 -55 38.5 -88t83.5 -33t83.5 33t38.5 88q2 5 6 4l10 -1q6 0 4 -6z" />
    <glyph glyph-name="cyrbreve.case.loclBGR" horiz-adv-x="298" 
d="M298 931q-8 -63 -47.5 -103t-101.5 -40t-101.5 40t-46.5 103q-1 4 4 6l9 2q4 1 6 -4q6 -58 39.5 -93t89.5 -35t89.5 35t39.5 93q2 5 6 4l9 -2q5 -2 5 -6z" />
    </font>
</defs>
</svg>
